Junicode-width (Autosaved).glyphspackage
{
glyphname = exclam;
kernLeft = exclam;
lastChange = "2021-05-23 10:52:53 +0000";
layers = (
{
background = {
shapes = (
{
closed = 1;
nodes = (
(331,-25,o),
(381,24,o),
(381,93,cs),
(381,162,o),
(331,211,o),
(260,211,cs),
(189,211,o),
(139,162,o),
(139,93,cs),
(139,24,o),
(189,-25,o),
(260,-25,cs)
);
}
);
};
hints = (
{
horizontal = 1;
options = 4;
origin = (1,11);
target = (1,5);
type = TTStem;
},
{
horizontal = 1;
options = 4;
origin = (0,11);
target = (0,23);
type = TTStem;
}
);
layerId = master01;
shapes = (
{
closed = 1;
nodes = (
(281,420,o),
(292,425,o),
(293,436,cs),
(305,573,o),
(315,739,o),
(336,934,cs),
(357,1128,o),
(367,1246,o),
(367,1288,cs),
(367,1362,o),
(333,1399,o),
(264,1399,cs),
(211,1399,o),
(166,1345,o),
(166,1275,cs),
(166,1238,o),
(175,1122,o),
(193,927,cs),
(211,732,o),
(227,569,o),
(227,436,cs),
(227,425,o),
(239,420,o),
(260,420,cs)
);
},
{
closed = 1;
nodes = (
(331,-25,o),
(381,24,o),
(381,93,cs),
(381,162,o),
(331,211,o),
(260,211,cs),
(189,211,o),
(139,162,o),
(139,93,cs),
(139,24,o),
(189,-25,o),
(260,-25,cs)
);
}
);
width = 520;
},
{
background = {
shapes = (
{
closed = 1;
nodes = (
(353,-26,o),
(418,37,o),
(418,127,cs),
(418,216,o),
(353,279,o),
(261,279,cs),
(169,279,o),
(104,216,o),
(104,127,cs),
(104,37,o),
(169,-26,o),
(261,-26,cs)
);
}
);
};
layerId = "75918100-ED89-42A8-B0FE-888EB9C86810";
shapes = (
{
closed = 1;
nodes = (
(294,420,o),
(311,427,o),
(311,440,cs),
(311,544,o),
(335,654,o),
(360,878,cs),
(385,1101,o),
(401,1201,o),
(401,1280,cs),
(401,1350,o),
(350,1399,o),
(265,1399,cs),
(180,1399,o),
(129,1350,o),
(129,1280,cs),
(129,1201,o),
(142,1102,o),
(168,878,cs),
(194,654,o),
(209,508,o),
(209,440,cs),
(209,427,o),
(228,420,o),
(261,420,cs)
);
},
{
closed = 1;
nodes = (
(353,-26,o),
(418,37,o),
(418,127,cs),
(418,216,o),
(353,279,o),
(261,279,cs),
(169,279,o),
(104,216,o),
(104,127,cs),
(104,37,o),
(169,-26,o),
(261,-26,cs)
);
}
);
width = 518;
},
{
background = {
shapes = (
{
closed = 1;
nodes = (
(324,-25,o),
(369,20,o),
(369,82,cs),
(369,144,o),
(324,188,o),
(260,188,cs),
(196,188,o),
(151,144,o),
(151,82,cs),
(151,20,o),
(196,-25,o),
(260,-25,cs)
);
}
);
};
layerId = "6ABD9449-5E80-4451-809E-12ADEB9E9AB4";
shapes = (
{
closed = 1;
nodes = (
(277,420,o),
(286,425,o),
(287,435,cs),
(296,583,o),
(309,768,o),
(328,952,cs),
(347,1137,o),
(356,1261,o),
(356,1291,cs),
(356,1366,o),
(327,1399,o),
(264,1399,cs),
(221,1399,o),
(178,1343,o),
(178,1273,cs),
(178,1250,o),
(186,1128,o),
(201,943,cs),
(216,758,o),
(226,589,o),
(233,435,cs),
(233,425,o),
(242,420,o),
(260,420,cs)
);
},
{
closed = 1;
nodes = (
(324,-25,o),
(369,20,o),
(369,82,cs),
(369,144,o),
(324,188,o),
(260,188,cs),
(196,188,o),
(151,144,o),
(151,82,cs),
(151,20,o),
(196,-25,o),
(260,-25,cs)
);
}
);
width = 521;
},
{
background = {
shapes = (
{
closed = 1;
nodes = (
(291,-25,o),
(341,24,o),
(341,93,cs),
(341,162,o),
(291,211,o),
(220,211,cs),
(149,211,o),
(99,162,o),
(99,93,cs),
(99,24,o),
(149,-25,o),
(220,-25,cs)
);
}
);
};
layerId = "70B83247-6FA0-4662-9656-C86DD2A17D3B";
shapes = (
{
closed = 1;
nodes = (
(240,420,o),
(249,425,o),
(250,437,cs),
(256,560,o),
(270,728,o),
(287,917,cs),
(303,1097,o),
(315,1236,o),
(315,1286,cs),
(315,1358,o),
(282,1399,o),
(222,1399,cs),
(170,1399,o),
(132,1346,o),
(132,1277,cs),
(132,1232,o),
(142,1090,o),
(157,912,cs),
(176,683,o),
(187,560,o),
(187,437,cs),
(187,426,o),
(198,420,o),
(219,420,cs)
);
},
{
closed = 1;
nodes = (
(291,-25,o),
(341,24,o),
(341,93,cs),
(341,162,o),
(291,211,o),
(220,211,cs),
(149,211,o),
(99,162,o),
(99,93,cs),
(99,24,o),
(149,-25,o),
(220,-25,cs)
);
}
);
width = 438;
},
{
background = {
shapes = (
{
closed = 1;
nodes = (
(371,-25,o),
(421,24,o),
(421,93,cs),
(421,162,o),
(371,211,o),
(300,211,cs),
(229,211,o),
(179,162,o),
(179,93,cs),
(179,24,o),
(229,-25,o),
(300,-25,cs)
);
}
);
};
layerId = "9E6FDE2E-55A6-44A9-9556-F1822294BF26";
shapes = (
{
closed = 1;
nodes = (
(322,420,o),
(335,425,o),
(336,435,cs),
(354,586,o),
(360,750,o),
(385,951,cs),
(411,1159,o),
(419,1256,o),
(419,1290,cs),
(419,1366,o),
(384,1399,o),
(306,1399,cs),
(252,1399,o),
(200,1344,o),
(200,1273,cs),
(200,1244,o),
(208,1154,o),
(229,942,cs),
(246,781,o),
(267,578,o),
(267,435,cs),
(267,424,o),
(280,420,o),
(301,420,cs)
);
},
{
closed = 1;
nodes = (
(371,-25,o),
(421,24,o),
(421,93,cs),
(421,162,o),
(371,211,o),
(300,211,cs),
(229,211,o),
(179,162,o),
(179,93,cs),
(179,24,o),
(229,-25,o),
(300,-25,cs)
);
}
);
width = 602;
},
{
background = {
shapes = (
{
closed = 1;
nodes = (
(331,-25,o),
(381,24,o),
(381,93,cs),
(381,162,o),
(331,211,o),
(260,211,cs),
(189,211,o),
(139,162,o),
(139,93,cs),
(139,24,o),
(189,-25,o),
(260,-25,cs)
);
}
);
};
layerId = "00F4936D-6309-4DEC-83B3-42806ED1A477";
shapes = (
{
closed = 1;
nodes = (
(281,420,o),
(292,425,o),
(293,436,cs),
(305,573,o),
(315,739,o),
(336,934,cs),
(357,1128,o),
(367,1246,o),
(367,1288,cs),
(367,1362,o),
(333,1399,o),
(264,1399,cs),
(211,1399,o),
(166,1345,o),
(166,1275,cs),
(166,1238,o),
(175,1122,o),
(193,927,cs),
(211,732,o),
(227,569,o),
(227,436,cs),
(227,425,o),
(239,420,o),
(260,420,cs)
);
},
{
closed = 1;
nodes = (
(331,-25,o),
(381,24,o),
(381,93,cs),
(381,162,o),
(331,211,o),
(260,211,cs),
(189,211,o),
(139,162,o),
(139,93,cs),
(139,24,o),
(189,-25,o),
(260,-25,cs)
);
}
);
width = 520;
}
);
unicode = 33;
}
{
glyphname = ampersand;
lastChange = "2021-05-20 21:51:10 +0000";
layers = (
{
layerId = master01;
shapes = (
{
closed = 1;
nodes = (
(671,-27,o),
(831,66,o),
(975,252,c),
(1102,66,o),
(1225,-27,o),
(1380,-27,cs),
(1491,-27,o),
(1599,23,o),
(1668,125,cs),
(1673,132,o),
(1671,139,o),
(1661,148,cs),
(1650,158,o),
(1643,159,o),
(1638,154,cs),
(1588,104,o),
(1532,76,o),
(1437,76,cs),
(1309,76,o),
(1230,126,o),
(1065,369,c),
(1250,608,ls),
(1339,723,o),
(1399,792,o),
(1434,816,cs),
(1469,840,o),
(1520,852,o),
(1589,852,cs),
(1600,852,o),
(1606,861,o),
(1606,880,cs),
(1606,899,o),
(1600,908,o),
(1589,909,c),
(1550,905,o),
(1469,903,o),
(1348,903,cs),
(1227,903,o),
(1147,905,o),
(1110,909,c),
(1100,908,o),
(1095,899,o),
(1095,880,cs),
(1095,861,o),
(1100,852,o),
(1110,852,cs),
(1211,852,o),
(1262,834,o),
(1262,797,cs),
(1262,760,o),
(1213,677,o),
(1114,550,cs),
(1022,432,l),
(897,615,o),
(763,759,o),
(620,862,c),
(759,913,o),
(834,1008,o),
(834,1126,cs),
(834,1271,o),
(722,1372,o),
(567,1372,cs),
(396,1372,o),
(258,1247,o),
(258,1090,cs),
(258,990,o),
(315,902,o),
(430,819,c),
(144,678,o),
(76,536,o),
(76,375,cs),
(76,111,o),
(249,-27,o),
(496,-27,cs)
);
},
{
closed = 1;
nodes = (
(366,98,o),
(221,220,o),
(221,412,cs),
(221,561,o),
(308,681,o),
(482,782,c),
(657,655,o),
(807,500,o),
(932,315,c),
(820,170,o),
(694,98,o),
(555,98,cs)
);
},
{
closed = 1;
nodes = (
(453,983,o),
(395,1062,o),
(395,1145,cs),
(395,1224,o),
(452,1311,o),
(548,1311,cs),
(640,1311,o),
(698,1233,o),
(698,1122,cs),
(698,1023,o),
(655,949,o),
(569,899,c)
);
}
);
width = 1704;
},
{
layerId = "75918100-ED89-42A8-B0FE-888EB9C86810";
shapes = (
{
closed = 1;
nodes = (
(654,-29,o),
(808,49,o),
(958,199,c),
(1066,47,o),
(1212,-29,o),
(1377,-29,cs),
(1497,-29,o),
(1658,12,o),
(1706,154,cs),
(1708,161,o),
(1712,178,o),
(1694,193,cs),
(1680,204,o),
(1665,209,o),
(1657,201,cs),
(1613,157,o),
(1542,135,o),
(1471,135,cs),
(1334,135,o),
(1223,218,o),
(1112,383,c),
(1267,606,ls),
(1312,670,o),
(1353,727,o),
(1395,760,cs),
(1444,799,o),
(1515,819,o),
(1608,819,cs),
(1617,819,o),
(1622,836,o),
(1622,870,cs),
(1622,903,o),
(1617,920,o),
(1608,920,c),
(1572,916,o),
(1491,911,o),
(1366,911,cs),
(1241,911,o),
(1150,916,o),
(1094,920,c),
(1083,920,o),
(1078,903,o),
(1078,870,cs),
(1078,836,o),
(1083,819,o),
(1094,819,cs),
(1177,819,o),
(1219,799,o),
(1219,760,cs),
(1219,736,o),
(1185,672,o),
(1115,570,cs),
(1051,477,l),
(942,633,o),
(821,757,o),
(690,850,c),
(810,921,o),
(870,1003,o),
(870,1106,cs),
(870,1251,o),
(740,1372,o),
(557,1372,cs),
(386,1372,o),
(221,1245,o),
(221,1066,cs),
(221,962,o),
(276,872,o),
(385,793,c),
(156,674,o),
(39,527,o),
(39,355,cs),
(39,138,o),
(216,-29,o),
(496,-29,cs)
);
},
{
closed = 1;
nodes = (
(385,90,o),
(258,226,o),
(258,414,cs),
(258,543,o),
(329,650,o),
(471,735,c),
(628,629,o),
(772,477,o),
(903,279,c),
(790,154,o),
(682,90,o),
(580,90,cs)
);
},
{
closed = 1;
nodes = (
(487,976,o),
(432,1033,o),
(432,1130,cs),
(432,1209,o),
(468,1274,o),
(551,1274,cs),
(630,1274,o),
(676,1210,o),
(676,1101,cs),
(676,1017,o),
(649,959,o),
(596,907,c)
);
}
);
width = 1701;
},
{
layerId = "6ABD9449-5E80-4451-809E-12ADEB9E9AB4";
shapes = (
{
closed = 1;
nodes = (
(677,-26,o),
(839,72,o),
(981,270,c),
(1114,72,o),
(1229,-26,o),
(1381,-26,cs),
(1489,-26,o),
(1579,27,o),
(1655,115,cs),
(1661,122,o),
(1657,126,o),
(1650,133,cs),
(1640,143,o),
(1636,142,o),
(1632,138,cs),
(1580,86,o),
(1529,56,o),
(1426,56,cs),
(1301,56,o),
(1232,95,o),
(1049,364,c),
(1244,609,ls),
(1349,740,o),
(1414,814,o),
(1447,835,cs),
(1477,854,o),
(1522,863,o),
(1583,863,cs),
(1594,863,o),
(1601,869,o),
(1601,883,cs),
(1601,898,o),
(1594,904,o),
(1583,905,c),
(1543,901,o),
(1462,900,o),
(1342,900,cs),
(1222,900,o),
(1146,901,o),
(1115,905,c),
(1106,904,o),
(1101,898,o),
(1101,883,cs),
(1101,869,o),
(1106,863,o),
(1115,863,cs),
(1222,863,o),
(1276,846,o),
(1276,809,cs),
(1276,768,o),
(1224,678,o),
(1114,543,cs),
(1012,417,l),
(882,609,o),
(744,760,o),
(597,866,c),
(742,910,o),
(822,1010,o),
(822,1133,cs),
(822,1278,o),
(716,1372,o),
(570,1372,cs),
(399,1372,o),
(270,1248,o),
(270,1098,cs),
(270,999,o),
(328,912,o),
(445,828,c),
(140,679,o),
(88,539,o),
(88,382,cs),
(88,102,o),
(260,-26,o),
(496,-26,cs)
);
},
{
closed = 1;
nodes = (
(360,101,o),
(209,218,o),
(209,411,cs),
(209,567,o),
(301,691,o),
(486,798,c),
(667,664,o),
(819,508,o),
(942,327,c),
(830,175,o),
(698,101,o),
(547,101,cs)
);
},
{
closed = 1;
nodes = (
(442,985,o),
(383,1072,o),
(383,1150,cs),
(383,1229,o),
(447,1323,o),
(547,1323,cs),
(643,1323,o),
(705,1241,o),
(705,1129,cs),
(705,1025,o),
(657,946,o),
(560,896,c)
);
}
);
width = 1705;
},
{
layerId = "70B83247-6FA0-4662-9656-C86DD2A17D3B";
shapes = (
{
closed = 1;
nodes = (
(543,-28,o),
(669,61,o),
(786,236,c),
(882,60,o),
(988,-28,o),
(1114,-28,cs),
(1206,-28,o),
(1308,20,o),
(1356,133,cs),
(1359,140,o),
(1362,149,o),
(1350,161,cs),
(1337,174,o),
(1332,174,o),
(1327,168,cs),
(1291,123,o),
(1243,94,o),
(1171,94,cs),
(1066,94,o),
(993,154,o),
(877,373,c),
(1016,608,ls),
(1069,698,o),
(1116,773,o),
(1146,799,cs),
(1180,829,o),
(1229,842,o),
(1288,842,cs),
(1296,842,o),
(1301,854,o),
(1301,877,cs),
(1301,900,o),
(1296,912,o),
(1288,912,c),
(1255,908,o),
(1186,905,o),
(1094,905,cs),
(1008,905,o),
(930,908,o),
(894,912,c),
(886,912,o),
(882,900,o),
(882,877,cs),
(882,854,o),
(886,842,o),
(894,842,cs),
(970,842,o),
(1008,823,o),
(1008,786,cs),
(1008,754,o),
(972,676,o),
(902,556,cs),
(838,446,l),
(741,624,o),
(634,762,o),
(528,858,c),
(634,916,o),
(689,1007,o),
(689,1120,cs),
(689,1265,o),
(594,1372,o),
(462,1372,cs),
(325,1372,o),
(206,1246,o),
(206,1083,cs),
(206,983,o),
(251,893,o),
(342,811,c),
(130,677,o),
(61,533,o),
(61,369,cs),
(61,119,o),
(201,-28,o),
(408,-28,cs)
);
},
{
closed = 1;
nodes = (
(310,96,o),
(199,222,o),
(199,413,cs),
(199,554,o),
(263,672,o),
(394,768,c),
(528,647,o),
(645,495,o),
(748,304,c),
(658,165,o),
(563,96,o),
(463,96,cs)
);
},
{
closed = 1;
nodes = (
(383,981,o),
(338,1054,o),
(338,1141,cs),
(338,1219,o),
(378,1300,o),
(450,1300,cs),
(520,1300,o),
(563,1226,o),
(563,1116,cs),
(563,1021,o),
(533,952,o),
(474,901,c)
);
}
);
width = 1386;
},
{
layerId = "9E6FDE2E-55A6-44A9-9556-F1822294BF26";
shapes = (
{
closed = 1;
nodes = (
(799,-26,o),
(993,71,o),
(1164,268,c),
(1322,72,o),
(1462,-26,o),
(1646,-26,cs),
(1776,-26,o),
(1890,26,o),
(1980,117,cs),
(1987,124,o),
(1980,129,o),
(1972,135,cs),
(1963,142,o),
(1954,144,o),
(1949,140,cs),
(1885,85,o),
(1821,58,o),
(1703,58,cs),
(1552,58,o),
(1467,98,o),
(1253,365,c),
(1484,608,ls),
(1609,748,o),
(1682,811,o),
(1722,833,cs),
(1758,851,o),
(1811,862,o),
(1890,862,cs),
(1904,862,o),
(1911,868,o),
(1911,883,cs),
(1911,898,o),
(1904,904,o),
(1890,906,c),
(1845,902,o),
(1752,901,o),
(1602,901,cs),
(1446,901,o),
(1364,902,o),
(1326,906,c),
(1314,904,o),
(1308,898,o),
(1308,883,cs),
(1308,868,o),
(1314,862,o),
(1326,862,cs),
(1452,862,o),
(1516,845,o),
(1516,808,cs),
(1516,766,o),
(1454,678,o),
(1326,544,cs),
(1206,418,l),
(1053,606,o),
(892,756,o),
(712,866,c),
(884,910,o),
(979,1009,o),
(979,1132,cs),
(979,1277,o),
(850,1372,o),
(672,1372,cs),
(467,1372,o),
(310,1248,o),
(310,1097,cs),
(310,997,o),
(379,911,o),
(518,827,c),
(158,679,o),
(91,539,o),
(91,381,cs),
(91,103,o),
(297,-26,o),
(584,-26,cs)
);
},
{
closed = 1;
nodes = (
(422,100,o),
(243,218,o),
(243,411,cs),
(243,568,o),
(353,690,o),
(570,796,c),
(786,663,o),
(969,505,o),
(1116,326,c),
(982,175,o),
(825,100,o),
(647,100,cs)
);
},
{
closed = 1;
nodes = (
(523,985,o),
(452,1070,o),
(452,1149,cs),
(452,1229,o),
(526,1322,o),
(646,1322,cs),
(760,1322,o),
(833,1240,o),
(833,1128,cs),
(833,1025,o),
(777,946,o),
(664,897,c)
);
}
);
width = 2022;
},
{
layerId = "00F4936D-6309-4DEC-83B3-42806ED1A477";
shapes = (
{
closed = 1;
nodes = (
(671,-27,o),
(831,66,o),
(975,252,c),
(1102,66,o),
(1225,-27,o),
(1380,-27,cs),
(1491,-27,o),
(1599,23,o),
(1668,125,cs),
(1673,132,o),
(1671,139,o),
(1661,148,cs),
(1650,158,o),
(1643,159,o),
(1638,154,cs),
(1588,104,o),
(1532,76,o),
(1437,76,cs),
(1309,76,o),
(1230,126,o),
(1065,369,c),
(1250,608,ls),
(1339,723,o),
(1399,792,o),
(1434,816,cs),
(1469,840,o),
(1520,852,o),
(1589,852,cs),
(1600,852,o),
(1606,861,o),
(1606,880,cs),
(1606,899,o),
(1600,908,o),
(1589,909,c),
(1550,905,o),
(1469,903,o),
(1348,903,cs),
(1227,903,o),
(1147,905,o),
(1110,909,c),
(1100,908,o),
(1095,899,o),
(1095,880,cs),
(1095,861,o),
(1100,852,o),
(1110,852,cs),
(1211,852,o),
(1262,834,o),
(1262,797,cs),
(1262,760,o),
(1213,677,o),
(1114,550,cs),
(1022,432,l),
(897,615,o),
(763,759,o),
(620,862,c),
(759,913,o),
(834,1008,o),
(834,1126,cs),
(834,1271,o),
(722,1372,o),
(567,1372,cs),
(396,1372,o),
(258,1247,o),
(258,1090,cs),
(258,990,o),
(315,902,o),
(430,819,c),
(144,678,o),
(76,536,o),
(76,375,cs),
(76,111,o),
(249,-27,o),
(496,-27,cs)
);
},
{
closed = 1;
nodes = (
(366,98,o),
(221,220,o),
(221,412,cs),
(221,561,o),
(308,681,o),
(482,782,c),
(657,655,o),
(807,500,o),
(932,315,c),
(820,170,o),
(694,98,o),
(555,98,cs)
);
},
{
closed = 1;
nodes = (
(453,983,o),
(395,1062,o),
(395,1145,cs),
(395,1224,o),
(452,1311,o),
(548,1311,cs),
(640,1311,o),
(698,1233,o),
(698,1122,cs),
(698,1023,o),
(655,949,o),
(569,899,c)
);
}
);
width = 1704;
}
);
unicode = 38;
}
{
glyphname = parenleft;
kernRight = parenleft;
lastChange = "2021-05-20 21:51:10 +0000";
layers = (
{
hints = (
{
horizontal = 1;
origin = (0,20);
type = TTSnap;
},
{
horizontal = 1;
origin = (0,14);
type = TTSnap;
}
);
layerId = master01;
shapes = (
{
closed = 1;
nodes = (
(654,-325,o),
(649,-305,o),
(633,-289,cs),
(410,-54,o),
(299,238,o),
(299,588,cs),
(299,941,o),
(409,1233,o),
(629,1464,cs),
(651,1487,o),
(652,1504,o),
(635,1519,cs),
(616,1536,o),
(588,1536,o),
(567,1516,cs),
(326,1287,o),
(160,936,o),
(160,588,cs),
(160,197,o),
(287,-87,o),
(567,-338,cs),
(590,-357,o),
(609,-364,o),
(631,-345,cs)
);
}
);
width = 676;
},
{
layerId = "75918100-ED89-42A8-B0FE-888EB9C86810";
shapes = (
{
closed = 1;
nodes = (
(652,-313,o),
(651,-278,o),
(638,-265,cs),
(433,-64,o),
(338,215,o),
(338,588,cs),
(338,953,o),
(433,1232,o),
(642,1442,cs),
(660,1461,o),
(662,1499,o),
(640,1519,cs),
(618,1538,o),
(572,1532,o),
(558,1520,cs),
(292,1282,o),
(123,931,o),
(123,588,cs),
(123,179,o),
(255,-64,o),
(557,-342,cs),
(575,-359,o),
(617,-348,o),
(633,-332,cs)
);
}
);
width = 673;
},
{
layerId = "6ABD9449-5E80-4451-809E-12ADEB9E9AB4";
shapes = (
{
closed = 1;
nodes = (
(655,-329,o),
(648,-314,o),
(631,-297,cs),
(402,-51,o),
(286,246,o),
(286,588,cs),
(286,937,o),
(401,1233,o),
(625,1471,cs),
(648,1496,o),
(649,1506,o),
(633,1519,cs),
(615,1535,o),
(593,1537,o),
(570,1515,cs),
(334,1285,o),
(172,938,o),
(172,588,cs),
(172,201,o),
(299,-96,o),
(570,-337,cs),
(595,-356,o),
(606,-369,o),
(630,-349,cs)
);
}
);
width = 677;
},
{
layerId = "70B83247-6FA0-4662-9656-C86DD2A17D3B";
shapes = (
{
closed = 1;
nodes = (
(533,-322,o),
(531,-297,o),
(519,-282,cs),
(346,-57,o),
(262,230,o),
(262,588,cs),
(262,943,o),
(345,1233,o),
(517,1456,cs),
(535,1479,o),
(537,1501,o),
(520,1519,cs),
(505,1536,o),
(478,1536,o),
(462,1517,cs),
(259,1281,o),
(128,930,o),
(128,588,cs),
(128,193,o),
(231,-80,o),
(462,-339,cs),
(480,-359,o),
(502,-358,o),
(517,-341,cs)
);
}
);
width = 554;
},
{
layerId = "9E6FDE2E-55A6-44A9-9556-F1822294BF26";
shapes = (
{
closed = 1;
nodes = (
(775,-328,o),
(767,-313,o),
(747,-296,cs),
(474,-51,o),
(336,246,o),
(336,588,cs),
(336,939,o),
(473,1233,o),
(741,1472,cs),
(767,1495,o),
(767,1507,o),
(750,1519,cs),
(727,1536,o),
(698,1536,o),
(672,1515,cs),
(393,1293,o),
(192,942,o),
(192,588,cs),
(192,201,o),
(343,-94,o),
(672,-337,cs),
(700,-355,o),
(716,-370,o),
(745,-349,cs)
);
}
);
width = 798;
},
{
layerId = "00F4936D-6309-4DEC-83B3-42806ED1A477";
shapes = (
{
closed = 1;
nodes = (
(654,-325,o),
(649,-305,o),
(633,-289,cs),
(410,-54,o),
(299,238,o),
(299,588,cs),
(299,941,o),
(409,1233,o),
(629,1464,cs),
(651,1487,o),
(652,1504,o),
(635,1519,cs),
(616,1536,o),
(588,1536,o),
(567,1516,cs),
(326,1287,o),
(160,936,o),
(160,588,cs),
(160,197,o),
(287,-87,o),
(567,-338,cs),
(590,-357,o),
(609,-364,o),
(631,-345,cs)
);
}
);
width = 676;
}
);
unicode = 40;
}
{
glyphname = parenright;
kernLeft = parenright;
lastChange = "2021-05-20 21:51:10 +0000";
layers = (
{
hints = (
{
horizontal = 1;
origin = (0,8);
type = TTSnap;
},
{
horizontal = 1;
origin = (0,2);
type = TTSnap;
}
);
layerId = master01;
shapes = (
{
closed = 1;
nodes = (
(59,-361,o),
(77,-362,o),
(92,-348,cs),
(345,-113,o),
(510,236,o),
(510,588,cs),
(510,980,o),
(384,1262,o),
(98,1518,cs),
(75,1539,o),
(61,1542,o),
(39,1521,cs),
(14,1497,o),
(17,1486,o),
(37,1465,cs),
(260,1230,o),
(371,938,o),
(371,588,cs),
(371,235,o),
(261,-57,o),
(35,-300,cs),
(21,-315,o),
(24,-330,o),
(44,-347,cs)
);
}
);
width = 676;
},
{
layerId = "75918100-ED89-42A8-B0FE-888EB9C86810";
shapes = (
{
closed = 1;
nodes = (
(63,-369,o),
(88,-370,o),
(114,-347,cs),
(385,-104,o),
(553,243,o),
(553,588,cs),
(553,1053,o),
(374,1280,o),
(114,1522,cs),
(88,1547,o),
(66,1544,o),
(39,1517,cs),
(13,1491,o),
(8,1469,o),
(32,1446,cs),
(234,1251,o),
(338,970,o),
(338,588,cs),
(338,295,o),
(267,-40,o),
(32,-276,cs),
(8,-300,o),
(13,-319,o),
(37,-343,cs)
);
}
);
width = 673;
},
{
layerId = "6ABD9449-5E80-4451-809E-12ADEB9E9AB4";
shapes = (
{
closed = 1;
nodes = (
(58,-363,o),
(70,-362,o),
(85,-348,cs),
(334,-113,o),
(496,234,o),
(496,588,cs),
(496,991,o),
(409,1237,o),
(94,1516,cs),
(78,1531,o),
(62,1541,o),
(39,1522,cs),
(17,1503,o),
(21,1489,o),
(40,1470,cs),
(269,1223,o),
(382,927,o),
(382,588,cs),
(382,215,o),
(259,-63,o),
(36,-308,cs),
(23,-322,o),
(24,-334,o),
(45,-351,cs)
);
}
);
width = 677;
},
{
layerId = "70B83247-6FA0-4662-9656-C86DD2A17D3B";
shapes = (
{
closed = 1;
nodes = (
(52,-362,o),
(70,-361,o),
(82,-347,cs),
(290,-109,o),
(422,240,o),
(422,588,cs),
(422,1003,o),
(299,1273,o),
(85,1518,cs),
(69,1536,o),
(52,1536,o),
(32,1520,cs),
(11,1502,o),
(5,1490,o),
(21,1470,cs),
(201,1237,o),
(288,948,o),
(288,588,cs),
(288,254,o),
(212,-52,o),
(28,-293,cs),
(16,-309,o),
(11,-327,o),
(31,-344,cs)
);
}
);
width = 555;
},
{
layerId = "9E6FDE2E-55A6-44A9-9556-F1822294BF26";
shapes = (
{
closed = 1;
nodes = (
(68,-363,o),
(86,-362,o),
(102,-349,cs),
(400,-117,o),
(598,232,o),
(598,588,cs),
(598,957,o),
(469,1251,o),
(111,1517,cs),
(86,1536,o),
(73,1539,o),
(46,1522,cs),
(17,1503,o),
(25,1489,o),
(46,1470,cs),
(319,1223,o),
(454,928,o),
(454,588,cs),
(454,216,o),
(310,-62,o),
(42,-307,cs),
(26,-321,o),
(26,-333,o),
(50,-349,cs)
);
}
);
width = 797;
},
{
layerId = "00F4936D-6309-4DEC-83B3-42806ED1A477";
shapes = (
{
closed = 1;
nodes = (
(59,-361,o),
(77,-362,o),
(92,-348,cs),
(345,-113,o),
(510,236,o),
(510,588,cs),
(510,980,o),
(384,1262,o),
(98,1518,cs),
(75,1539,o),
(61,1542,o),
(39,1521,cs),
(14,1497,o),
(17,1486,o),
(37,1465,cs),
(260,1230,o),
(371,938,o),
(371,588,cs),
(371,235,o),
(261,-57,o),
(35,-300,cs),
(21,-315,o),
(24,-330,o),
(44,-347,cs)
);
}
);
width = 676;
}
);
unicode = 41;
}
{
glyphname = asterisk;
lastChange = "2021-05-20 21:51:10 +0000";
layers = (
{
layerId = master01;
shapes = (
{
closed = 1;
nodes = (
(438,694,l),
(438,981,l),
(682,843,l),
(719,904,l),
(475,1044,l),
(719,1186,l),
(682,1247,l),
(438,1106,l),
(438,1384,l),
(367,1384,l),
(367,1108,l),
(123,1247,l),
(86,1186,l),
(332,1044,l),
(86,904,l),
(123,843,l),
(367,981,l),
(367,694,l)
);
}
);
width = 807;
},
{
layerId = "75918100-ED89-42A8-B0FE-888EB9C86810";
shapes = (
{
closed = 1;
nodes = (
(467,641,l),
(467,915,l),
(702,778,l),
(758,874,l),
(522,1012,l),
(758,1147,l),
(702,1243,l),
(467,1108,l),
(467,1380,l),
(356,1380,l),
(356,1108,l),
(121,1243,l),
(66,1147,l),
(301,1012,l),
(66,874,l),
(121,778,l),
(356,915,l),
(356,641,l)
);
}
);
width = 827;
},
{
layerId = "6ABD9449-5E80-4451-809E-12ADEB9E9AB4";
shapes = (
{
closed = 1;
nodes = (
(428,712,l),
(428,1003,l),
(675,865,l),
(706,914,l),
(459,1055,l),
(706,1199,l),
(675,1248,l),
(428,1105,l),
(428,1385,l),
(371,1385,l),
(371,1108,l),
(124,1248,l),
(93,1199,l),
(342,1055,l),
(93,914,l),
(124,865,l),
(371,1003,l),
(371,712,l)
);
}
);
width = 800;
},
{
layerId = "70B83247-6FA0-4662-9656-C86DD2A17D3B";
shapes = (
{
closed = 1;
nodes = (
(365,678,l),
(365,961,l),
(558,823,l),
(593,895,l),
(400,1034,l),
(593,1174,l),
(558,1246,l),
(365,1107,l),
(365,1383,l),
(297,1383,l),
(297,1108,l),
(103,1246,l),
(69,1174,l),
(263,1034,l),
(69,895,l),
(103,823,l),
(297,961,l),
(297,678,l)
);
}
);
width = 664;
},
{
layerId = "9E6FDE2E-55A6-44A9-9556-F1822294BF26";
shapes = (
{
closed = 1;
nodes = (
(511,710,l),
(511,1001,l),
(806,863,l),
(845,913,l),
(550,1054,l),
(845,1198,l),
(806,1248,l),
(511,1105,l),
(511,1385,l),
(437,1385,l),
(437,1108,l),
(143,1248,l),
(103,1198,l),
(401,1054,l),
(103,913,l),
(143,863,l),
(437,1001,l),
(437,710,l)
);
}
);
width = 950;
},
{
layerId = "00F4936D-6309-4DEC-83B3-42806ED1A477";
shapes = (
{
closed = 1;
nodes = (
(438,694,l),
(438,981,l),
(682,843,l),
(719,904,l),
(475,1044,l),
(719,1186,l),
(682,1247,l),
(438,1106,l),
(438,1384,l),
(367,1384,l),
(367,1108,l),
(123,1247,l),
(86,1186,l),
(332,1044,l),
(86,904,l),
(123,843,l),
(367,981,l),
(367,694,l)
);
}
);
width = 807;
}
);
unicode = 42;
}
{
glyphname = plus;
layers = (
{
layerId = master01;
shapes = (
{
closed = 1;
nodes = (
(573,0,l),
(573,371,l),
(907,371,l),
(907,471,l),
(573,471,l),
(573,807,l),
(453,807,l),
(453,471,l),
(119,471,l),
(119,371,l),
(453,371,l),
(453,0,l)
);
}
);
width = 1024;
},
{
layerId = "75918100-ED89-42A8-B0FE-888EB9C86810";
shapes = (
{
closed = 1;
nodes = (
(625,0,l),
(625,362,l),
(944,362,l),
(944,510,l),
(625,510,l),
(625,836,l),
(444,836,l),
(444,510,l),
(123,510,l),
(123,362,l),
(444,362,l),
(444,0,l)
);
}
);
width = 1062;
},
{
layerId = "6ABD9449-5E80-4451-809E-12ADEB9E9AB4";
shapes = (
{
closed = 1;
nodes = (
(556,0,l),
(556,374,l),
(895,374,l),
(895,458,l),
(556,458,l),
(556,797,l),
(456,797,l),
(456,458,l),
(118,458,l),
(118,374,l),
(456,374,l),
(456,0,l)
);
}
);
width = 1011;
},
{
layerId = "70B83247-6FA0-4662-9656-C86DD2A17D3B";
shapes = (
{
closed = 1;
nodes = (
(472,0,l),
(472,368,l),
(736,368,l),
(736,483,l),
(472,483,l),
(472,816,l),
(358,816,l),
(358,483,l),
(95,483,l),
(95,368,l),
(358,368,l),
(358,0,l)
);
}
);
width = 829;
},
{
layerId = "9E6FDE2E-55A6-44A9-9556-F1822294BF26";
shapes = (
{
closed = 1;
nodes = (
(674,0,l),
(674,374,l),
(1078,374,l),
(1078,459,l),
(674,459,l),
(674,798,l),
(548,798,l),
(548,459,l),
(143,459,l),
(143,374,l),
(548,374,l),
(548,0,l)
);
}
);
width = 1219;
},
{
layerId = "00F4936D-6309-4DEC-83B3-42806ED1A477";
shapes = (
{
closed = 1;
nodes = (
(573,0,l),
(573,371,l),
(907,371,l),
(907,471,l),
(573,471,l),
(573,807,l),
(453,807,l),
(453,471,l),
(119,471,l),
(119,371,l),
(453,371,l),
(453,0,l)
);
}
);
width = 1024;
}
);
unicode = 43;
}
{
glyphname = comma;
kernLeft = comma;
lastChange = "2021-05-20 21:51:10 +0000";
layers = (
{
hints = (
{
horizontal = 1;
origin = (0,5);
type = TTSnap;
},
{
horizontal = 1;
origin = (0,23);
type = TTSnap;
}
);
layerId = master01;
shapes = (
{
closed = 1;
nodes = (
(320,-242,o),
(409,-109,o),
(409,47,cs),
(409,155,o),
(335,236,o),
(237,236,cs),
(168,236,o),
(127,201,o),
(127,141,cs),
(127,90,o),
(150,53,o),
(196,32,cs),
(257,3,o),
(272,-14,o),
(272,-48,cs),
(272,-145,o),
(216,-236,o),
(109,-315,cs),
(99,-322,o),
(97,-327,o),
(110,-345,cs),
(120,-357,o),
(127,-361,o),
(138,-355,cs)
);
}
);
width = 520;
},
{
layerId = "75918100-ED89-42A8-B0FE-888EB9C86810";
shapes = (
{
closed = 1;
nodes = (
(324,-287,o),
(452,-125,o),
(452,29,cs),
(452,158,o),
(367,261,o),
(259,261,cs),
(164,261,o),
(96,208,o),
(96,134,cs),
(96,67,o),
(136,6,o),
(193,-14,cs),
(231,-28,o),
(235,-39,o),
(235,-60,cs),
(235,-154,o),
(185,-256,o),
(101,-331,cs),
(91,-341,o),
(91,-346,o),
(101,-363,cs),
(110,-376,o),
(119,-380,o),
(132,-374,cs)
);
}
);
width = 518;
},
{
layerId = "6ABD9449-5E80-4451-809E-12ADEB9E9AB4";
shapes = (
{
closed = 1;
nodes = (
(319,-228,o),
(398,-105,o),
(398,56,cs),
(398,158,o),
(326,236,o),
(229,236,cs),
(168,236,o),
(133,204,o),
(133,149,cs),
(133,100,o),
(151,71,o),
(195,49,cs),
(269,13,o),
(284,-4,o),
(284,-44,cs),
(284,-142,o),
(225,-230,o),
(107,-315,cs),
(97,-322,o),
(95,-325,o),
(109,-345,cs),
(119,-357,o),
(126,-361,o),
(136,-355,cs)
);
}
);
width = 521;
},
{
layerId = "70B83247-6FA0-4662-9656-C86DD2A17D3B";
shapes = (
{
closed = 1;
nodes = (
(257,-251,o),
(335,-116,o),
(335,38,cs),
(335,148,o),
(272,236,o),
(195,236,cs),
(135,236,o),
(94,195,o),
(94,134,cs),
(94,80,o),
(116,39,o),
(156,15,cs),
(196,-9,o),
(205,-21,o),
(205,-52,cs),
(205,-147,o),
(163,-240,o),
(87,-315,cs),
(80,-321,o),
(80,-333,o),
(87,-346,cs),
(92,-357,o),
(101,-361,o),
(111,-355,cs)
);
}
);
width = 427;
},
{
layerId = "9E6FDE2E-55A6-44A9-9556-F1822294BF26";
shapes = (
{
closed = 1;
nodes = (
(387,-236,o),
(482,-125,o),
(482,10,cs),
(482,141,o),
(396,228,o),
(268,228,cs),
(202,228,o),
(158,193,o),
(158,141,cs),
(158,93,o),
(180,63,o),
(234,40,cs),
(317,6,o),
(338,-16,o),
(338,-66,cs),
(338,-151,o),
(266,-239,o),
(129,-323,cs),
(118,-329,o),
(114,-333,o),
(131,-352,cs),
(145,-365,o),
(151,-369,o),
(163,-363,cs)
);
}
);
width = 613;
},
{
layerId = "00F4936D-6309-4DEC-83B3-42806ED1A477";
shapes = (
{
closed = 1;
nodes = (
(320,-242,o),
(409,-109,o),
(409,47,cs),
(409,155,o),
(335,236,o),
(237,236,cs),
(168,236,o),
(127,201,o),
(127,141,cs),
(127,90,o),
(150,53,o),
(196,32,cs),
(257,3,o),
(272,-14,o),
(272,-48,cs),
(272,-145,o),
(216,-236,o),
(109,-315,cs),
(99,-322,o),
(97,-327,o),
(110,-345,cs),
(120,-357,o),
(127,-361,o),
(138,-355,cs)
);
}
);
width = 520;
}
);
unicode = 44;
}
{
glyphname = hyphen;
kernLeft = hyphen;
layers = (
{
layerId = master01;
shapes = (
{
closed = 1;
nodes = (
(705,487,ls),
(718,487,o),
(724,506,o),
(724,545,cs),
(724,583,o),
(718,602,o),
(707,602,cs),
(115,602,ls),
(104,602,o),
(99,583,o),
(99,545,cs),
(99,506,o),
(104,487,o),
(115,487,cs)
);
}
);
width = 827;
},
{
layerId = "75918100-ED89-42A8-B0FE-888EB9C86810";
shapes = (
{
closed = 1;
nodes = (
(696,479,ls),
(711,479,o),
(718,501,o),
(718,545,cs),
(718,588,o),
(711,610,o),
(698,610,cs),
(125,610,ls),
(112,610,o),
(107,588,o),
(107,545,cs),
(107,501,o),
(113,479,o),
(125,479,cs)
);
}
);
width = 825;
},
{
layerId = "6ABD9449-5E80-4451-809E-12ADEB9E9AB4";
shapes = (
{
closed = 1;
nodes = (
(708,490,ls),
(720,490,o),
(726,508,o),
(726,545,cs),
(726,581,o),
(720,599,o),
(710,599,cs),
(112,599,ls),
(101,599,o),
(96,581,o),
(96,545,cs),
(96,508,o),
(101,490,o),
(112,490,cs)
);
}
);
width = 828;
},
{
layerId = "70B83247-6FA0-4662-9656-C86DD2A17D3B";
shapes = (
{
closed = 1;
nodes = (
(559,485,ls),
(570,485,o),
(575,507,o),
(575,545,cs),
(575,582,o),
(570,604,o),
(561,604,cs),
(93,604,ls),
(84,604,o),
(79,588,o),
(79,545,cs),
(79,502,o),
(84,485,o),
(93,485,cs)
);
}
);
width = 658;
},
{
layerId = "9E6FDE2E-55A6-44A9-9556-F1822294BF26";
shapes = (
{
closed = 1;
nodes = (
(851,489,ls),
(866,489,o),
(873,505,o),
(873,545,cs),
(873,584,o),
(866,600,o),
(853,600,cs),
(137,600,ls),
(124,600,o),
(119,578,o),
(119,545,cs),
(119,510,o),
(124,489,o),
(137,489,cs)
);
}
);
width = 996;
},
{
layerId = "00F4936D-6309-4DEC-83B3-42806ED1A477";
shapes = (
{
closed = 1;
nodes = (
(705,487,ls),
(718,487,o),
(724,506,o),
(724,545,cs),
(724,583,o),
(718,602,o),
(707,602,cs),
(115,602,ls),
(104,602,o),
(99,583,o),
(99,545,cs),
(99,506,o),
(104,487,o),
(115,487,cs)
);
}
);
width = 827;
}
);
unicode = 45;
}
{
glyphname = slash;
lastChange = "2021-08-29 21:28:23 +0000";
layers = (
{
guides = (
{
pos = (165,-307);
},
{
pos = (841,1479);
}
);
layerId = master01;
shapes = (
{
closed = 1;
nodes = (
(839,1430,ls),
(847,1448,o),
(746,1491,o),
(738,1473,cs),
(4,-258,ls),
(-4,-276,o),
(94,-321,o),
(102,-303,cs)
);
}
);
width = 717;
},
{
layerId = "75918100-ED89-42A8-B0FE-888EB9C86810";
shapes = (
{
closed = 1;
nodes = (
(754,1412,ls),
(762,1430,o),
(624,1486,o),
(616,1468,cs),
(-106,-238,ls),
(-114,-256,o),
(21,-313,o),
(29,-295,cs)
);
}
);
width = 520;
},
{
layerId = "6ABD9449-5E80-4451-809E-12ADEB9E9AB4";
shapes = (
{
closed = 1;
nodes = (
(835,1436,ls),
(843,1454,o),
(754,1491,o),
(747,1475,cs),
(9,-265,ls),
(1,-283,o),
(86,-324,o),
(94,-306,cs)
);
}
);
width = 718;
},
{
layerId = "70B83247-6FA0-4662-9656-C86DD2A17D3B";
shapes = (
{
closed = 1;
nodes = (
(720,1435,ls),
(726,1453,o),
(625,1489,o),
(618,1471,cs),
(-3,-253,ls),
(-10,-271,o),
(92,-307,o),
(98,-289,cs)
);
}
);
width = 605;
},
{
layerId = "9E6FDE2E-55A6-44A9-9556-F1822294BF26";
shapes = (
{
closed = 1;
nodes = (
(958,1425,ls),
(966,1442,o),
(866,1492,o),
(858,1475,cs),
(11,-263,ls),
(3,-280,o),
(98,-334,o),
(106,-317,cs)
);
}
);
width = 829;
},
{
guides = (
{
pos = (165,-307);
},
{
pos = (841,1479);
}
);
layerId = "00F4936D-6309-4DEC-83B3-42806ED1A477";
shapes = (
{
closed = 1;
nodes = (
(839,1430,ls),
(847,1448,o),
(746,1491,o),
(738,1473,cs),
(4,-258,ls),
(-4,-277,o),
(94,-322,o),
(102,-303,cs)
);
}
);
width = 717;
}
);
unicode = 47;
}
{
glyphname = one;
layers = (
{
layerId = master01;
shapes = (
{
closed = 1;
nodes = (
(287,-3,o),
(395,0,o),
(493,0,cs),
(590,0,o),
(698,-3,o),
(796,-8,c),
(815,-8,o),
(816,49,o),
(796,49,cs),
(609,49,o),
(578,89,o),
(578,262,cs),
(578,1188,ls),
(578,1219,o),
(579,1277,o),
(584,1340,c),
(584,1359,o),
(580,1374,o),
(571,1374,cs),
(564,1374,o),
(559,1372,o),
(555,1368,cs),
(450,1271,o),
(295,1184,o),
(173,1132,cs),
(155,1124,o),
(179,1078,o),
(192,1085,cs),
(250,1114,o),
(336,1151,o),
(379,1169,cs),
(411,1182,o),
(424,1180,o),
(424,1130,cs),
(424,260,ls),
(424,89,o),
(398,49,o),
(189,49,cs),
(169,49,o),
(170,-8,o),
(189,-8,c)
);
}
);
width = 956;
},
{
layerId = "75918100-ED89-42A8-B0FE-888EB9C86810";
shapes = (
{
closed = 1;
nodes = (
(274,-2,o),
(388,0,o),
(493,0,cs),
(597,0,o),
(712,-2,o),
(816,-8,c),
(837,-8,o),
(836,68,o),
(816,68,cs),
(646,68,o),
(614,108,o),
(614,283,cs),
(614,1161,ls),
(614,1220,o),
(617,1273,o),
(621,1321,c),
(621,1356,o),
(607,1374,o),
(578,1374,cs),
(564,1374,o),
(548,1368,o),
(530,1354,cs),
(418,1266,o),
(254,1172,o),
(119,1113,cs),
(94,1102,o),
(116,1040,o),
(142,1053,cs),
(181,1072,o),
(298,1122,o),
(348,1139,cs),
(373,1148,o),
(387,1139,o),
(387,1087,cs),
(387,281,ls),
(387,108,o),
(354,68,o),
(169,68,cs),
(150,68,o),
(150,-8,o),
(169,-8,c)
);
}
);
width = 954;
},
{
layerId = "6ABD9449-5E80-4451-809E-12ADEB9E9AB4";
shapes = (
{
closed = 1;
nodes = (
(292,-3,o),
(397,0,o),
(493,0,cs),
(588,0,o),
(694,-3,o),
(789,-8,c),
(808,-8,o),
(809,43,o),
(789,43,cs),
(596,43,o),
(566,83,o),
(566,255,cs),
(566,1197,ls),
(566,1219,o),
(566,1278,o),
(572,1346,c),
(572,1360,o),
(571,1372,o),
(567,1372,cs),
(563,1372,o),
(562,1369,o),
(556,1364,cs),
(438,1271,o),
(311,1194,o),
(200,1137,cs),
(185,1129,o),
(208,1090,o),
(218,1095,cs),
(262,1118,o),
(349,1161,o),
(389,1179,cs),
(424,1193,o),
(436,1194,o),
(436,1144,cs),
(436,253,ls),
(436,83,o),
(412,43,o),
(196,43,cs),
(176,43,o),
(177,-8,o),
(196,-8,c)
);
}
);
width = 957;
},
{
layerId = "70B83247-6FA0-4662-9656-C86DD2A17D3B";
shapes = (
{
closed = 1;
nodes = (
(225,-3,o),
(318,0,o),
(400,0,cs),
(482,0,o),
(575,-3,o),
(657,-8,c),
(673,-8,o),
(672,55,o),
(657,55,cs),
(496,55,o),
(479,95,o),
(479,268,cs),
(479,1180,ls),
(479,1214,o),
(480,1271,o),
(484,1334,c),
(484,1358,o),
(478,1374,o),
(465,1374,cs),
(458,1374,o),
(450,1371,o),
(443,1364,cs),
(366,1287,o),
(242,1185,o),
(122,1121,cs),
(107,1113,o),
(130,1066,o),
(147,1076,cs),
(197,1106,o),
(259,1140,o),
(300,1160,cs),
(327,1173,o),
(334,1163,o),
(334,1117,cs),
(334,266,ls),
(334,95,o),
(320,55,o),
(143,55,cs),
(127,55,o),
(128,-8,o),
(143,-8,c)
);
}
);
width = 787;
},
{
layerId = "9E6FDE2E-55A6-44A9-9556-F1822294BF26";
shapes = (
{
closed = 1;
nodes = (
(349,-3,o),
(472,0,o),
(586,0,cs),
(698,0,o),
(821,-3,o),
(935,-8,c),
(957,-8,o),
(960,43,o),
(935,43,cs),
(722,43,o),
(677,83,o),
(677,256,cs),
(677,1196,ls),
(677,1224,o),
(678,1283,o),
(684,1346,c),
(684,1360,o),
(682,1374,o),
(677,1374,cs),
(670,1374,o),
(668,1373,o),
(667,1372,cs),
(534,1255,o),
(348,1183,o),
(224,1143,cs),
(203,1135,o),
(228,1090,o),
(237,1094,cs),
(303,1122,o),
(413,1162,o),
(458,1178,cs),
(495,1191,o),
(514,1197,o),
(514,1143,cs),
(514,254,ls),
(514,83,o),
(476,43,o),
(235,43,cs),
(211,43,o),
(212,-8,o),
(235,-8,c)
);
}
);
width = 1125;
},
{
layerId = "00F4936D-6309-4DEC-83B3-42806ED1A477";
shapes = (
{
closed = 1;
nodes = (
(287,-3,o),
(395,0,o),
(493,0,cs),
(590,0,o),
(698,-3,o),
(796,-8,c),
(815,-8,o),
(816,49,o),
(796,49,cs),
(609,49,o),
(578,89,o),
(578,262,cs),
(578,1188,ls),
(578,1219,o),
(579,1277,o),
(584,1340,c),
(584,1359,o),
(580,1374,o),
(571,1374,cs),
(564,1374,o),
(559,1372,o),
(555,1368,cs),
(450,1271,o),
(295,1184,o),
(173,1132,cs),
(155,1124,o),
(179,1078,o),
(192,1085,cs),
(250,1114,o),
(336,1151,o),
(379,1169,cs),
(411,1182,o),
(424,1180,o),
(424,1130,cs),
(424,260,ls),
(424,89,o),
(398,49,o),
(189,49,cs),
(169,49,o),
(170,-8,o),
(189,-8,c)
);
}
);
width = 956;
}
);
metricWidth = zero;
unicode = 49;
}
{
glyphname = four;
layers = (
{
layerId = master01;
shapes = (
{
closed = 1;
nodes = (
(471,-3,o),
(543,0,o),
(636,0,cs),
(729,0,o),
(801,-3,o),
(852,-8,c),
(861,-8,o),
(866,2,o),
(866,21,cs),
(866,40,o),
(861,49,o),
(852,49,cs),
(771,49,o),
(731,75,o),
(731,127,cs),
(731,371,ls),
(731,384,o),
(739,391,o),
(754,391,cs),
(870,391,ls),
(882,391,o),
(888,405,o),
(888,434,cs),
(888,463,o),
(882,477,o),
(870,477,cs),
(754,477,ls),
(739,477,o),
(731,484,o),
(731,498,cs),
(731,942,ls),
(731,952,o),
(706,957,o),
(655,957,cs),
(604,957,o),
(578,952,o),
(578,942,cs),
(578,498,ls),
(578,484,o),
(571,477,o),
(557,477,cs),
(168,477,ls),
(151,477,o),
(142,482,o),
(142,491,cs),
(142,496,o),
(145,503,o),
(150,510,cs),
(797,1407,l),
(797,1428,o),
(778,1438,o),
(739,1438,cs),
(719,1438,o),
(706,1434,o),
(700,1425,cs),
(476,1086,o),
(300,834,o),
(59,520,cs),
(36,490,o),
(13,452,o),
(13,428,cs),
(13,403,o),
(35,391,o),
(80,391,cs),
(557,391,ls),
(571,391,o),
(578,384,o),
(578,371,cs),
(578,127,ls),
(578,75,o),
(525,49,o),
(420,49,cs),
(411,49,o),
(406,40,o),
(406,21,cs),
(406,2,o),
(411,-8,o),
(420,-8,c)
);
}
);
width = 956;
},
{
layerId = "75918100-ED89-42A8-B0FE-888EB9C86810";
shapes = (
{
closed = 1;
nodes = (
(456,-3,o),
(543,0,o),
(662,0,cs),
(747,0,o),
(817,-3,o),
(870,-8,c),
(880,-8,o),
(885,5,o),
(885,30,cs),
(884,55,o),
(879,68,o),
(870,68,cs),
(802,68,o),
(768,97,o),
(768,156,cs),
(768,341,ls),
(768,361,o),
(778,371,o),
(798,371,cs),
(891,371,ls),
(900,371,o),
(905,393,o),
(905,438,cs),
(905,482,o),
(900,504,o),
(891,504,cs),
(798,504,ls),
(778,504,o),
(768,515,o),
(768,534,cs),
(768,932,ls),
(768,947,o),
(730,954,o),
(653,954,cs),
(578,954,o),
(541,947,o),
(541,932,cs),
(541,534,ls),
(541,515,o),
(531,504,o),
(511,504,cs),
(184,504,ls),
(172,504,o),
(166,510,o),
(166,522,cs),
(166,529,o),
(168,537,o),
(174,545,cs),
(802,1375,l),
(802,1413,o),
(776,1430,o),
(711,1430,cs),
(690,1430,o),
(674,1425,o),
(666,1413,cs),
(498,1139,o),
(282,831,o),
(45,551,cs),
(6,504,o),
(-6,461,o),
(-6,428,cs),
(-6,390,o),
(23,371,o),
(80,371,cs),
(511,371,ls),
(531,371,o),
(541,361,o),
(541,341,cs),
(541,156,ls),
(541,97,o),
(493,68,o),
(399,68,cs),
(390,68,o),
(385,55,o),
(385,30,cs),
(385,5,o),
(390,-8,o),
(399,-8,c)
);
}
);
width = 954;
},
{
layerId = "6ABD9449-5E80-4451-809E-12ADEB9E9AB4";
shapes = (
{
closed = 1;
nodes = (
(476,-3,o),
(543,0,o),
(627,0,cs),
(723,0,o),
(796,-3,o),
(846,-8,c),
(855,-8,o),
(860,1,o),
(860,18,cs),
(860,35,o),
(855,43,o),
(846,43,cs),
(761,43,o),
(719,68,o),
(719,117,cs),
(719,381,ls),
(719,392,o),
(726,398,o),
(739,398,cs),
(863,398,ls),
(876,398,o),
(882,409,o),
(882,433,cs),
(882,457,o),
(876,468,o),
(863,468,cs),
(739,468,ls),
(726,468,o),
(719,474,o),
(719,486,cs),
(719,945,ls),
(719,954,o),
(698,958,o),
(656,958,cs),
(613,958,o),
(590,954,o),
(590,945,cs),
(590,486,ls),
(590,474,o),
(584,468,o),
(572,468,cs),
(163,468,ls),
(144,468,o),
(134,473,o),
(134,481,cs),
(134,485,o),
(137,492,o),
(142,498,cs),
(795,1418,l),
(795,1433,o),
(779,1441,o),
(748,1441,cs),
(729,1441,o),
(717,1437,o),
(711,1429,cs),
(469,1068,o),
(306,835,o),
(64,510,cs),
(46,485,o),
(19,449,o),
(19,428,cs),
(19,407,o),
(39,398,o),
(80,398,cs),
(572,398,ls),
(584,398,o),
(590,392,o),
(590,381,cs),
(590,117,ls),
(590,68,o),
(536,43,o),
(427,43,cs),
(418,43,o),
(413,35,o),
(413,18,cs),
(413,1,o),
(418,-8,o),
(427,-8,c)
);
}
);
width = 957;
},
{
layerId = "70B83247-6FA0-4662-9656-C86DD2A17D3B";
shapes = (
{
closed = 1;
nodes = (
(378,-3,o),
(439,0,o),
(523,0,cs),
(594,0,o),
(651,-3,o),
(693,-8,c),
(700,-8,o),
(704,2,o),
(704,24,cs),
(704,44,o),
(700,55,o),
(693,55,cs),
(632,55,o),
(602,82,o),
(602,136,cs),
(602,362,ls),
(602,377,o),
(609,385,o),
(622,385,cs),
(708,385,ls),
(716,385,o),
(721,398,o),
(721,435,cs),
(721,472,o),
(716,485,o),
(708,485,cs),
(622,485,ls),
(609,485,o),
(602,493,o),
(602,509,cs),
(602,939,ls),
(602,950,o),
(579,956,o),
(529,956,cs),
(479,956,o),
(457,950,o),
(457,939,cs),
(457,509,ls),
(457,493,o),
(450,485,o),
(438,485,cs),
(144,485,ls),
(133,485,o),
(127,491,o),
(127,500,cs),
(127,504,o),
(128,513,o),
(133,521,cs),
(645,1397,l),
(645,1423,o),
(627,1436,o),
(588,1436,cs),
(571,1436,o),
(561,1431,o),
(556,1422,cs),
(393,1102,o),
(241,833,o),
(48,529,cs),
(26,494,o),
(10,455,o),
(10,428,cs),
(10,399,o),
(31,385,o),
(70,385,cs),
(438,385,ls),
(450,385,o),
(457,377,o),
(457,362,cs),
(457,136,ls),
(457,82,o),
(416,55,o),
(335,55,cs),
(328,55,o),
(324,43,o),
(324,24,cs),
(324,4,o),
(328,-8,o),
(335,-8,c)
);
}
);
width = 787;
},
{
layerId = "9E6FDE2E-55A6-44A9-9556-F1822294BF26";
shapes = (
{
closed = 1;
nodes = (
(564,-3,o),
(647,0,o),
(749,0,cs),
(864,0,o),
(951,-3,o),
(1011,-8,c),
(1022,-8,o),
(1028,2,o),
(1028,18,cs),
(1028,36,o),
(1022,43,o),
(1011,43,cs),
(910,43,o),
(860,68,o),
(860,118,cs),
(860,380,ls),
(860,391,o),
(869,397,o),
(886,397,cs),
(1032,397,ls),
(1048,397,o),
(1055,412,o),
(1055,433,cs),
(1055,454,o),
(1048,469,o),
(1032,469,cs),
(886,469,ls),
(869,469,o),
(860,475,o),
(860,487,cs),
(860,945,ls),
(860,954,o),
(833,958,o),
(781,958,cs),
(729,958,o),
(699,954,o),
(699,945,cs),
(699,487,ls),
(699,475,o),
(692,469,o),
(676,469,cs),
(192,469,ls),
(169,469,o),
(157,473,o),
(157,482,cs),
(157,488,o),
(162,493,o),
(167,499,cs),
(949,1417,l),
(949,1433,o),
(929,1440,o),
(890,1440,cs),
(867,1440,o),
(851,1437,o),
(844,1428,cs),
(559,1070,o),
(359,835,o),
(70,511,cs),
(46,486,o),
(16,449,o),
(16,428,cs),
(16,407,o),
(39,397,o),
(90,397,cs),
(676,397,ls),
(692,397,o),
(699,391,o),
(699,380,cs),
(699,118,ls),
(699,68,o),
(634,43,o),
(505,43,cs),
(494,43,o),
(488,37,o),
(488,18,cs),
(488,0,o),
(494,-8,o),
(505,-8,c)
);
}
);
width = 1125;
},
{
layerId = "00F4936D-6309-4DEC-83B3-42806ED1A477";
shapes = (
{
closed = 1;
nodes = (
(471,-3,o),
(543,0,o),
(636,0,cs),
(729,0,o),
(801,-3,o),
(852,-8,c),
(861,-8,o),
(866,2,o),
(866,21,cs),
(866,40,o),
(861,49,o),
(852,49,cs),
(771,49,o),
(731,75,o),
(731,127,cs),
(731,371,ls),
(731,384,o),
(739,391,o),
(754,391,cs),
(870,391,ls),
(882,391,o),
(888,405,o),
(888,434,cs),
(888,463,o),
(882,477,o),
(870,477,cs),
(754,477,ls),
(739,477,o),
(731,484,o),
(731,498,cs),
(731,942,ls),
(731,952,o),
(706,957,o),
(655,957,cs),
(604,957,o),
(578,952,o),
(578,942,cs),
(578,498,ls),
(578,484,o),
(571,477,o),
(557,477,cs),
(168,477,ls),
(151,477,o),
(142,482,o),
(142,491,cs),
(142,496,o),
(145,503,o),
(150,510,cs),
(797,1407,l),
(797,1428,o),
(778,1438,o),
(739,1438,cs),
(719,1438,o),
(706,1434,o),
(700,1425,cs),
(476,1086,o),
(300,834,o),
(59,520,cs),
(36,490,o),
(13,452,o),
(13,428,cs),
(13,403,o),
(35,391,o),
(80,391,cs),
(557,391,ls),
(571,391,o),
(578,384,o),
(578,371,cs),
(578,127,ls),
(578,75,o),
(525,49,o),
(420,49,cs),
(411,49,o),
(406,40,o),
(406,21,cs),
(406,2,o),
(411,-8,o),
(420,-8,c)
);
}
);
width = 956;
}
);
metricWidth = zero;
unicode = 52;
}
{
glyphname = five;
lastChange = "2021-05-20 21:51:10 +0000";
layers = (
{
layerId = master01;
shapes = (
{
closed = 1;
nodes = (
(622,-16,o),
(813,211,o),
(813,496,cs),
(813,740,o),
(659,895,o),
(383,895,cs),
(356,895,o),
(330,893,o),
(303,890,cs),
(293,889,o),
(289,898,o),
(291,913,cs),
(334,1147,ls),
(337,1165,o),
(348,1174,o),
(367,1174,cs),
(750,1174,ls),
(765,1174,o),
(791,1257,o),
(791,1300,cs),
(791,1311,o),
(789,1317,o),
(784,1317,cs),
(313,1317,ls),
(295,1317,o),
(284,1307,o),
(281,1288,cs),
(188,758,ls),
(185,743,o),
(186,723,o),
(200,723,cs),
(206,723,o),
(211,724,o),
(215,725,cs),
(268,736,o),
(311,743,o),
(344,743,cs),
(537,743,o),
(676,640,o),
(676,406,cs),
(676,253,o),
(576,68,o),
(418,68,cs),
(373,68,o),
(328,89,o),
(282,131,cs),
(237,173,o),
(200,193,o),
(174,193,cs),
(119,193,o),
(92,166,o),
(92,111,cs),
(92,26,o),
(196,-16,o),
(334,-16,cs)
);
}
);
width = 956;
},
{
layerId = "75918100-ED89-42A8-B0FE-888EB9C86810";
shapes = (
{
closed = 1;
nodes = (
(643,-16,o),
(850,220,o),
(850,504,cs),
(850,767,o),
(668,918,o),
(383,918,cs),
(362,917,o),
(338,915,o),
(311,911,cs),
(302,910,o),
(295,915,o),
(297,926,cs),
(325,1107,ls),
(328,1125,o),
(342,1130,o),
(365,1130,cs),
(780,1130,ls),
(805,1130,o),
(821,1279,o),
(821,1296,cs),
(821,1310,o),
(819,1317,o),
(815,1317,cs),
(313,1317,ls),
(274,1317,o),
(251,1299,o),
(244,1262,cs),
(147,711,ls),
(143,689,o),
(155,678,o),
(178,678,cs),
(187,678,o),
(196,679,o),
(207,682,cs),
(254,695,o),
(300,702,o),
(344,702,cs),
(526,702,o),
(659,592,o),
(659,397,cs),
(659,256,o),
(561,92,o),
(418,92,cs),
(371,92,o),
(323,121,o),
(274,178,cs),
(244,212,o),
(211,231,o),
(170,231,cs),
(106,231,o),
(55,201,o),
(55,129,cs),
(55,28,o),
(186,-16,o),
(334,-16,cs)
);
}
);
width = 954;
},
{
layerId = "6ABD9449-5E80-4451-809E-12ADEB9E9AB4";
shapes = (
{
closed = 1;
nodes = (
(615,-16,o),
(801,208,o),
(801,493,cs),
(801,731,o),
(656,887,o),
(383,887,cs),
(354,888,o),
(327,886,o),
(300,883,cs),
(290,882,o),
(287,892,o),
(289,909,cs),
(337,1160,ls),
(340,1178,o),
(350,1189,o),
(368,1189,cs),
(740,1189,ls),
(752,1189,o),
(781,1250,o),
(781,1301,cs),
(781,1311,o),
(779,1317,o),
(774,1317,cs),
(313,1317,ls),
(302,1317,o),
(295,1310,o),
(293,1297,cs),
(202,774,ls),
(199,761,o),
(196,738,o),
(207,738,cs),
(212,738,o),
(216,739,o),
(218,739,cs),
(273,750,o),
(315,757,o),
(344,757,cs),
(541,757,o),
(682,656,o),
(682,409,cs),
(682,252,o),
(581,60,o),
(418,60,cs),
(374,60,o),
(330,78,o),
(285,115,cs),
(235,160,o),
(196,180,o),
(175,180,cs),
(123,180,o),
(104,154,o),
(104,105,cs),
(104,25,o),
(199,-16,o),
(334,-16,cs)
);
}
);
width = 957;
},
{
layerId = "70B83247-6FA0-4662-9656-C86DD2A17D3B";
shapes = (
{
closed = 1;
nodes = (
(515,-16,o),
(672,214,o),
(672,498,cs),
(672,748,o),
(540,902,o),
(317,902,cs),
(295,902,o),
(283,900,o),
(255,896,cs),
(248,895,o),
(244,903,o),
(246,917,cs),
(276,1135,ls),
(279,1155,o),
(289,1161,o),
(304,1161,cs),
(620,1161,ls),
(635,1161,o),
(653,1264,o),
(653,1299,cs),
(653,1310,o),
(651,1317,o),
(647,1317,cs),
(261,1317,ls),
(239,1317,o),
(228,1302,o),
(225,1280,cs),
(149,744,ls),
(147,728,o),
(150,710,o),
(165,710,cs),
(169,710,o),
(175,710,o),
(181,712,cs),
(221,724,o),
(257,731,o),
(286,731,cs),
(438,731,o),
(547,625,o),
(547,403,cs),
(547,255,o),
(468,75,o),
(345,75,cs),
(309,75,o),
(273,97,o),
(234,146,cs),
(203,185,o),
(174,204,o),
(149,204,cs),
(102,204,o),
(74,176,o),
(74,116,cs),
(74,27,o),
(165,-16,o),
(278,-16,cs)
);
}
);
width = 787;
},
{
layerId = "9E6FDE2E-55A6-44A9-9556-F1822294BF26";
shapes = (
{
closed = 1;
nodes = (
(729,-16,o),
(954,208,o),
(954,494,cs),
(954,732,o),
(778,888,o),
(449,888,cs),
(417,888,o),
(377,886,o),
(351,884,cs),
(338,883,o),
(334,893,o),
(336,909,cs),
(392,1159,ls),
(395,1175,o),
(407,1187,o),
(430,1187,cs),
(880,1187,ls),
(895,1187,o),
(929,1250,o),
(929,1301,cs),
(929,1312,o),
(927,1317,o),
(921,1317,cs),
(365,1317,ls),
(351,1317,o),
(340,1312,o),
(337,1296,cs),
(227,772,ls),
(223,758,o),
(222,736,o),
(235,736,cs),
(243,736,o),
(247,738,o),
(249,738,cs),
(315,748,o),
(365,755,o),
(402,755,cs),
(636,755,o),
(805,655,o),
(805,409,cs),
(805,251,o),
(684,61,o),
(491,61,cs),
(437,61,o),
(383,81,o),
(330,116,cs),
(271,161,o),
(226,182,o),
(199,182,cs),
(136,182,o),
(110,156,o),
(110,106,cs),
(110,25,o),
(227,-16,o),
(390,-16,cs)
);
}
);
width = 1125;
},
{
layerId = "00F4936D-6309-4DEC-83B3-42806ED1A477";
shapes = (
{
closed = 1;
nodes = (
(622,-16,o),
(813,211,o),
(813,496,cs),
(813,740,o),
(659,895,o),
(383,895,cs),
(356,895,o),
(330,893,o),
(303,890,cs),
(293,889,o),
(289,898,o),
(291,913,cs),
(334,1147,ls),
(337,1165,o),
(348,1174,o),
(367,1174,cs),
(750,1174,ls),
(765,1174,o),
(791,1257,o),
(791,1300,cs),
(791,1311,o),
(789,1317,o),
(784,1317,cs),
(313,1317,ls),
(295,1317,o),
(284,1307,o),
(281,1288,cs),
(188,758,ls),
(185,743,o),
(186,723,o),
(200,723,cs),
(206,723,o),
(211,724,o),
(215,725,cs),
(268,736,o),
(311,743,o),
(344,743,cs),
(537,743,o),
(676,640,o),
(676,406,cs),
(676,253,o),
(576,68,o),
(418,68,cs),
(373,68,o),
(328,89,o),
(282,131,cs),
(237,173,o),
(200,193,o),
(174,193,cs),
(119,193,o),
(92,166,o),
(92,111,cs),
(92,26,o),
(196,-16,o),
(334,-16,cs)
);
}
);
width = 956;
}
);
metricWidth = zero;
unicode = 53;
}
{
glyphname = six;
lastChange = "2021-05-20 21:51:10 +0000";
layers = (
{
layerId = master01;
shapes = (
{
closed = 1;
nodes = (
(708,-16,o),
(864,167,o),
(864,391,cs),
(864,584,o),
(744,766,o),
(549,766,cs),
(472,766,o),
(382,720,o),
(281,629,c),
(297,729,o),
(325,820,o),
(363,902,cs),
(444,1076,o),
(583,1218,o),
(778,1329,cs),
(788,1335,o),
(789,1344,o),
(781,1360,cs),
(772,1376,o),
(763,1383,o),
(752,1378,cs),
(581,1302,o),
(429,1179,o),
(298,1008,cs),
(167,837,o),
(100,656,o),
(100,465,cs),
(100,207,o),
(222,-16,o),
(473,-16,cs)
);
},
{
closed = 1;
nodes = (
(340,63,o),
(264,215,o),
(264,461,cs),
(264,487,o),
(266,514,o),
(270,543,c),
(327,616,o),
(394,653,o),
(469,653,cs),
(621,653,o),
(709,504,o),
(709,330,cs),
(709,198,o),
(636,63,o),
(498,63,cs)
);
}
);
width = 956;
},
{
layerId = "75918100-ED89-42A8-B0FE-888EB9C86810";
shapes = (
{
closed = 1;
nodes = (
(720,-16,o),
(901,171,o),
(901,406,cs),
(901,611,o),
(760,797,o),
(549,797,cs),
(473,797,o),
(390,764,o),
(330,686,c),
(351,771,o),
(381,853,o),
(422,934,cs),
(509,1105,o),
(633,1234,o),
(793,1321,cs),
(802,1326,o),
(799,1345,o),
(793,1360,cs),
(780,1392,o),
(769,1387,o),
(762,1384,cs),
(552,1301,o),
(379,1166,o),
(242,977,cs),
(123,813,o),
(63,646,o),
(63,475,cs),
(63,219,o),
(189,-16,o),
(473,-16,cs)
);
},
{
closed = 1;
nodes = (
(367,88,o),
(301,216,o),
(301,473,cs),
(301,507,o),
(304,538,o),
(309,565,c),
(356,617,o),
(409,643,o),
(469,643,cs),
(602,643,o),
(682,479,o),
(682,348,cs),
(682,233,o),
(632,88,o),
(498,88,cs)
);
}
);
width = 954;
},
{
layerId = "6ABD9449-5E80-4451-809E-12ADEB9E9AB4";
shapes = (
{
closed = 1;
nodes = (
(704,-16,o),
(852,166,o),
(852,386,cs),
(852,575,o),
(739,756,o),
(549,756,cs),
(472,756,o),
(379,705,o),
(265,610,c),
(279,715,o),
(306,809,o),
(343,891,cs),
(422,1066,o),
(566,1213,o),
(773,1332,cs),
(783,1338,o),
(786,1344,o),
(777,1360,cs),
(769,1371,o),
(761,1382,o),
(749,1376,cs),
(591,1302,o),
(446,1183,o),
(317,1018,cs),
(182,845,o),
(112,659,o),
(112,462,cs),
(112,203,o),
(233,-16,o),
(473,-16,cs)
);
},
{
closed = 1;
nodes = (
(331,55,o),
(252,215,o),
(252,457,cs),
(252,480,o),
(253,506,o),
(257,536,c),
(317,616,o),
(389,656,o),
(469,656,cs),
(627,656,o),
(718,512,o),
(718,324,cs),
(718,186,o),
(637,55,o),
(498,55,cs)
);
}
);
width = 957;
},
{
layerId = "70B83247-6FA0-4662-9656-C86DD2A17D3B";
shapes = (
{
closed = 1;
nodes = (
(580,-16,o),
(713,168,o),
(713,396,cs),
(713,591,o),
(611,775,o),
(450,775,cs),
(387,775,o),
(317,730,o),
(251,646,c),
(265,741,o),
(289,834,o),
(319,912,cs),
(385,1084,o),
(492,1223,o),
(638,1327,cs),
(645,1332,o),
(645,1344,o),
(640,1359,cs),
(632,1381,o),
(623,1384,o),
(616,1380,cs),
(467,1301,o),
(338,1175,o),
(232,998,cs),
(133,833,o),
(80,654,o),
(80,468,cs),
(80,211,o),
(179,-16,o),
(389,-16,cs)
);
},
{
closed = 1;
nodes = (
(291,70,o),
(233,216,o),
(233,465,cs),
(233,496,o),
(236,526,o),
(239,550,c),
(282,616,o),
(330,650,o),
(386,650,cs),
(502,650,o),
(570,497,o),
(570,335,cs),
(570,209,o),
(519,70,o),
(409,70,cs)
);
}
);
width = 787;
},
{
layerId = "9E6FDE2E-55A6-44A9-9556-F1822294BF26";
shapes = (
{
closed = 1;
nodes = (
(836,-16,o),
(1015,166,o),
(1015,386,cs),
(1015,577,o),
(877,757,o),
(648,757,cs),
(557,757,o),
(447,710,o),
(311,612,c),
(329,717,o),
(361,806,o),
(407,892,cs),
(503,1068,o),
(674,1213,o),
(918,1331,cs),
(931,1338,o),
(933,1344,o),
(922,1361,cs),
(912,1371,o),
(903,1382,o),
(888,1376,cs),
(695,1303,o),
(520,1183,o),
(364,1018,cs),
(201,841,o),
(120,658,o),
(120,462,cs),
(120,203,o),
(265,-16,o),
(557,-16,cs)
);
},
{
closed = 1;
nodes = (
(389,56,o),
(295,214,o),
(295,457,cs),
(295,478,o),
(296,502,o),
(301,536,c),
(372,616,o),
(458,656,o),
(552,656,cs),
(740,656,o),
(848,511,o),
(848,325,cs),
(848,187,o),
(753,56,o),
(587,56,cs)
);
}
);
width = 1125;
},
{
layerId = "00F4936D-6309-4DEC-83B3-42806ED1A477";
shapes = (
{
closed = 1;
nodes = (
(708,-16,o),
(864,167,o),
(864,391,cs),
(864,584,o),
(744,766,o),
(549,766,cs),
(472,766,o),
(382,720,o),
(281,629,c),
(297,729,o),
(325,820,o),
(363,902,cs),
(444,1076,o),
(583,1218,o),
(778,1329,cs),
(788,1335,o),
(789,1344,o),
(781,1360,cs),
(772,1376,o),
(763,1383,o),
(752,1378,cs),
(581,1302,o),
(429,1179,o),
(298,1008,cs),
(167,837,o),
(100,656,o),
(100,465,cs),
(100,207,o),
(222,-16,o),
(473,-16,cs)
);
},
{
closed = 1;
nodes = (
(340,63,o),
(264,215,o),
(264,461,cs),
(264,487,o),
(266,514,o),
(270,543,c),
(327,616,o),
(394,653,o),
(469,653,cs),
(621,653,o),
(709,504,o),
(709,330,cs),
(709,198,o),
(636,63,o),
(498,63,cs)
);
}
);
width = 956;
}
);
metricWidth = zero;
unicode = 54;
}
{
glyphname = eight;
layers = (
{
layerId = master01;
shapes = (
{
closed = 1;
nodes = (
(680,-16,o),
(852,121,o),
(852,332,cs),
(852,469,o),
(762,596,o),
(582,711,c),
(733,790,o),
(809,899,o),
(809,1038,cs),
(809,1219,o),
(686,1333,o),
(477,1333,cs),
(286,1333,o),
(141,1191,o),
(141,1008,cs),
(141,856,o),
(235,760,o),
(377,668,c),
(195,572,o),
(104,454,o),
(104,315,cs),
(104,115,o),
(257,-16,o),
(477,-16,cs)
);
},
{
closed = 1;
nodes = (
(359,51,o),
(260,190,o),
(260,336,cs),
(260,461,o),
(318,558,o),
(434,625,c),
(581,522,o),
(709,430,o),
(709,260,cs),
(709,150,o),
(636,51,o),
(508,51,cs)
);
},
{
closed = 1;
nodes = (
(419,823,o),
(258,925,o),
(258,1075,cs),
(258,1174,o),
(330,1257,o),
(453,1257,cs),
(587,1257,o),
(670,1151,o),
(670,997,cs),
(670,902,o),
(623,821,o),
(528,754,c)
);
}
);
width = 956;
},
{
layerId = "75918100-ED89-42A8-B0FE-888EB9C86810";
shapes = (
{
closed = 1;
nodes = (
(695,-16,o),
(889,126,o),
(889,348,cs),
(889,493,o),
(804,616,o),
(635,717,c),
(776,798,o),
(846,898,o),
(846,1018,cs),
(846,1221,o),
(696,1333,o),
(477,1333,cs),
(266,1333,o),
(104,1190,o),
(104,989,cs),
(104,860,o),
(177,751,o),
(322,662,c),
(153,562,o),
(68,453,o),
(68,334,cs),
(68,112,o),
(256,-16,o),
(477,-16,cs)
);
},
{
closed = 1;
nodes = (
(378,76,o),
(297,205,o),
(297,352,cs),
(297,464,o),
(340,545,o),
(426,596,c),
(590,497,o),
(672,392,o),
(672,281,cs),
(672,187,o),
(620,76,o),
(508,76,cs)
);
},
{
closed = 1;
nodes = (
(371,872,o),
(295,963,o),
(295,1053,cs),
(295,1146,o),
(350,1233,o),
(453,1233,cs),
(571,1233,o),
(633,1126,o),
(633,979,cs),
(633,889,o),
(597,823,o),
(524,780,c)
);
}
);
width = 954;
},
{
layerId = "6ABD9449-5E80-4451-809E-12ADEB9E9AB4";
shapes = (
{
closed = 1;
nodes = (
(675,-16,o),
(840,119,o),
(840,327,cs),
(840,461,o),
(748,589,o),
(564,709,c),
(719,787,o),
(797,899,o),
(797,1045,cs),
(797,1218,o),
(683,1333,o),
(477,1333,cs),
(293,1333,o),
(153,1191,o),
(153,1014,cs),
(153,855,o),
(254,763,o),
(395,670,c),
(209,575,o),
(116,454,o),
(116,309,cs),
(116,116,o),
(257,-16,o),
(477,-16,cs)
);
},
{
closed = 1;
nodes = (
(353,43,o),
(248,185,o),
(248,331,cs),
(248,460,o),
(311,562,o),
(437,635,c),
(578,530,o),
(721,443,o),
(721,253,cs),
(721,138,o),
(641,43,o),
(508,43,cs)
);
},
{
closed = 1;
nodes = (
(435,807,o),
(246,912,o),
(246,1082,cs),
(246,1183,o),
(323,1265,o),
(453,1265,cs),
(592,1265,o),
(682,1159,o),
(682,1003,cs),
(682,906,o),
(632,820,o),
(529,745,c)
);
}
);
width = 957;
},
{
layerId = "70B83247-6FA0-4662-9656-C86DD2A17D3B";
shapes = (
{
closed = 1;
nodes = (
(559,-16,o),
(704,123,o),
(704,337,cs),
(704,477,o),
(633,602,o),
(493,713,c),
(609,792,o),
(669,898,o),
(669,1032,cs),
(669,1219,o),
(563,1333,o),
(393,1333,cs),
(234,1333,o),
(113,1191,o),
(113,1002,cs),
(113,860,o),
(179,759,o),
(296,666,c),
(154,569,o),
(83,454,o),
(83,321,cs),
(83,114,o),
(217,-16,o),
(393,-16,cs)
);
},
{
closed = 1;
nodes = (
(304,58,o),
(230,194,o),
(230,341,cs),
(230,461,o),
(271,554,o),
(355,616,c),
(481,513,o),
(567,416,o),
(567,266,cs),
(567,162,o),
(515,58,o),
(417,58,cs)
);
},
{
closed = 1;
nodes = (
(330,839,o),
(228,937,o),
(228,1068,cs),
(228,1165,o),
(281,1250,o),
(373,1250,cs),
(476,1250,o),
(536,1143,o),
(536,992,cs),
(536,897,o),
(501,822,o),
(432,762,c)
);
}
);
width = 787;
},
{
layerId = "9E6FDE2E-55A6-44A9-9556-F1822294BF26";
shapes = (
{
closed = 1;
nodes = (
(801,-16,o),
(1000,119,o),
(1000,327,cs),
(1000,461,o),
(891,590,o),
(671,709,c),
(857,788,o),
(949,900,o),
(949,1044,cs),
(949,1219,o),
(809,1333,o),
(561,1333,cs),
(338,1333,o),
(169,1191,o),
(169,1014,cs),
(169,852,o),
(291,761,o),
(458,670,c),
(236,575,o),
(125,454,o),
(125,309,cs),
(125,116,o),
(297,-16,o),
(561,-16,cs)
);
},
{
closed = 1;
nodes = (
(414,44,o),
(290,186,o),
(290,331,cs),
(290,461,o),
(365,562,o),
(513,634,c),
(681,531,o),
(851,444,o),
(851,254,cs),
(851,138,o),
(757,44,o),
(599,44,cs)
);
},
{
closed = 1;
nodes = (
(508,807,o),
(288,913,o),
(288,1082,cs),
(288,1183,o),
(379,1264,o),
(533,1264,cs),
(698,1264,o),
(804,1159,o),
(804,1002,cs),
(804,907,o),
(745,820,o),
(624,746,c)
);
}
);
width = 1125;
},
{
layerId = "00F4936D-6309-4DEC-83B3-42806ED1A477";
shapes = (
{
closed = 1;
nodes = (
(680,-16,o),
(852,121,o),
(852,332,cs),
(852,469,o),
(762,596,o),
(582,711,c),
(733,790,o),
(809,899,o),
(809,1038,cs),
(809,1219,o),
(686,1333,o),
(477,1333,cs),
(286,1333,o),
(141,1191,o),
(141,1008,cs),
(141,856,o),
(235,760,o),
(377,668,c),
(195,572,o),
(104,454,o),
(104,315,cs),
(104,115,o),
(257,-16,o),
(477,-16,cs)
);
},
{
closed = 1;
nodes = (
(359,51,o),
(260,190,o),
(260,336,cs),
(260,461,o),
(318,558,o),
(434,625,c),
(581,522,o),
(709,430,o),
(709,260,cs),
(709,150,o),
(636,51,o),
(508,51,cs)
);
},
{
closed = 1;
nodes = (
(419,823,o),
(258,925,o),
(258,1075,cs),
(258,1174,o),
(330,1257,o),
(453,1257,cs),
(587,1257,o),
(670,1151,o),
(670,997,cs),
(670,902,o),
(623,821,o),
(528,754,c)
);
}
);
width = 956;
}
);
metricWidth = zero;
unicode = 56;
}
{
glyphname = nine;
lastChange = "2021-05-20 21:51:10 +0000";
layers = (
{
layerId = master01;
shapes = (
{
closed = 1;
nodes = (
(370,45,o),
(505,149,o),
(618,278,cs),
(777,461,o),
(856,656,o),
(856,864,cs),
(856,1112,o),
(733,1333,o),
(483,1333,cs),
(247,1333,o),
(92,1159,o),
(92,907,cs),
(92,726,o),
(231,551,o),
(416,551,cs),
(503,551,o),
(589,596,o),
(674,686,c),
(641,516,o),
(583,382,o),
(498,285,cs),
(413,187,o),
(307,101,o),
(180,27,cs),
(170,21,o),
(172,6,o),
(184,-13,cs),
(195,-32,o),
(205,-39,o),
(213,-35,cs)
);
},
{
closed = 1;
nodes = (
(340,662,o),
(248,810,o),
(248,975,cs),
(248,1108,o),
(307,1251,o),
(453,1251,cs),
(614,1251,o),
(690,1097,o),
(690,862,cs),
(690,833,o),
(688,803,o),
(684,774,c),
(623,699,o),
(556,662,o),
(481,662,cs)
);
}
);
width = 956;
},
{
layerId = "75918100-ED89-42A8-B0FE-888EB9C86810";
shapes = (
{
closed = 1;
nodes = (
(392,42,o),
(540,151,o),
(657,283,cs),
(814,460,o),
(893,651,o),
(893,854,cs),
(893,1104,o),
(753,1333,o),
(483,1333,cs),
(228,1333,o),
(55,1153,o),
(55,893,cs),
(55,702,o),
(203,535,o),
(416,535,cs),
(480,535,o),
(572,574,o),
(625,627,c),
(584,489,o),
(534,380,o),
(477,301,cs),
(408,205,o),
(307,118,o),
(172,43,cs),
(160,36,o),
(165,15,o),
(176,-8,cs),
(190,-35,o),
(203,-47,o),
(215,-41,cs)
);
},
{
closed = 1;
nodes = (
(365,674,o),
(285,826,o),
(285,958,cs),
(285,1077,o),
(322,1227,o),
(453,1227,cs),
(586,1227,o),
(653,1102,o),
(653,852,cs),
(653,803,o),
(649,763,o),
(641,733,c),
(601,694,o),
(548,674,o),
(481,674,cs)
);
}
);
width = 954;
},
{
layerId = "6ABD9449-5E80-4451-809E-12ADEB9E9AB4";
shapes = (
{
closed = 1;
nodes = (
(363,46,o),
(493,148,o),
(605,276,cs),
(765,461,o),
(844,658,o),
(844,867,cs),
(844,1115,o),
(726,1333,o),
(483,1333,cs),
(253,1333,o),
(104,1161,o),
(104,912,cs),
(104,734,o),
(240,556,o),
(416,556,cs),
(511,556,o),
(595,603,o),
(690,706,c),
(660,525,o),
(599,383,o),
(505,280,cs),
(415,181,o),
(307,95,o),
(183,22,cs),
(173,16,o),
(174,3,o),
(187,-15,cs),
(197,-31,o),
(206,-36,o),
(212,-33,cs)
);
},
{
closed = 1;
nodes = (
(332,658,o),
(236,805,o),
(236,981,cs),
(236,1118,o),
(302,1259,o),
(453,1259,cs),
(623,1259,o),
(702,1095,o),
(702,865,cs),
(702,843,o),
(701,816,o),
(698,788,c),
(630,701,o),
(559,658,o),
(481,658,cs)
);
}
);
width = 957;
},
{
layerId = "70B83247-6FA0-4662-9656-C86DD2A17D3B";
shapes = (
{
closed = 1;
nodes = (
(314,44,o),
(426,151,o),
(517,280,cs),
(644,461,o),
(707,654,o),
(707,861,cs),
(707,1109,o),
(603,1333,o),
(397,1333,cs),
(203,1333,o),
(74,1156,o),
(74,903,cs),
(74,719,o),
(188,546,o),
(344,546,cs),
(406,546,o),
(477,589,o),
(535,668,c),
(507,508,o),
(462,381,o),
(403,290,cs),
(340,193,o),
(257,106,o),
(153,32,cs),
(144,25,o),
(147,9,o),
(156,-12,cs),
(166,-35,o),
(175,-41,o),
(183,-36,cs)
);
},
{
closed = 1;
nodes = (
(291,666,o),
(220,814,o),
(220,970,cs),
(220,1099,o),
(262,1244,o),
(373,1244,cs),
(494,1244,o),
(552,1097,o),
(552,859,cs),
(552,823,o),
(549,788,o),
(545,762,c),
(504,700,o),
(456,666,o),
(396,666,cs)
);
}
);
width = 787;
},
{
layerId = "9E6FDE2E-55A6-44A9-9556-F1822294BF26";
shapes = (
{
closed = 1;
nodes = (
(426,46,o),
(584,147,o),
(719,276,cs),
(910,461,o),
(1005,658,o),
(1005,867,cs),
(1005,1115,o),
(863,1333,o),
(569,1333,cs),
(291,1333,o),
(110,1162,o),
(110,911,cs),
(110,733,o),
(274,556,o),
(488,556,cs),
(600,556,o),
(701,603,o),
(813,704,c),
(775,524,o),
(704,383,o),
(593,280,cs),
(486,181,o),
(357,96,o),
(207,22,cs),
(196,17,o),
(197,3,o),
(212,-14,cs),
(224,-29,o),
(235,-37,o),
(243,-34,cs)
);
},
{
closed = 1;
nodes = (
(389,658,o),
(276,806,o),
(276,980,cs),
(276,1117,o),
(352,1258,o),
(533,1258,cs),
(734,1258,o),
(828,1097,o),
(828,865,cs),
(828,843,o),
(827,818,o),
(823,786,c),
(742,698,o),
(656,658,o),
(566,658,cs)
);
}
);
width = 1125;
},
{
layerId = "00F4936D-6309-4DEC-83B3-42806ED1A477";
shapes = (
{
closed = 1;
nodes = (
(370,45,o),
(505,149,o),
(618,278,cs),
(777,461,o),
(856,656,o),
(856,864,cs),
(856,1112,o),
(733,1333,o),
(483,1333,cs),
(247,1333,o),
(92,1159,o),
(92,907,cs),
(92,726,o),
(231,551,o),
(416,551,cs),
(503,551,o),
(589,596,o),
(674,686,c),
(641,516,o),
(583,382,o),
(498,285,cs),
(413,187,o),
(307,101,o),
(180,27,cs),
(170,21,o),
(172,6,o),
(184,-13,cs),
(195,-32,o),
(205,-39,o),
(213,-35,cs)
);
},
{
closed = 1;
nodes = (
(340,662,o),
(248,810,o),
(248,975,cs),
(248,1108,o),
(307,1251,o),
(453,1251,cs),
(614,1251,o),
(690,1097,o),
(690,862,cs),
(690,833,o),
(688,803,o),
(684,774,c),
(623,699,o),
(556,662,o),
(481,662,cs)
);
}
);
width = 956;
}
);
metricWidth = zero;
unicode = 57;
}
{
glyphname = semicolon;
kernLeft = colon;
lastChange = "2021-05-20 21:51:10 +0000";
layers = (
{
hints = (
{
horizontal = 1;
origin = (1,5);
type = TTSnap;
},
{
horizontal = 1;
origin = (1,23);
type = TTSnap;
},
{
horizontal = 1;
options = 4;
origin = (0,5);
target = (0,11);
type = TTStem;
}
);
layerId = master01;
shapes = (
{
closed = 1;
nodes = (
(375,617,o),
(425,666,o),
(425,735,cs),
(425,804,o),
(375,853,o),
(304,853,cs),
(233,853,o),
(183,804,o),
(183,735,cs),
(183,666,o),
(233,617,o),
(304,617,cs)
);
},
{
closed = 1;
nodes = (
(391,-242,o),
(480,-109,o),
(480,47,cs),
(480,155,o),
(406,236,o),
(308,236,cs),
(239,236,o),
(198,201,o),
(198,141,cs),
(198,90,o),
(221,53,o),
(267,32,cs),
(328,3,o),
(343,-14,o),
(343,-48,cs),
(343,-145,o),
(287,-236,o),
(180,-315,cs),
(170,-322,o),
(168,-327,o),
(181,-345,cs),
(191,-357,o),
(198,-361,o),
(209,-355,cs)
);
}
);
width = 594;
},
{
layerId = "75918100-ED89-42A8-B0FE-888EB9C86810";
shapes = (
{
closed = 1;
nodes = (
(397,549,o),
(462,612,o),
(462,702,cs),
(462,791,o),
(397,854,o),
(305,854,cs),
(213,854,o),
(148,791,o),
(148,702,cs),
(148,612,o),
(213,549,o),
(305,549,cs)
);
},
{
closed = 1;
nodes = (
(397,-287,o),
(525,-125,o),
(525,29,cs),
(525,158,o),
(440,261,o),
(332,261,cs),
(237,261,o),
(169,208,o),
(169,134,cs),
(169,67,o),
(209,6,o),
(266,-14,cs),
(304,-28,o),
(308,-39,o),
(308,-60,cs),
(308,-154,o),
(258,-256,o),
(174,-331,cs),
(164,-341,o),
(164,-346,o),
(174,-363,cs),
(183,-376,o),
(192,-380,o),
(205,-374,cs)
);
}
);
width = 591;
},
{
layerId = "6ABD9449-5E80-4451-809E-12ADEB9E9AB4";
shapes = (
{
closed = 1;
nodes = (
(368,638,o),
(413,683,o),
(413,745,cs),
(413,807,o),
(368,851,o),
(304,851,cs),
(240,851,o),
(195,807,o),
(195,745,cs),
(195,683,o),
(240,638,o),
(304,638,cs)
);
},
{
closed = 1;
nodes = (
(390,-228,o),
(469,-105,o),
(469,56,cs),
(469,158,o),
(397,236,o),
(300,236,cs),
(239,236,o),
(204,204,o),
(204,149,cs),
(204,100,o),
(222,71,o),
(266,49,cs),
(340,13,o),
(355,-4,o),
(355,-44,cs),
(355,-142,o),
(296,-230,o),
(178,-315,cs),
(168,-322,o),
(166,-325,o),
(180,-345,cs),
(190,-357,o),
(197,-361,o),
(207,-355,cs)
);
}
);
width = 595;
},
{
layerId = "70B83247-6FA0-4662-9656-C86DD2A17D3B";
shapes = (
{
closed = 1;
nodes = (
(319,617,o),
(369,666,o),
(369,735,cs),
(369,804,o),
(319,853,o),
(248,853,cs),
(177,853,o),
(127,804,o),
(127,735,cs),
(127,666,o),
(177,617,o),
(248,617,cs)
);
},
{
closed = 1;
nodes = (
(320,-251,o),
(398,-116,o),
(398,38,cs),
(398,148,o),
(335,236,o),
(258,236,cs),
(198,236,o),
(157,195,o),
(157,134,cs),
(157,80,o),
(179,39,o),
(219,15,cs),
(259,-9,o),
(268,-21,o),
(268,-52,cs),
(268,-147,o),
(226,-240,o),
(150,-315,cs),
(143,-321,o),
(143,-333,o),
(150,-346,cs),
(155,-357,o),
(164,-361,o),
(174,-355,cs)
);
}
);
width = 492;
},
{
layerId = "9E6FDE2E-55A6-44A9-9556-F1822294BF26";
shapes = (
{
closed = 1;
nodes = (
(433,617,o),
(483,666,o),
(483,735,cs),
(483,804,o),
(433,853,o),
(362,853,cs),
(291,853,o),
(241,804,o),
(241,735,cs),
(241,666,o),
(291,617,o),
(362,617,cs)
);
},
{
closed = 1;
nodes = (
(465,-236,o),
(560,-125,o),
(560,10,cs),
(560,141,o),
(474,228,o),
(346,228,cs),
(280,228,o),
(236,193,o),
(236,141,cs),
(236,93,o),
(258,63,o),
(312,40,cs),
(395,6,o),
(416,-16,o),
(416,-66,cs),
(416,-151,o),
(344,-239,o),
(207,-323,cs),
(196,-329,o),
(192,-333,o),
(209,-352,cs),
(223,-365,o),
(229,-369,o),
(241,-363,cs)
);
}
);
width = 696;
},
{
layerId = "00F4936D-6309-4DEC-83B3-42806ED1A477";
shapes = (
{
closed = 1;
nodes = (
(375,617,o),
(425,666,o),
(425,735,cs),
(425,804,o),
(375,853,o),
(304,853,cs),
(233,853,o),
(183,804,o),
(183,735,cs),
(183,666,o),
(233,617,o),
(304,617,cs)
);
},
{
closed = 1;
nodes = (
(391,-242,o),
(480,-109,o),
(480,47,cs),
(480,155,o),
(406,236,o),
(308,236,cs),
(239,236,o),
(198,201,o),
(198,141,cs),
(198,90,o),
(221,53,o),
(267,32,cs),
(328,3,o),
(343,-14,o),
(343,-48,cs),
(343,-145,o),
(287,-236,o),
(180,-315,cs),
(170,-322,o),
(168,-327,o),
(181,-345,cs),
(191,-357,o),
(198,-361,o),
(209,-355,cs)
);
}
);
width = 594;
}
);
unicode = 59;
}
{
glyphname = equal;
lastChange = "2021-05-20 21:51:10 +0000";
layers = (
{
layerId = master01;
shapes = (
{
closed = 1;
nodes = (
(907,596,l),
(907,696,l),
(119,696,l),
(119,596,l)
);
},
{
closed = 1;
nodes = (
(907,330,l),
(907,430,l),
(119,430,l),
(119,330,l)
);
}
);
width = 1024;
},
{
layerId = "75918100-ED89-42A8-B0FE-888EB9C86810";
shapes = (
{
closed = 1;
nodes = (
(897,575,l),
(897,717,l),
(68,717,l),
(68,575,l)
);
},
{
closed = 1;
nodes = (
(897,268,l),
(897,410,l),
(68,410,l),
(68,268,l)
);
}
);
width = 997;
},
{
layerId = "6ABD9449-5E80-4451-809E-12ADEB9E9AB4";
shapes = (
{
closed = 1;
nodes = (
(910,603,l),
(910,689,l),
(136,689,l),
(136,603,l)
);
},
{
closed = 1;
nodes = (
(910,351,l),
(910,437,l),
(136,437,l),
(136,351,l)
);
}
);
width = 1033;
},
{
layerId = "70B83247-6FA0-4662-9656-C86DD2A17D3B";
shapes = (
{
closed = 1;
nodes = (
(738,590,l),
(738,702,l),
(95,702,l),
(95,590,l)
);
},
{
closed = 1;
nodes = (
(738,311,l),
(738,424,l),
(95,424,l),
(95,311,l)
);
}
);
width = 831;
},
{
layerId = "9E6FDE2E-55A6-44A9-9556-F1822294BF26";
shapes = (
{
closed = 1;
nodes = (
(1076,602,l),
(1076,690,l),
(143,690,l),
(143,602,l)
);
},
{
closed = 1;
nodes = (
(1076,349,l),
(1076,436,l),
(143,436,l),
(143,349,l)
);
}
);
width = 1217;
},
{
layerId = "00F4936D-6309-4DEC-83B3-42806ED1A477";
shapes = (
{
closed = 1;
nodes = (
(907,596,l),
(907,696,l),
(119,696,l),
(119,596,l)
);
},
{
closed = 1;
nodes = (
(907,330,l),
(907,430,l),
(119,430,l),
(119,330,l)
);
}
);
width = 1024;
}
);
unicode = 61;
}
{
glyphname = greater;
lastChange = "2021-05-20 21:51:10 +0000";
layers = (
{
layerId = master01;
shapes = (
{
closed = 1;
nodes = (
(909,375,l),
(909,467,l),
(113,846,l),
(113,727,l),
(801,406,l),
(801,437,l),
(113,115,l),
(113,-2,l)
);
}
);
width = 1024;
},
{
layerId = "75918100-ED89-42A8-B0FE-888EB9C86810";
shapes = (
{
closed = 1;
nodes = (
(946,356,l),
(946,485,l),
(76,866,l),
(76,682,l),
(775,381,l),
(775,463,l),
(76,162,l),
(76,-23,l)
);
}
);
width = 1024;
},
{
layerId = "6ABD9449-5E80-4451-809E-12ADEB9E9AB4";
shapes = (
{
closed = 1;
nodes = (
(897,381,l),
(897,461,l),
(125,839,l),
(125,742,l),
(810,414,l),
(810,428,l),
(125,99,l),
(125,5,l)
);
}
);
width = 1024;
},
{
layerId = "70B83247-6FA0-4662-9656-C86DD2A17D3B";
shapes = (
{
closed = 1;
nodes = (
(749,369,l),
(749,472,l),
(90,852,l),
(90,714,l),
(644,399,l),
(644,445,l),
(90,129,l),
(90,-8,l)
);
}
);
width = 841;
},
{
layerId = "9E6FDE2E-55A6-44A9-9556-F1822294BF26";
shapes = (
{
closed = 1;
nodes = (
(1069,381,l),
(1069,462,l),
(136,840,l),
(136,740,l),
(958,413,l),
(958,429,l),
(136,101,l),
(136,4,l)
);
}
);
width = 1207;
},
{
layerId = "00F4936D-6309-4DEC-83B3-42806ED1A477";
shapes = (
{
closed = 1;
nodes = (
(909,375,l),
(909,467,l),
(113,846,l),
(113,727,l),
(801,406,l),
(801,437,l),
(113,115,l),
(113,-2,l)
);
}
);
width = 1024;
}
);
unicode = 62;
}
{
glyphname = question;
kernLeft = question;
lastChange = "2021-05-23 10:37:02 +0000";
layers = (
{
background = {
shapes = (
{
closed = 1;
nodes = (
(409,-25,o),
(459,24,o),
(459,93,cs),
(459,162,o),
(409,211,o),
(338,211,cs),
(267,211,o),
(217,162,o),
(217,93,cs),
(217,24,o),
(267,-25,o),
(338,-25,cs)
);
}
);
};
hints = (
{
horizontal = 1;
origin = (1,11);
stem = -1;
target = (1,5);
type = TTStem;
},
{
horizontal = 1;
options = 4;
origin = (0,18);
target = (0,40);
type = TTStem;
}
);
layerId = master01;
shapes = (
{
closed = 1;
nodes = (
(349,419,o),
(359,426,o),
(356,438,cs),
(344,484,o),
(336,525,o),
(336,560,cs),
(336,595,o),
(361,627,o),
(410,653,cs),
(575,741,ls),
(630,770,o),
(657,835,o),
(657,937,cs),
(657,1039,o),
(618,1135,o),
(541,1226,cs),
(464,1317,o),
(382,1362,o),
(295,1362,cs),
(239,1362,o),
(211,1334,o),
(211,1278,cs),
(211,1222,o),
(234,1194,o),
(279,1194,cs),
(474,1194,o),
(571,1128,o),
(571,995,cs),
(571,936,o),
(532,885,o),
(455,844,cs),
(350,788,ls),
(274,747,o),
(236,699,o),
(236,644,cs),
(236,589,o),
(265,519,o),
(311,426,cs),
(314,420,o),
(324,419,o),
(334,419,cs)
);
},
{
closed = 1;
nodes = (
(409,-25,o),
(459,24,o),
(459,93,cs),
(459,162,o),
(409,211,o),
(338,211,cs),
(267,211,o),
(217,162,o),
(217,93,cs),
(217,24,o),
(267,-25,o),
(338,-25,cs)
);
}
);
width = 752;
},
{
background = {
shapes = (
{
closed = 1;
nodes = (
(426,-26,o),
(491,37,o),
(491,127,cs),
(491,216,o),
(426,279,o),
(334,279,cs),
(242,279,o),
(177,216,o),
(177,127,cs),
(177,37,o),
(242,-26,o),
(334,-26,cs)
);
}
);
};
layerId = "75918100-ED89-42A8-B0FE-888EB9C86810";
shapes = (
{
closed = 1;
nodes = (
(352,416,o),
(376,423,o),
(371,440,cs),
(357,484,o),
(354,532,o),
(354,567,cs),
(354,581,o),
(377,601,o),
(426,625,cs),
(592,707,ls),
(660,741,o),
(694,817,o),
(694,936,cs),
(694,1061,o),
(626,1163,o),
(551,1238,cs),
(492,1297,o),
(403,1362,o),
(295,1362,cs),
(233,1362,o),
(174,1321,o),
(174,1260,cs),
(174,1193,o),
(227,1136,o),
(279,1133,cs),
(478,1122,o),
(563,1092,o),
(563,979,cs),
(563,946,o),
(521,908,o),
(438,866,cs),
(334,813,ls),
(273,782,o),
(217,738,o),
(217,649,cs),
(217,596,o),
(247,522,o),
(297,422,cs),
(299,418,o),
(306,416,o),
(317,416,cs)
);
},
{
closed = 1;
nodes = (
(426,-26,o),
(491,37,o),
(491,127,cs),
(491,216,o),
(426,279,o),
(334,279,cs),
(242,279,o),
(177,216,o),
(177,127,cs),
(177,37,o),
(242,-26,o),
(334,-26,cs)
);
}
);
width = 749;
},
{
background = {
shapes = (
{
closed = 1;
nodes = (
(404,-25,o),
(449,20,o),
(449,82,cs),
(449,144,o),
(404,188,o),
(340,188,cs),
(276,188,o),
(231,144,o),
(231,82,cs),
(231,20,o),
(276,-25,o),
(340,-25,cs)
);
}
);
};
layerId = "6ABD9449-5E80-4451-809E-12ADEB9E9AB4";
shapes = (
{
closed = 1;
nodes = (
(348,420,o),
(355,427,o),
(351,437,cs),
(334,480,o),
(330,522,o),
(330,557,cs),
(330,599,o),
(355,634,o),
(405,662,cs),
(569,752,ls),
(620,780,o),
(645,841,o),
(645,937,cs),
(645,1032,o),
(616,1126,o),
(538,1222,cs),
(455,1324,o),
(375,1362,o),
(295,1362,cs),
(241,1362,o),
(223,1338,o),
(223,1284,cs),
(223,1232,o),
(236,1214,o),
(279,1214,cs),
(472,1214,o),
(574,1140,o),
(574,1000,cs),
(574,932,o),
(536,877,o),
(461,837,cs),
(355,780,ls),
(273,736,o),
(242,686,o),
(242,642,cs),
(242,587,o),
(271,518,o),
(316,427,cs),
(319,421,o),
(330,420,o),
(340,420,cs)
);
},
{
closed = 1;
nodes = (
(404,-25,o),
(449,20,o),
(449,82,cs),
(449,144,o),
(404,188,o),
(340,188,cs),
(276,188,o),
(231,144,o),
(231,82,cs),
(231,20,o),
(276,-25,o),
(340,-25,cs)
);
}
);
width = 753;
},
{
background = {
shapes = (
{
closed = 1;
nodes = (
(351,-25,o),
(401,24,o),
(401,93,cs),
(401,162,o),
(351,211,o),
(280,211,cs),
(209,211,o),
(159,162,o),
(159,93,cs),
(159,24,o),
(209,-25,o),
(280,-25,cs)
);
}
);
};
layerId = "70B83247-6FA0-4662-9656-C86DD2A17D3B";
shapes = (
{
closed = 1;
nodes = (
(292,418,o),
(303,425,o),
(300,439,cs),
(291,481,o),
(285,531,o),
(285,562,cs),
(285,590,o),
(304,619,o),
(344,645,cs),
(476,731,ls),
(524,762,o),
(548,831,o),
(548,937,cs),
(548,1046,o),
(508,1142,o),
(446,1231,cs),
(390,1311,o),
(323,1362,o),
(247,1362,cs),
(201,1362,o),
(169,1330,o),
(169,1273,cs),
(169,1216,o),
(194,1177,o),
(233,1176,cs),
(391,1173,o),
(466,1117,o),
(466,990,cs),
(466,941,o),
(434,892,o),
(370,850,cs),
(287,795,ls),
(239,763,o),
(194,719,o),
(194,646,cs),
(194,590,o),
(218,520,o),
(256,424,cs),
(258,420,o),
(263,418,o),
(273,418,cs)
);
},
{
closed = 1;
nodes = (
(351,-25,o),
(401,24,o),
(401,93,cs),
(401,162,o),
(351,211,o),
(280,211,cs),
(209,211,o),
(159,162,o),
(159,93,cs),
(159,24,o),
(209,-25,o),
(280,-25,cs)
);
}
);
width = 624;
},
{
background = {
shapes = (
{
closed = 1;
nodes = (
(469,-25,o),
(519,24,o),
(519,93,cs),
(519,162,o),
(469,211,o),
(398,211,cs),
(327,211,o),
(277,162,o),
(277,93,cs),
(277,24,o),
(327,-25,o),
(398,-25,cs)
);
}
);
};
layerId = "9E6FDE2E-55A6-44A9-9556-F1822294BF26";
shapes = (
{
closed = 1;
nodes = (
(406,420,o),
(415,427,o),
(412,437,cs),
(397,487,o),
(387,519,o),
(387,558,cs),
(387,600,o),
(418,635,o),
(476,661,cs),
(674,751,ls),
(736,778,o),
(766,839,o),
(766,937,cs),
(766,1032,o),
(728,1128,o),
(636,1221,cs),
(538,1323,o),
(441,1362,o),
(343,1362,cs),
(277,1362,o),
(253,1338,o),
(253,1283,cs),
(253,1228,o),
(274,1211,o),
(325,1212,cs),
(557,1215,o),
(676,1139,o),
(676,1000,cs),
(676,931,o),
(630,878,o),
(540,838,cs),
(413,781,ls),
(309,731,o),
(278,679,o),
(278,642,cs),
(278,588,o),
(312,518,o),
(366,428,cs),
(370,420,o),
(385,420,o),
(395,420,cs)
);
},
{
closed = 1;
nodes = (
(469,-25,o),
(519,24,o),
(519,93,cs),
(519,162,o),
(469,211,o),
(398,211,cs),
(327,211,o),
(277,162,o),
(277,93,cs),
(277,24,o),
(327,-25,o),
(398,-25,cs)
);
}
);
width = 880;
},
{
background = {
shapes = (
{
closed = 1;
nodes = (
(409,-25,o),
(459,24,o),
(459,93,cs),
(459,162,o),
(409,211,o),
(338,211,cs),
(267,211,o),
(217,162,o),
(217,93,cs),
(217,24,o),
(267,-25,o),
(338,-25,cs)
);
}
);
};
layerId = "00F4936D-6309-4DEC-83B3-42806ED1A477";
shapes = (
{
closed = 1;
nodes = (
(349,419,o),
(359,426,o),
(356,438,cs),
(344,484,o),
(336,525,o),
(336,560,cs),
(336,595,o),
(361,627,o),
(410,653,cs),
(575,741,ls),
(630,770,o),
(657,835,o),
(657,937,cs),
(657,1039,o),
(618,1135,o),
(541,1226,cs),
(464,1317,o),
(382,1362,o),
(295,1362,cs),
(239,1362,o),
(211,1334,o),
(211,1278,cs),
(211,1222,o),
(234,1194,o),
(279,1194,cs),
(474,1194,o),
(571,1128,o),
(571,995,cs),
(571,936,o),
(532,885,o),
(455,844,cs),
(350,788,ls),
(274,747,o),
(236,699,o),
(236,644,cs),
(236,589,o),
(265,519,o),
(311,426,cs),
(314,420,o),
(324,419,o),
(334,419,cs)
);
},
{
closed = 1;
nodes = (
(409,-25,o),
(459,24,o),
(459,93,cs),
(459,162,o),
(409,211,o),
(338,211,cs),
(267,211,o),
(217,162,o),
(217,93,cs),
(217,24,o),
(267,-25,o),
(338,-25,cs)
);
}
);
width = 752;
}
);
unicode = 63;
}
{
glyphname = at;
layers = (
{
layerId = master01;
shapes = (
{
closed = 1;
nodes = (
(943,-33,o),
(1073,4,o),
(1186,72,cs),
(1191,75,o),
(1191,82,o),
(1185,95,cs),
(1179,108,o),
(1174,113,o),
(1169,111,cs),
(1053,65,o),
(948,39,o),
(852,39,cs),
(471,39,o),
(241,266,o),
(241,602,cs),
(241,1003,o),
(492,1315,o),
(911,1315,cs),
(1202,1315,o),
(1425,1125,o),
(1425,844,cs),
(1425,597,o),
(1250,426,o),
(1009,426,cs),
(958,426,o),
(962,479,o),
(977,532,cs),
(1118,1024,ls),
(1121,1035,o),
(1104,1042,o),
(1076,1042,cs),
(1048,1042,o),
(1032,1036,o),
(1028,1024,cs),
(1012,973,l),
(979,1000,o),
(946,1014,o),
(911,1014,cs),
(704,1014,o),
(506,691,o),
(506,487,cs),
(506,402,o),
(537,360,o),
(598,360,cs),
(679,360,o),
(780,440,o),
(901,600,c),
(909,596,l),
(884,547,o),
(860,445,o),
(860,422,cs),
(860,371,o),
(895,358,o),
(983,358,cs),
(1289,358,o),
(1513,566,o),
(1513,852,cs),
(1513,1169,o),
(1260,1384,o),
(909,1384,cs),
(465,1384,o),
(100,1060,o),
(100,600,cs),
(100,200,o),
(404,-33,o),
(790,-33,cs)
);
},
{
closed = 1;
nodes = (
(631,442,o),
(616,465,o),
(616,512,cs),
(616,656,o),
(743,965,o),
(891,965,cs),
(956,965,o),
(989,944,o),
(989,901,c),
(967,824,ls),
(934,707,o),
(895,649,o),
(830,574,cs),
(753,486,o),
(696,442,o),
(661,442,cs)
);
}
);
width = 1613;
},
{
layerId = "75918100-ED89-42A8-B0FE-888EB9C86810";
shapes = (
{
closed = 1;
nodes = (
(937,-33,o),
(1076,2,o),
(1192,76,cs),
(1203,83,o),
(1203,94,o),
(1196,109,cs),
(1188,126,o),
(1178,133,o),
(1165,127,cs),
(1056,77,o),
(947,55,o),
(842,55,cs),
(462,55,o),
(252,295,o),
(252,604,cs),
(252,992,o),
(515,1298,o),
(881,1298,cs),
(1179,1298,o),
(1395,1108,o),
(1395,840,cs),
(1395,609,o),
(1227,430,o),
(999,430,cs),
(967,430,o),
(971,484,o),
(985,532,cs),
(1126,1010,ls),
(1131,1027,o),
(1116,1039,o),
(1083,1049,cs),
(1042,1061,o),
(1019,1056,o),
(1010,1034,cs),
(989,983,l),
(968,1004,o),
(938,1014,o),
(897,1014,cs),
(671,1014,o),
(475,693,o),
(475,494,cs),
(475,403,o),
(513,358,o),
(588,358,cs),
(653,358,o),
(737,413,o),
(838,524,c),
(848,518,l),
(835,481,o),
(829,454,o),
(829,436,cs),
(829,372,o),
(883,352,o),
(973,352,cs),
(1297,352,o),
(1524,574,o),
(1524,848,cs),
(1524,1175,o),
(1252,1384,o),
(899,1384,cs),
(412,1384,o),
(70,1042,o),
(70,602,cs),
(70,184,o),
(412,-33,o),
(780,-33,cs)
);
},
{
closed = 1;
nodes = (
(637,449,o),
(627,471,o),
(627,518,cs),
(627,660,o),
(758,967,o),
(881,967,cs),
(924,967,o),
(952,951,o),
(965,920,c),
(922,772,ls),
(899,692,o),
(864,628,o),
(823,580,cs),
(748,493,o),
(692,449,o),
(657,449,cs)
);
}
);
width = 1594;
},
{
layerId = "6ABD9449-5E80-4451-809E-12ADEB9E9AB4";
shapes = (
{
closed = 1;
nodes = (
(945,-33,o),
(1072,5,o),
(1184,71,cs),
(1187,72,o),
(1187,78,o),
(1181,90,cs),
(1176,102,o),
(1172,106,o),
(1170,106,cs),
(1052,61,o),
(948,34,o),
(855,34,cs),
(474,34,o),
(237,256,o),
(237,601,cs),
(237,1007,o),
(484,1321,o),
(921,1321,cs),
(1209,1321,o),
(1435,1131,o),
(1435,845,cs),
(1435,593,o),
(1257,425,o),
(1012,425,cs),
(955,425,o),
(958,476,o),
(974,532,cs),
(1113,1020,ls),
(1118,1038,o),
(1100,1042,o),
(1077,1042,cs),
(1050,1042,o),
(1037,1033,o),
(1034,1021,cs),
(1019,970,l),
(982,999,o),
(948,1014,o),
(915,1014,cs),
(715,1014,o),
(516,690,o),
(516,485,cs),
(516,402,o),
(545,361,o),
(601,361,cs),
(687,361,o),
(794,449,o),
(922,625,c),
(929,622,l),
(900,569,o),
(870,442,o),
(870,417,cs),
(870,371,o),
(899,360,o),
(986,360,cs),
(1286,360,o),
(1509,563,o),
(1509,853,cs),
(1509,1167,o),
(1262,1384,o),
(912,1384,cs),
(482,1384,o),
(110,1066,o),
(110,599,cs),
(110,205,o),
(401,-33,o),
(793,-33,cs)
);
},
{
closed = 1;
nodes = (
(629,440,o),
(612,463,o),
(612,510,cs),
(612,655,o),
(738,964,o),
(894,964,cs),
(966,964,o),
(993,942,o),
(997,895,c),
(982,841,ls),
(945,712,o),
(906,655,o),
(832,572,cs),
(754,484,o),
(697,440,o),
(662,440,cs)
);
}
);
width = 1619;
},
{
layerId = "70B83247-6FA0-4662-9656-C86DD2A17D3B";
shapes = (
{
closed = 1;
nodes = (
(758,-33,o),
(868,3,o),
(957,71,cs),
(966,77,o),
(966,84,o),
(960,100,cs),
(955,113,o),
(949,119,o),
(943,116,cs),
(852,69,o),
(769,44,o),
(688,44,cs),
(383,44,o),
(205,276,o),
(205,603,cs),
(205,999,o),
(410,1310,o),
(729,1310,cs),
(964,1310,o),
(1140,1120,o),
(1140,843,cs),
(1140,601,o),
(1002,427,o),
(813,427,cs),
(778,427,o),
(781,481,o),
(793,532,cs),
(906,1021,ls),
(909,1033,o),
(895,1041,o),
(871,1044,cs),
(847,1047,o),
(830,1042,o),
(826,1027,cs),
(812,976,l),
(789,1001,o),
(763,1014,o),
(734,1014,cs),
(562,1014,o),
(405,691,o),
(405,489,cs),
(405,402,o),
(432,359,o),
(484,359,cs),
(545,359,o),
(620,432,o),
(711,577,c),
(718,573,l),
(701,527,o),
(688,445,o),
(688,426,cs),
(688,371,o),
(722,356,o),
(792,356,cs),
(1042,356,o),
(1222,568,o),
(1222,851,cs),
(1222,1171,o),
(1014,1384,o),
(733,1384,cs),
(365,1384,o),
(80,1054,o),
(80,601,cs),
(80,195,o),
(335,-33,o),
(638,-33,cs)
);
},
{
closed = 1;
nodes = (
(516,444,o),
(505,467,o),
(505,514,cs),
(505,658,o),
(608,966,o),
(719,966,cs),
(764,966,o),
(790,946,o),
(793,907,c),
(770,808,ls),
(748,714,o),
(722,651,o),
(670,575,cs),
(610,488,o),
(565,444,o),
(537,444,cs)
);
}
);
width = 1302;
},
{
layerId = "9E6FDE2E-55A6-44A9-9556-F1822294BF26";
shapes = (
{
closed = 1;
nodes = (
(1128,-33,o),
(1278,5,o),
(1415,73,cs),
(1416,73,o),
(1416,80,o),
(1410,90,cs),
(1403,103,o),
(1399,107,o),
(1395,106,cs),
(1254,61,o),
(1127,34,o),
(1016,34,cs),
(559,34,o),
(277,256,o),
(277,601,cs),
(277,1007,o),
(574,1320,o),
(1093,1320,cs),
(1440,1320,o),
(1710,1130,o),
(1710,845,cs),
(1710,593,o),
(1498,425,o),
(1205,425,cs),
(1138,425,o),
(1143,477,o),
(1161,532,cs),
(1330,1027,ls),
(1333,1037,o),
(1313,1043,o),
(1281,1040,cs),
(1249,1037,o),
(1234,1030,o),
(1230,1021,cs),
(1212,970,l),
(1169,999,o),
(1129,1014,o),
(1088,1014,cs),
(846,1014,o),
(607,691,o),
(607,485,cs),
(607,402,o),
(642,361,o),
(712,361,cs),
(813,361,o),
(940,448,o),
(1091,623,c),
(1100,619,l),
(1067,567,o),
(1032,445,o),
(1032,418,cs),
(1032,371,o),
(1068,360,o),
(1174,360,cs),
(1536,360,o),
(1804,564,o),
(1804,853,cs),
(1804,1167,o),
(1506,1384,o),
(1085,1384,cs),
(565,1384,o),
(120,1066,o),
(120,599,cs),
(120,205,o),
(473,-33,o),
(942,-33,cs)
);
},
{
closed = 1;
nodes = (
(746,440,o),
(727,463,o),
(727,510,cs),
(727,654,o),
(878,964,o),
(1063,964,cs),
(1148,964,o),
(1188,942,o),
(1185,895,c),
(1164,840,ls),
(1120,700,o),
(1068,647,o),
(990,573,cs),
(896,484,o),
(827,440,o),
(785,440,cs)
);
}
);
width = 1924;
},
{
layerId = "00F4936D-6309-4DEC-83B3-42806ED1A477";
shapes = (
{
closed = 1;
nodes = (
(943,-33,o),
(1073,4,o),
(1186,72,cs),
(1191,75,o),
(1191,82,o),
(1185,95,cs),
(1179,108,o),
(1174,113,o),
(1169,111,cs),
(1053,65,o),
(948,39,o),
(852,39,cs),
(471,39,o),
(241,266,o),
(241,602,cs),
(241,1003,o),
(492,1315,o),
(911,1315,cs),
(1202,1315,o),
(1425,1125,o),
(1425,844,cs),
(1425,597,o),
(1250,426,o),
(1009,426,cs),
(958,426,o),
(962,479,o),
(977,532,cs),
(1118,1024,ls),
(1121,1035,o),
(1104,1042,o),
(1076,1042,cs),
(1048,1042,o),
(1032,1036,o),
(1028,1024,cs),
(1012,973,l),
(979,1000,o),
(946,1014,o),
(911,1014,cs),
(704,1014,o),
(506,691,o),
(506,487,cs),
(506,402,o),
(537,360,o),
(598,360,cs),
(679,360,o),
(780,440,o),
(901,600,c),
(909,596,l),
(884,547,o),
(860,445,o),
(860,422,cs),
(860,371,o),
(895,358,o),
(983,358,cs),
(1289,358,o),
(1513,566,o),
(1513,852,cs),
(1513,1169,o),
(1260,1384,o),
(909,1384,cs),
(465,1384,o),
(100,1060,o),
(100,600,cs),
(100,200,o),
(404,-33,o),
(790,-33,cs)
);
},
{
closed = 1;
nodes = (
(631,442,o),
(616,465,o),
(616,512,cs),
(616,656,o),
(743,965,o),
(891,965,cs),
(956,965,o),
(989,944,o),
(989,901,c),
(967,824,ls),
(934,707,o),
(895,649,o),
(830,574,cs),
(753,486,o),
(696,442,o),
(661,442,cs)
);
}
);
width = 1613;
}
);
unicode = 64;
}
{
glyphname = F;
kernLeft = B;
kernRight = F;
lastChange = "2021-05-20 21:51:09 +0000";
layers = (
{
anchors = (
{
name = bottom;
pos = (583,0);
},
{
name = top;
pos = (583,1358);
},
{
name = zzcurly;
pos = (544,1341);
}
);
hints = (
{
horizontal = 1;
options = 4;
origin = (0,2);
target = (0,65);
type = TTStem;
},
{
horizontal = 1;
options = 4;
origin = (0,65);
target = (0,8);
type = TTShift;
},
{
horizontal = 1;
options = 4;
origin = (0,52);
target = (0,58);
type = TTStem;
},
{
horizontal = 1;
options = 4;
origin = (0,52);
target = (0,38);
type = TTStem;
},
{
horizontal = 1;
origin = (0,2);
other1 = (0,12);
target = (0,52);
type = TTInterpolate;
},
{
horizontal = 1;
options = 4;
origin = (0,12);
target = (0,34);
type = TTStem;
},
{
horizontal = 1;
options = 4;
origin = (0,34);
target = (0,29);
type = TTShift;
},
{
horizontal = 1;
options = 4;
origin = (0,12);
target = (0,17);
type = TTShift;
}
);
layerId = master01;
shapes = (
{
closed = 1;
nodes = (
(177,-2,o),
(265,0,o),
(353,0,cs),
(441,0,o),
(529,-2,o),
(617,-7,c),
(636,-7,o),
(635,69,o),
(617,69,cs),
(492,69,o),
(429,88,o),
(429,186,cs),
(429,643,l),
(621,643,ls),
(708,643,o),
(738,610,o),
(738,515,cs),
(738,398,ls),
(738,379,o),
(808,380,o),
(808,398,c),
(801,493,o),
(800,587,o),
(800,682,cs),
(800,777,o),
(801,871,o),
(808,966,c),
(808,985,o),
(738,984,o),
(738,966,cs),
(738,849,ls),
(738,752,o),
(717,719,o),
(621,719,cs),
(429,719,l),
(429,1240,ls),
(429,1274,o),
(443,1288,o),
(470,1288,cs),
(771,1278,ls),
(944,1272,o),
(1030,1186,o),
(1030,1016,cs),
(1030,991,o),
(1106,992,o),
(1106,1016,cs),
(1106,1340,ls),
(1106,1359,o),
(1091,1364,o),
(1033,1364,cs),
(943,1364,o),
(439,1358,o),
(349,1358,cs),
(260,1358,o),
(171,1359,o),
(82,1364,c),
(62,1364,o),
(63,1288,o),
(82,1288,cs),
(207,1288,o),
(269,1269,o),
(269,1178,cs),
(269,186,ls),
(269,88,o),
(209,69,o),
(89,69,cs),
(70,69,o),
(71,-7,o),
(89,-7,c)
);
}
);
width = 1146;
},
{
anchors = (
{
name = bottom;
pos = (595,0);
},
{
name = top;
pos = (595,1358);
},
{
name = zzcurly;
pos = (524,1341);
}
);
layerId = "75918100-ED89-42A8-B0FE-888EB9C86810";
shapes = (
{
closed = 1;
nodes = (
(169,-2,o),
(262,0,o),
(356,0,cs),
(449,0,o),
(542,-2,o),
(635,-6,c),
(654,-7,o),
(653,86,o),
(635,86,cs),
(532,86,o),
(481,105,o),
(481,203,cs),
(481,636,l),
(645,636,ls),
(706,636,o),
(737,605,o),
(737,546,cs),
(737,402,ls),
(737,383,o),
(842,384,o),
(842,402,c),
(837,494,o),
(836,586,o),
(836,679,cs),
(836,771,o),
(837,863,o),
(842,955,c),
(842,976,o),
(737,975,o),
(737,955,cs),
(737,818,ls),
(737,758,o),
(706,728,o),
(645,728,cs),
(481,728,l),
(481,1224,ls),
(481,1258,o),
(490,1272,o),
(522,1272,cs),
(805,1261,ls),
(923,1256,o),
(1028,1147,o),
(1028,1007,cs),
(1028,983,o),
(1128,984,o),
(1128,1007,cs),
(1128,1330,ls),
(1128,1357,o),
(1116,1364,o),
(1069,1364,cs),
(833,1364,o),
(596,1358,o),
(360,1358,cs),
(262,1358,o),
(164,1359,o),
(66,1364,c),
(46,1364,o),
(47,1272,o),
(66,1272,cs),
(181,1272,o),
(238,1253,o),
(238,1161,cs),
(238,203,ls),
(238,105,o),
(184,86,o),
(76,86,cs),
(55,86,o),
(56,-6,o),
(76,-6,c)
);
}
);
width = 1159;
},
{
anchors = (
{
name = bottom;
pos = (580,0);
},
{
name = top;
pos = (580,1358);
},
{
name = zzcurly;
pos = (534,1341);
}
);
layerId = "6ABD9449-5E80-4451-809E-12ADEB9E9AB4";
shapes = (
{
closed = 1;
nodes = (
(180,-2,o),
(267,0,o),
(353,0,cs),
(439,0,o),
(526,-2,o),
(612,-7,c),
(631,-7,o),
(630,63,o),
(612,63,cs),
(479,63,o),
(412,82,o),
(412,180,cs),
(412,645,l),
(614,645,ls),
(709,645,o),
(739,612,o),
(739,505,cs),
(739,397,ls),
(739,378,o),
(797,379,o),
(797,397,c),
(790,493,o),
(789,588,o),
(789,684,cs),
(789,779,o),
(790,875,o),
(797,970,c),
(797,988,o),
(739,987,o),
(739,970,cs),
(739,859,ls),
(739,750,o),
(721,716,o),
(614,716,cs),
(412,716,l),
(412,1244,ls),
(412,1279,o),
(428,1292,o),
(453,1292,cs),
(760,1283,ls),
(952,1277,o),
(1031,1198,o),
(1031,1018,cs),
(1031,993,o),
(1099,994,o),
(1099,1018,cs),
(1099,1340,ls),
(1099,1357,o),
(1084,1362,o),
(1022,1363,cs),
(797,1365,o),
(571,1358,o),
(346,1358,cs),
(260,1358,o),
(174,1359,o),
(88,1363,c),
(68,1363,o),
(69,1292,o),
(88,1292,cs),
(216,1292,o),
(280,1273,o),
(280,1183,cs),
(280,180,ls),
(280,82,o),
(218,63,o),
(94,63,cs),
(76,63,o),
(77,-7,o),
(94,-7,c)
);
}
);
width = 1143;
},
{
anchors = (
{
name = bottom;
pos = (488,0);
},
{
name = top;
pos = (488,1358);
},
{
name = zzcurly;
pos = (404,1341);
}
);
layerId = "70B83247-6FA0-4662-9656-C86DD2A17D3B";
shapes = (
{
closed = 1;
nodes = (
(158,-2,o),
(230,0,o),
(302,0,cs),
(373,0,o),
(445,-2,o),
(517,-7,c),
(532,-7,o),
(532,69,o),
(517,69,cs),
(425,69,o),
(377,88,o),
(377,186,cs),
(377,643,l),
(522,643,ls),
(590,643,o),
(609,602,o),
(609,526,cs),
(609,398,ls),
(609,379,o),
(675,381,o),
(675,398,c),
(671,492,o),
(670,586,o),
(670,680,cs),
(670,774,o),
(671,868,o),
(675,962,c),
(675,981,o),
(609,980,o),
(609,962,cs),
(609,837,ls),
(609,740,o),
(580,719,o),
(522,719,cs),
(377,719,l),
(377,1238,ls),
(377,1270,o),
(387,1287,o),
(418,1286,cs),
(645,1281,ls),
(766,1276,o),
(842,1178,o),
(842,1012,cs),
(842,988,o),
(909,989,o),
(909,1012,cs),
(909,1340,ls),
(909,1358,o),
(898,1363,o),
(856,1363,cs),
(671,1363,o),
(486,1358,o),
(301,1358,cs),
(227,1358,o),
(153,1360,o),
(79,1363,c),
(63,1363,o),
(64,1287,o),
(79,1287,cs),
(176,1287,o),
(225,1268,o),
(225,1177,cs),
(225,186,ls),
(225,88,o),
(178,69,o),
(86,69,cs),
(70,69,o),
(71,-7,o),
(86,-7,c)
);
}
);
width = 949;
},
{
anchors = (
{
name = bottom;
pos = (679,0);
},
{
name = top;
pos = (679,1358);
},
{
name = zzcurly;
pos = (685,1341);
}
);
layerId = "9E6FDE2E-55A6-44A9-9556-F1822294BF26";
shapes = (
{
closed = 1;
nodes = (
(197,-2,o),
(301,0,o),
(405,0,cs),
(510,0,o),
(614,-2,o),
(718,-7,c),
(741,-7,o),
(739,69,o),
(718,69,cs),
(560,69,o),
(482,88,o),
(482,186,cs),
(482,643,l),
(721,643,ls),
(827,643,o),
(868,618,o),
(868,504,cs),
(868,398,ls),
(868,379,o),
(942,379,o),
(942,398,c),
(932,494,o),
(931,588,o),
(931,684,cs),
(931,780,o),
(932,874,o),
(942,970,c),
(942,989,o),
(868,988,o),
(868,970,cs),
(868,861,ls),
(868,764,o),
(855,719,o),
(721,719,cs),
(482,719,l),
(482,1242,ls),
(482,1278,o),
(500,1291,o),
(523,1290,cs),
(898,1280,ls),
(1123,1274,o),
(1219,1197,o),
(1219,1020,cs),
(1219,994,o),
(1304,995,o),
(1304,1020,cs),
(1304,1340,ls),
(1304,1360,o),
(1285,1365,o),
(1211,1365,cs),
(940,1365,o),
(669,1358,o),
(398,1358,cs),
(294,1358,o),
(190,1358,o),
(86,1365,c),
(62,1365,o),
(63,1289,o),
(86,1289,cs),
(239,1289,o),
(314,1270,o),
(314,1179,cs),
(314,186,ls),
(314,88,o),
(241,69,o),
(93,69,cs),
(71,69,o),
(72,-7,o),
(93,-7,c)
);
}
);
width = 1344;
},
{
anchors = (
{
name = bottom;
pos = (583,0);
},
{
name = top;
pos = (583,1358);
},
{
name = zzcurly;
pos = (544,1341);
}
);
layerId = "00F4936D-6309-4DEC-83B3-42806ED1A477";
shapes = (
{
closed = 1;
nodes = (
(177,-2,o),
(265,0,o),
(353,0,cs),
(441,0,o),
(529,-2,o),
(617,-7,c),
(636,-7,o),
(635,69,o),
(617,69,cs),
(492,69,o),
(429,88,o),
(429,186,cs),
(429,643,l),
(621,643,ls),
(708,643,o),
(738,610,o),
(738,515,cs),
(738,398,ls),
(738,379,o),
(808,380,o),
(808,398,c),
(801,493,o),
(800,587,o),
(800,682,cs),
(800,777,o),
(801,871,o),
(808,966,c),
(808,985,o),
(738,984,o),
(738,966,cs),
(738,849,ls),
(738,752,o),
(717,719,o),
(621,719,cs),
(429,719,l),
(429,1240,ls),
(429,1274,o),
(443,1288,o),
(470,1288,cs),
(771,1278,ls),
(944,1272,o),
(1030,1186,o),
(1030,1016,cs),
(1030,991,o),
(1106,992,o),
(1106,1016,cs),
(1106,1340,ls),
(1106,1359,o),
(1091,1364,o),
(1033,1364,cs),
(943,1364,o),
(439,1358,o),
(349,1358,cs),
(260,1358,o),
(171,1359,o),
(82,1364,c),
(62,1364,o),
(63,1288,o),
(82,1288,cs),
(207,1288,o),
(269,1269,o),
(269,1178,cs),
(269,186,ls),
(269,88,o),
(209,69,o),
(89,69,cs),
(70,69,o),
(71,-7,o),
(89,-7,c)
);
}
);
width = 1146;
}
);
metricLeft = B;
unicode = 70;
}
{
glyphname = H;
kernLeft = B;
kernRight = H;
lastChange = "2021-05-20 21:51:09 +0000";
layers = (
{
anchors = (
{
name = bottom;
pos = (822,0);
},
{
name = cedilla;
pos = (478,0);
},
{
name = top;
pos = (816,1358);
},
{
name = zzcurly;
pos = (1044,1341);
}
);
hints = (
{
horizontal = 1;
options = 4;
origin = (0,63);
target = (0,57);
type = TTStem;
},
{
horizontal = 1;
options = 4;
origin = (0,63);
target = (0,42);
type = TTShift;
},
{
horizontal = 1;
options = 4;
origin = (0,57);
target = (0,69);
type = TTShift;
},
{
horizontal = 1;
options = 4;
origin = (0,57);
target = (0,48);
type = TTShift;
},
{
horizontal = 1;
options = 4;
origin = (0,57);
target = (0,36);
type = TTShift;
},
{
horizontal = 1;
options = 4;
origin = (0,2);
target = (0,8);
type = TTStem;
},
{
horizontal = 1;
options = 4;
origin = (0,8);
target = (0,76);
type = TTShift;
},
{
horizontal = 1;
options = 4;
origin = (0,8);
target = (0,17);
type = TTShift;
},
{
horizontal = 1;
options = 4;
origin = (0,8);
target = (0,29);
type = TTShift;
},
{
horizontal = 1;
options = 4;
origin = (0,2);
target = (0,23);
type = TTShift;
},
{
horizontal = 1;
origin = (0,63);
other1 = (0,12);
target = (0,2);
type = TTInterpolate;
},
{
horizontal = 1;
options = 4;
origin = (0,12);
target = (0,53);
type = TTStem;
}
);
layerId = master01;
shapes = (
{
closed = 1;
nodes = (
(179,-2,o),
(266,0,o),
(352,0,cs),
(438,0,o),
(525,-2,o),
(611,-7,c),
(629,-7,o),
(630,69,o),
(611,69,cs),
(491,69,o),
(431,88,o),
(431,186,cs),
(431,659,l),
(1211,659,l),
(1211,186,ls),
(1211,88,o),
(1152,69,o),
(1033,69,cs),
(1015,69,o),
(1014,-7,o),
(1033,-7,c),
(1119,-2,o),
(1206,0,o),
(1292,0,cs),
(1378,0,o),
(1465,-2,o),
(1551,-7,c),
(1569,-7,o),
(1570,69,o),
(1551,69,cs),
(1431,69,o),
(1371,88,o),
(1371,186,cs),
(1371,1172,ls),
(1371,1268,o),
(1431,1287,o),
(1551,1287,cs),
(1569,1287,o),
(1570,1363,o),
(1551,1363,c),
(1463,1359,o),
(1375,1358,o),
(1287,1358,cs),
(1198,1358,o),
(1110,1359,o),
(1022,1363,c),
(1003,1363,o),
(1002,1287,o),
(1022,1287,cs),
(1148,1287,o),
(1211,1268,o),
(1211,1172,cs),
(1211,743,l),
(431,743,l),
(431,1172,ls),
(431,1268,o),
(491,1287,o),
(611,1287,cs),
(629,1287,o),
(630,1363,o),
(611,1363,c),
(523,1359,o),
(435,1358,o),
(347,1358,cs),
(258,1358,o),
(170,1359,o),
(82,1363,c),
(63,1363,o),
(62,1287,o),
(82,1287,cs),
(208,1287,o),
(271,1268,o),
(271,1172,cs),
(271,186,ls),
(271,88,o),
(212,69,o),
(93,69,cs),
(75,69,o),
(74,-7,o),
(93,-7,c)
);
}
);
width = 1620;
},
{
anchors = (
{
name = bottom;
pos = (831,0);
},
{
name = cedilla;
pos = (498,0);
},
{
name = top;
pos = (825,1358);
},
{
name = zzcurly;
pos = (1044,1341);
}
);
layerId = "75918100-ED89-42A8-B0FE-888EB9C86810";
shapes = (
{
closed = 1;
nodes = (
(160,-2,o),
(254,0,o),
(348,0,cs),
(441,0,o),
(535,-2,o),
(629,-6,c),
(648,-6,o),
(649,70,o),
(629,70,cs),
(524,70,o),
(471,89,o),
(471,187,cs),
(471,653,l),
(1178,653,l),
(1178,187,ls),
(1178,89,o),
(1124,70,o),
(1016,70,cs),
(997,70,o),
(996,-6,o),
(1016,-6,c),
(1110,-2,o),
(1204,0,o),
(1299,0,cs),
(1393,0,o),
(1487,-2,o),
(1581,-6,c),
(1601,-6,o),
(1602,70,o),
(1581,70,cs),
(1475,70,o),
(1422,89,o),
(1422,187,cs),
(1422,1171,ls),
(1422,1267,o),
(1476,1288,o),
(1585,1288,cs),
(1605,1288,o),
(1606,1364,o),
(1585,1364,c),
(1491,1359,o),
(1396,1358,o),
(1302,1358,cs),
(1207,1358,o),
(1113,1359,o),
(1018,1364,c),
(999,1364,o),
(998,1288,o),
(1018,1288,cs),
(1125,1288,o),
(1178,1267,o),
(1178,1171,cs),
(1178,748,l),
(471,748,l),
(471,1171,ls),
(471,1267,o),
(525,1288,o),
(633,1288,cs),
(653,1288,o),
(654,1364,o),
(633,1364,c),
(539,1359,o),
(444,1358,o),
(350,1358,cs),
(255,1358,o),
(161,1359,o),
(66,1364,c),
(47,1364,o),
(46,1288,o),
(66,1288,cs),
(174,1288,o),
(228,1267,o),
(228,1171,cs),
(228,187,ls),
(228,89,o),
(174,70,o),
(66,70,cs),
(46,70,o),
(45,-6,o),
(66,-6,c)
);
}
);
width = 1675;
},
{
anchors = (
{
name = bottom;
pos = (820,0);
},
{
name = cedilla;
pos = (472,0);
},
{
name = top;
pos = (814,1358);
},
{
name = zzcurly;
pos = (1054,1341);
}
);
layerId = "6ABD9449-5E80-4451-809E-12ADEB9E9AB4";
shapes = (
{
closed = 1;
nodes = (
(187,-2,o),
(271,0,o),
(355,0,cs),
(438,0,o),
(522,-2,o),
(606,-7,c),
(623,-7,o),
(624,63,o),
(606,63,cs),
(481,63,o),
(418,82,o),
(418,180,cs),
(418,661,l),
(1223,661,l),
(1223,180,ls),
(1223,82,o),
(1162,63,o),
(1039,63,cs),
(1022,63,o),
(1021,-7,o),
(1039,-7,c),
(1123,-2,o),
(1207,0,o),
(1291,0,cs),
(1374,0,o),
(1458,-2,o),
(1542,-7,c),
(1559,-7,o),
(1560,63,o),
(1542,63,cs),
(1417,63,o),
(1355,82,o),
(1355,180,cs),
(1355,1178,ls),
(1355,1274,o),
(1417,1293,o),
(1540,1293,cs),
(1558,1293,o),
(1559,1363,o),
(1540,1363,c),
(1454,1359,o),
(1368,1358,o),
(1282,1358,cs),
(1196,1358,o),
(1110,1359,o),
(1024,1363,c),
(1005,1363,o),
(1004,1293,o),
(1024,1293,cs),
(1156,1293,o),
(1223,1274,o),
(1223,1178,cs),
(1223,741,l),
(418,741,l),
(418,1178,ls),
(418,1274,o),
(480,1293,o),
(604,1293,cs),
(622,1293,o),
(623,1363,o),
(604,1363,c),
(518,1359,o),
(432,1358,o),
(346,1358,cs),
(260,1358,o),
(174,1359,o),
(88,1363,c),
(69,1363,o),
(68,1293,o),
(88,1293,cs),
(220,1293,o),
(286,1274,o),
(286,1178,cs),
(286,180,ls),
(286,82,o),
(225,63,o),
(103,63,cs),
(85,63,o),
(84,-7,o),
(103,-7,c)
);
}
);
width = 1602;
},
{
anchors = (
{
name = bottom;
pos = (715,0);
},
{
name = cedilla;
pos = (425,0);
},
{
name = top;
pos = (710,1358);
},
{
name = zzcurly;
pos = (924,1341);
}
);
layerId = "70B83247-6FA0-4662-9656-C86DD2A17D3B";
shapes = (
{
closed = 1;
nodes = (
(161,-2,o),
(236,0,o),
(312,0,cs),
(387,0,o),
(463,-2,o),
(538,-7,c),
(554,-7,o),
(555,69,o),
(538,69,cs),
(441,69,o),
(391,88,o),
(391,186,cs),
(391,659,l),
(1033,659,l),
(1033,186,ls),
(1033,88,o),
(984,69,o),
(887,69,cs),
(871,69,o),
(870,-7,o),
(887,-7,c),
(963,-2,o),
(1038,0,o),
(1114,0,cs),
(1189,0,o),
(1265,-2,o),
(1340,-7,c),
(1356,-7,o),
(1358,69,o),
(1340,69,cs),
(1243,69,o),
(1193,88,o),
(1193,186,cs),
(1193,1172,ls),
(1193,1268,o),
(1243,1287,o),
(1342,1287,cs),
(1358,1287,o),
(1359,1363,o),
(1342,1363,c),
(1265,1359,o),
(1188,1358,o),
(1112,1358,cs),
(1035,1358,o),
(958,1359,o),
(881,1363,c),
(865,1363,o),
(865,1287,o),
(881,1287,cs),
(982,1287,o),
(1033,1268,o),
(1033,1172,cs),
(1033,743,l),
(391,743,l),
(391,1172,ls),
(391,1268,o),
(441,1287,o),
(539,1287,cs),
(555,1287,o),
(557,1363,o),
(539,1363,c),
(462,1359,o),
(386,1358,o),
(309,1358,cs),
(232,1358,o),
(156,1359,o),
(79,1363,c),
(63,1363,o),
(62,1287,o),
(79,1287,cs),
(180,1287,o),
(231,1268,o),
(231,1172,cs),
(231,186,ls),
(231,88,o),
(182,69,o),
(85,69,cs),
(69,69,o),
(68,-7,o),
(85,-7,c)
);
}
);
width = 1409;
},
{
anchors = (
{
name = bottom;
pos = (929,0);
},
{
name = cedilla;
pos = (531,0);
},
{
name = top;
pos = (922,1358);
},
{
name = zzcurly;
pos = (1164,1341);
}
);
layerId = "9E6FDE2E-55A6-44A9-9556-F1822294BF26";
shapes = (
{
closed = 1;
nodes = (
(198,-2,o),
(295,0,o),
(393,0,cs),
(490,0,o),
(587,-2,o),
(684,-7,c),
(704,-7,o),
(705,69,o),
(684,69,cs),
(541,69,o),
(471,88,o),
(471,186,cs),
(471,659,l),
(1389,659,l),
(1389,186,ls),
(1389,88,o),
(1320,69,o),
(1179,69,cs),
(1159,69,o),
(1158,-7,o),
(1179,-7,c),
(1276,-2,o),
(1373,0,o),
(1471,0,cs),
(1568,0,o),
(1665,-2,o),
(1762,-7,c),
(1782,-7,o),
(1782,69,o),
(1762,69,cs),
(1619,69,o),
(1549,88,o),
(1549,186,cs),
(1549,1172,ls),
(1549,1268,o),
(1619,1287,o),
(1760,1287,cs),
(1780,1287,o),
(1781,1363,o),
(1760,1363,c),
(1661,1359,o),
(1561,1358,o),
(1462,1358,cs),
(1362,1358,o),
(1263,1359,o),
(1163,1363,c),
(1141,1363,o),
(1139,1287,o),
(1163,1287,cs),
(1314,1287,o),
(1389,1268,o),
(1389,1172,cs),
(1389,743,l),
(471,743,l),
(471,1172,ls),
(471,1268,o),
(541,1287,o),
(683,1287,cs),
(703,1287,o),
(703,1363,o),
(683,1363,c),
(583,1359,o),
(484,1358,o),
(384,1358,cs),
(284,1358,o),
(185,1359,o),
(85,1363,c),
(63,1363,o),
(62,1287,o),
(85,1287,cs),
(236,1287,o),
(311,1268,o),
(311,1172,cs),
(311,186,ls),
(311,88,o),
(242,69,o),
(101,69,cs),
(81,69,o),
(80,-7,o),
(101,-7,c)
);
}
);
width = 1831;
},
{
anchors = (
{
name = bottom;
pos = (822,0);
},
{
name = cedilla;
pos = (478,0);
},
{
name = top;
pos = (816,1358);
},
{
name = zzcurly;
pos = (1044,1341);
}
);
layerId = "00F4936D-6309-4DEC-83B3-42806ED1A477";
shapes = (
{
closed = 1;
nodes = (
(179,-2,o),
(266,0,o),
(352,0,cs),
(438,0,o),
(525,-2,o),
(611,-7,c),
(629,-7,o),
(630,69,o),
(611,69,cs),
(491,69,o),
(431,88,o),
(431,186,cs),
(431,659,l),
(1211,659,l),
(1211,186,ls),
(1211,88,o),
(1152,69,o),
(1033,69,cs),
(1015,69,o),
(1014,-7,o),
(1033,-7,c),
(1119,-2,o),
(1206,0,o),
(1292,0,cs),
(1378,0,o),
(1465,-2,o),
(1551,-7,c),
(1569,-7,o),
(1570,69,o),
(1551,69,cs),
(1431,69,o),
(1371,88,o),
(1371,186,cs),
(1371,1172,ls),
(1371,1268,o),
(1431,1287,o),
(1551,1287,cs),
(1569,1287,o),
(1570,1363,o),
(1551,1363,c),
(1463,1359,o),
(1375,1358,o),
(1287,1358,cs),
(1198,1358,o),
(1110,1359,o),
(1022,1363,c),
(1003,1363,o),
(1002,1287,o),
(1022,1287,cs),
(1148,1287,o),
(1211,1268,o),
(1211,1172,cs),
(1211,743,l),
(431,743,l),
(431,1172,ls),
(431,1268,o),
(491,1287,o),
(611,1287,cs),
(629,1287,o),
(630,1363,o),
(611,1363,c),
(523,1359,o),
(435,1358,o),
(347,1358,cs),
(258,1358,o),
(170,1359,o),
(82,1363,c),
(63,1363,o),
(62,1287,o),
(82,1287,cs),
(208,1287,o),
(271,1268,o),
(271,1172,cs),
(271,186,ls),
(271,88,o),
(212,69,o),
(93,69,cs),
(75,69,o),
(74,-7,o),
(93,-7,c)
);
}
);
width = 1620;
}
);
metricLeft = B;
unicode = 72;
}
{
glyphname = J;
kernLeft = J;
kernRight = J;
lastChange = "2021-05-20 21:51:09 +0000";
layers = (
{
anchors = (
{
name = bottom;
pos = (331,-389);
},
{
name = bottom_right;
pos = (530,0);
},
{
name = center;
pos = (375,655);
},
{
name = ogonek_above;
pos = (420,1338);
},
{
name = top;
pos = (370,1358);
},
{
name = zzcurly;
pos = (274,1341);
}
);
hints = (
{
horizontal = 1;
options = 4;
origin = (0,15);
target = (0,21);
type = TTStem;
},
{
horizontal = 1;
options = 4;
origin = (0,21);
target = (0,9);
type = TTShift;
},
{
horizontal = 1;
origin = (0,38);
target = (0,32);
type = TTStem;
},
{
horizontal = 1;
options = 4;
origin = (0,32);
other1 = (0,28);
target = (0,38);
type = TTInterpolate;
}
);
layerId = master01;
shapes = (
{
closed = 1;
nodes = (
(196,-419,o),
(325,-317,o),
(381,-184,cs),
(433,-60,o),
(452,157,o),
(452,634,cs),
(452,1172,ls),
(452,1249,o),
(516,1287,o),
(644,1287,cs),
(664,1287,o),
(663,1363,o),
(644,1363,c),
(554,1359,o),
(463,1358,o),
(373,1358,cs),
(283,1358,o),
(192,1359,o),
(102,1363,c),
(82,1363,o),
(83,1287,o),
(102,1287,cs),
(229,1287,o),
(292,1249,o),
(292,1172,cs),
(292,260,ls),
(292,-66,o),
(291,-326,o),
(116,-326,c),
(148,-362,l),
(188,-288,o),
(118,-216,o),
(28,-216,cs),
(-43,-216,o),
(-97,-259,o),
(-97,-312,cs),
(-97,-374,o),
(-24,-419,o),
(66,-419,c)
);
}
);
width = 716;
},
{
anchors = (
{
name = bottom;
pos = (331,-389);
},
{
name = bottom_right;
pos = (610,0);
},
{
name = center;
pos = (375,645);
},
{
name = ogonek_above;
pos = (450,1338);
},
{
name = top;
pos = (370,1358);
},
{
name = zzcurly;
pos = (284,1341);
}
);
layerId = "75918100-ED89-42A8-B0FE-888EB9C86810";
shapes = (
{
closed = 1;
nodes = (
(226,-421,o),
(331,-340,o),
(405,-160,cs),
(475,8,o),
(502,280,o),
(502,629,cs),
(502,1153,ls),
(502,1231,o),
(559,1270,o),
(674,1270,cs),
(694,1270,o),
(693,1364,o),
(674,1364,c),
(576,1359,o),
(478,1358,o),
(380,1358,cs),
(282,1358,o),
(184,1359,o),
(86,1364,c),
(66,1364,o),
(67,1270,o),
(86,1270,cs),
(199,1270,o),
(256,1231,o),
(256,1153,cs),
(256,254,ls),
(256,-39,o),
(256,-310,o),
(118,-310,c),
(155,-359,l),
(216,-261,o),
(135,-158,o),
(18,-158,cs),
(-62,-158,o),
(-131,-206,o),
(-131,-284,cs),
(-131,-367,o),
(-55,-421,o),
(73,-421,c)
);
}
);
width = 716;
},
{
anchors = (
{
name = bottom;
pos = (331,-389);
},
{
name = bottom_right;
pos = (490,0);
},
{
name = center;
pos = (375,658);
},
{
name = ogonek_above;
pos = (407,1338);
},
{
name = top;
pos = (370,1358);
},
{
name = zzcurly;
pos = (294,1341);
}
);
layerId = "6ABD9449-5E80-4451-809E-12ADEB9E9AB4";
shapes = (
{
closed = 1;
nodes = (
(191,-419,o),
(315,-318,o),
(371,-190,cs),
(431,-53,o),
(435,66,o),
(435,636,cs),
(435,1178,ls),
(435,1255,o),
(502,1293,o),
(634,1293,cs),
(654,1293,o),
(653,1363,o),
(634,1363,c),
(546,1359,o),
(458,1358,o),
(371,1358,cs),
(283,1358,o),
(195,1359,o),
(107,1363,c),
(87,1363,o),
(88,1293,o),
(107,1293,cs),
(239,1293,o),
(304,1255,o),
(304,1178,cs),
(304,262,ls),
(304,-70,o),
(303,-338,o),
(116,-338,c),
(146,-369,l),
(179,-298,o),
(116,-235,o),
(31,-235,cs),
(-32,-235,o),
(-86,-271,o),
(-86,-323,cs),
(-86,-379,o),
(-22,-419,o),
(61,-419,c)
);
}
);
width = 716;
},
{
anchors = (
{
name = bottom;
pos = (275,-392);
},
{
name = bottom_right;
pos = (469,0);
},
{
name = center;
pos = (310,655);
},
{
name = ogonek_above;
pos = (356,1338);
},
{
name = top;
pos = (306,1358);
},
{
name = zzcurly;
pos = (234,1341);
}
);
layerId = "70B83247-6FA0-4662-9656-C86DD2A17D3B";
shapes = (
{
closed = 1;
nodes = (
(176,-419,o),
(274,-323,o),
(322,-178,cs),
(370,-34,o),
(387,218,o),
(387,632,cs),
(387,1171,ls),
(387,1248,o),
(436,1287,o),
(534,1287,cs),
(550,1287,o),
(549,1363,o),
(534,1363,c),
(460,1359,o),
(385,1358,o),
(311,1358,cs),
(236,1358,o),
(162,1359,o),
(87,1363,c),
(71,1363,o),
(72,1287,o),
(87,1287,cs),
(184,1287,o),
(233,1248,o),
(233,1171,cs),
(233,258,ls),
(233,-43,o),
(233,-321,o),
(105,-321,c),
(131,-365,l),
(167,-290,o),
(109,-216,o),
(27,-216,cs),
(-32,-216,o),
(-78,-253,o),
(-78,-310,cs),
(-78,-377,o),
(-18,-419,o),
(61,-419,cs)
);
}
);
width = 592;
},
{
anchors = (
{
name = bottom;
pos = (387,-386);
},
{
name = bottom_right;
pos = (591,0);
},
{
name = center;
pos = (440,655);
},
{
name = ogonek_above;
pos = (484,1338);
},
{
name = top;
pos = (434,1358);
},
{
name = zzcurly;
pos = (314,1341);
}
);
layerId = "9E6FDE2E-55A6-44A9-9556-F1822294BF26";
shapes = (
{
closed = 1;
nodes = (
(216,-419,o),
(375,-311,o),
(440,-190,cs),
(496,-86,o),
(517,96,o),
(517,636,cs),
(517,1173,ls),
(517,1250,o),
(596,1287,o),
(754,1287,cs),
(778,1287,o),
(777,1363,o),
(754,1363,c),
(648,1359,o),
(541,1358,o),
(435,1358,cs),
(330,1358,o),
(222,1359,o),
(117,1363,c),
(93,1363,o),
(94,1287,o),
(117,1287,cs),
(274,1287,o),
(351,1250,o),
(351,1173,cs),
(351,262,ls),
(351,-119,o),
(351,-331,o),
(87,-331,c),
(145,-359,l),
(183,-286,o),
(113,-216,o),
(29,-216,cs),
(-43,-216,o),
(-96,-266,o),
(-96,-314,cs),
(-96,-370,o),
(-19,-419,o),
(71,-419,cs)
);
}
);
width = 840;
},
{
anchors = (
{
name = bottom;
pos = (331,-389);
},
{
name = bottom_right;
pos = (530,0);
},
{
name = center;
pos = (375,655);
},
{
name = ogonek_above;
pos = (420,1338);
},
{
name = top;
pos = (370,1358);
},
{
name = zzcurly;
pos = (274,1341);
}
);
layerId = "00F4936D-6309-4DEC-83B3-42806ED1A477";
shapes = (
{
closed = 1;
nodes = (
(196,-419,o),
(325,-317,o),
(381,-184,cs),
(433,-60,o),
(452,157,o),
(452,634,cs),
(452,1172,ls),
(452,1249,o),
(516,1287,o),
(644,1287,cs),
(664,1287,o),
(663,1363,o),
(644,1363,c),
(554,1359,o),
(463,1358,o),
(373,1358,cs),
(283,1358,o),
(192,1359,o),
(102,1363,c),
(82,1363,o),
(83,1287,o),
(102,1287,cs),
(229,1287,o),
(292,1249,o),
(292,1172,cs),
(292,260,ls),
(292,-66,o),
(291,-326,o),
(116,-326,c),
(148,-362,l),
(188,-288,o),
(118,-216,o),
(28,-216,cs),
(-43,-216,o),
(-97,-259,o),
(-97,-312,cs),
(-97,-374,o),
(-24,-419,o),
(66,-419,c)
);
}
);
width = 716;
}
);
unicode = 74;
}
{
glyphname = K;
kernLeft = B;
kernRight = K;
layers = (
{
anchors = (
{
name = bottom;
pos = (703,0);
},
{
name = center;
pos = (344,1068);
},
{
name = top;
pos = (693,1358);
},
{
name = zzcurly;
pos = (854,1341);
}
);
hints = (
{
horizontal = 1;
options = 4;
origin = (0,73);
target = (0,67);
type = TTStem;
},
{
horizontal = 1;
options = 4;
origin = (0,73);
target = (0,49);
type = TTShift;
},
{
horizontal = 1;
options = 4;
origin = (0,67);
target = (0,79);
type = TTShift;
},
{
horizontal = 1;
options = 4;
origin = (0,67);
target = (0,55);
type = TTShift;
},
{
horizontal = 1;
options = 4;
origin = (0,67);
target = (0,43);
type = TTShift;
},
{
horizontal = 1;
options = 4;
origin = (0,2);
target = (0,8);
type = TTStem;
},
{
horizontal = 1;
options = 4;
origin = (0,2);
target = (0,26);
type = TTShift;
},
{
horizontal = 1;
options = 4;
origin = (0,8);
target = (0,86);
type = TTShift;
},
{
horizontal = 1;
options = 4;
origin = (0,8);
target = (0,20);
type = TTShift;
},
{
horizontal = 1;
options = 4;
origin = (0,8);
target = (0,32);
type = TTShift;
},
{
horizontal = 1;
origin = (0,73);
other1 = (0,12);
target = (0,2);
type = TTInterpolate;
},
{
horizontal = 1;
options = 4;
origin = (0,12);
target = (0,63);
type = TTStem;
}
);
layerId = master01;
shapes = (
{
closed = 1;
nodes = (
(178,-2,o),
(264,0,o),
(351,0,cs),
(438,0,o),
(524,-2,o),
(611,-7,c),
(630,-7,o),
(629,69,o),
(611,69,cs),
(491,69,o),
(431,108,o),
(431,186,cs),
(431,645,l),
(448,645,ls),
(492,645,o),
(552,604,o),
(602,539,cs),
(871,186,ls),
(912,132,o),
(912,69,o),
(800,69,cs),
(780,69,o),
(781,-7,o),
(800,-7,c),
(889,-2,o),
(979,0,o),
(1068,0,cs),
(1157,0,o),
(1247,-2,o),
(1336,-7,c),
(1356,-7,o),
(1355,69,o),
(1336,69,cs),
(1223,69,o),
(1150,100,o),
(1090,173,cs),
(635,734,ls),
(624,747,o),
(624,759,o),
(635,772,cs),
(990,1201,ls),
(1047,1270,o),
(1088,1287,o),
(1194,1287,cs),
(1214,1287,o),
(1213,1363,o),
(1194,1363,c),
(1134,1359,o),
(1073,1358,o),
(1013,1358,cs),
(952,1358,o),
(892,1359,o),
(831,1363,c),
(812,1363,o),
(813,1287,o),
(831,1287,cs),
(914,1287,o),
(914,1247,o),
(856,1175,cs),
(565,810,ls),
(541,779,o),
(484,712,o),
(444,712,cs),
(431,712,l),
(431,1172,ls),
(431,1249,o),
(494,1287,o),
(619,1287,cs),
(638,1287,o),
(637,1363,o),
(619,1363,c),
(530,1359,o),
(440,1358,o),
(351,1358,cs),
(261,1358,o),
(172,1359,o),
(82,1363,c),
(62,1363,o),
(63,1287,o),
(82,1287,cs),
(208,1287,o),
(271,1249,o),
(271,1172,cs),
(271,186,ls),
(271,108,o),
(211,69,o),
(91,69,cs),
(73,69,o),
(73,-7,o),
(91,-7,c)
);
}
);
width = 1335;
},
{
anchors = (
{
name = bottom;
pos = (706,0);
},
{
name = center;
pos = (367,1068);
},
{
name = top;
pos = (716,1358);
},
{
name = zzcurly;
pos = (877,1341);
}
);
layerId = "75918100-ED89-42A8-B0FE-888EB9C86810";
shapes = (
{
closed = 1;
nodes = (
(173,-2,o),
(266,0,o),
(360,0,cs),
(453,0,o),
(547,-2,o),
(640,-6,c),
(659,-6,o),
(658,86,o),
(640,86,cs),
(536,86,o),
(484,125,o),
(484,203,cs),
(484,598,l),
(507,598,ls),
(522,598,o),
(552,574,o),
(593,524,cs),
(851,203,ls),
(912,127,o),
(912,86,o),
(808,86,cs),
(788,86,o),
(789,-6,o),
(808,-6,c),
(904,-2,o),
(1000,0,o),
(1097,0,cs),
(1193,0,o),
(1289,-2,o),
(1385,-6,c),
(1406,-6,o),
(1405,86,o),
(1385,86,cs),
(1281,86,o),
(1210,117,o),
(1148,190,cs),
(689,725,ls),
(671,746,o),
(671,772,o),
(689,793,cs),
(1027,1185,ls),
(1084,1252,o),
(1127,1269,o),
(1240,1269,cs),
(1260,1269,o),
(1259,1363,o),
(1240,1363,c),
(1174,1359,o),
(1108,1358,o),
(1043,1358,cs),
(977,1358,o),
(911,1359,o),
(845,1363,c),
(826,1363,o),
(827,1269,o),
(845,1269,cs),
(924,1269,o),
(924,1238,o),
(853,1154,cs),
(576,825,ls),
(545,788,o),
(520,770,o),
(501,770,cs),
(484,770,l),
(484,1153,ls),
(484,1231,o),
(537,1270,o),
(644,1270,cs),
(664,1270,o),
(663,1364,o),
(644,1364,c),
(548,1359,o),
(452,1358,o),
(357,1358,cs),
(261,1358,o),
(165,1359,o),
(69,1364,c),
(48,1364,o),
(49,1270,o),
(69,1270,cs),
(184,1270,o),
(241,1231,o),
(241,1153,cs),
(241,203,ls),
(241,125,o),
(187,86,o),
(79,86,cs),
(58,86,o),
(59,-6,o),
(79,-6,c)
);
}
);
width = 1383;
},
{
anchors = (
{
name = bottom;
pos = (704,0);
},
{
name = center;
pos = (354,1068);
},
{
name = top;
pos = (687,1358);
},
{
name = zzcurly;
pos = (855,1341);
}
);
layerId = "6ABD9449-5E80-4451-809E-12ADEB9E9AB4";
shapes = (
{
closed = 1;
nodes = (
(181,-2,o),
(266,0,o),
(350,0,cs),
(434,0,o),
(519,-2,o),
(603,-7,c),
(622,-7,o),
(621,63,o),
(603,63,cs),
(478,63,o),
(415,102,o),
(415,180,cs),
(415,651,l),
(430,651,ls),
(484,651,o),
(551,619,o),
(607,544,cs),
(880,180,ls),
(913,136,o),
(913,63,o),
(799,63,cs),
(779,63,o),
(780,-7,o),
(799,-7,c),
(886,-2,o),
(973,0,o),
(1061,0,cs),
(1148,0,o),
(1235,-2,o),
(1322,-7,c),
(1341,-7,o),
(1340,63,o),
(1322,63,cs),
(1206,63,o),
(1131,94,o),
(1073,167,cs),
(621,735,ls),
(611,748,o),
(611,754,o),
(621,767,cs),
(980,1206,ls),
(1037,1276,o),
(1078,1293,o),
(1181,1293,cs),
(1201,1293,o),
(1200,1363,o),
(1181,1363,c),
(1122,1359,o),
(1063,1358,o),
(1005,1358,cs),
(946,1358,o),
(887,1359,o),
(828,1363,c),
(809,1363,o),
(810,1293,o),
(828,1293,cs),
(912,1293,o),
(912,1250,o),
(859,1182,cs),
(561,805,ls),
(536,774,o),
(474,703,o),
(427,703,cs),
(415,703,l),
(415,1178,ls),
(415,1255,o),
(481,1293,o),
(613,1293,cs),
(631,1293,o),
(630,1363,o),
(613,1363,c),
(526,1359,o),
(438,1358,o),
(351,1358,cs),
(263,1358,o),
(176,1359,o),
(88,1363,c),
(69,1363,o),
(70,1293,o),
(88,1293,cs),
(218,1293,o),
(283,1255,o),
(283,1178,cs),
(283,180,ls),
(283,102,o),
(221,63,o),
(97,63,cs),
(80,63,o),
(80,-7,o),
(97,-7,c)
);
}
);
width = 1321;
},
{
anchors = (
{
name = bottom;
pos = (570,0);
},
{
name = center;
pos = (287,1068);
},
{
name = top;
pos = (568,1358);
},
{
name = zzcurly;
pos = (704,1341);
}
);
layerId = "70B83247-6FA0-4662-9656-C86DD2A17D3B";
shapes = (
{
closed = 1;
nodes = (
(148,-2,o),
(219,0,o),
(291,0,cs),
(362,0,o),
(434,-2,o),
(505,-7,c),
(519,-7,o),
(519,69,o),
(505,69,cs),
(414,69,o),
(368,108,o),
(368,186,cs),
(368,645,l),
(383,645,ls),
(410,645,o),
(445,601,o),
(486,535,cs),
(698,191,ls),
(736,129,o),
(736,69,o),
(649,69,cs),
(633,69,o),
(634,-7,o),
(649,-7,c),
(723,-2,o),
(796,0,o),
(870,0,cs),
(944,0,o),
(1017,-2,o),
(1091,-7,c),
(1107,-7,o),
(1105,69,o),
(1091,69,cs),
(1006,69,o),
(948,102,o),
(897,179,cs),
(530,734,ls),
(521,747,o),
(521,762,o),
(530,776,cs),
(810,1196,ls),
(859,1269,o),
(892,1287,o),
(976,1287,cs),
(991,1287,o),
(991,1363,o),
(976,1363,c),
(926,1359,o),
(876,1358,o),
(826,1358,cs),
(776,1358,o),
(726,1359,o),
(676,1363,c),
(661,1363,o),
(662,1287,o),
(676,1287,cs),
(742,1287,o),
(742,1248,o),
(691,1169,cs),
(464,815,ls),
(445,785,o),
(398,712,o),
(379,712,cs),
(368,712,l),
(368,1166,ls),
(368,1248,o),
(415,1287,o),
(509,1287,cs),
(524,1287,o),
(525,1363,o),
(509,1363,c),
(436,1359,o),
(362,1358,o),
(289,1358,cs),
(216,1358,o),
(142,1359,o),
(69,1363,c),
(53,1363,o),
(53,1287,o),
(69,1287,cs),
(165,1287,o),
(215,1249,o),
(215,1166,cs),
(215,186,ls),
(215,108,o),
(168,69,o),
(76,69,cs),
(60,69,o),
(61,-7,o),
(76,-7,c)
);
}
);
width = 1090;
},
{
anchors = (
{
name = bottom;
pos = (838,0);
},
{
name = center;
pos = (403,1068);
},
{
name = top;
pos = (820,1358);
},
{
name = zzcurly;
pos = (1006,1341);
}
);
layerId = "9E6FDE2E-55A6-44A9-9556-F1822294BF26";
shapes = (
{
closed = 1;
nodes = (
(210,-2,o),
(311,0,o),
(413,0,cs),
(516,0,o),
(616,-2,o),
(719,-7,c),
(743,-7,o),
(741,69,o),
(719,69,cs),
(570,69,o),
(496,108,o),
(496,186,cs),
(496,645,l),
(515,645,ls),
(576,645,o),
(661,609,o),
(720,543,cs),
(1046,181,ls),
(1090,132,o),
(1090,69,o),
(953,69,cs),
(929,69,o),
(930,-7,o),
(953,-7,c),
(1050,-2,o),
(1146,0,o),
(1243,0,cs),
(1340,0,o),
(1436,-2,o),
(1533,-7,c),
(1557,-7,o),
(1557,69,o),
(1533,69,cs),
(1425,69,o),
(1351,98,o),
(1285,167,cs),
(739,738,ls),
(730,748,o),
(730,754,o),
(739,764,cs),
(1172,1206,ls),
(1235,1271,o),
(1283,1287,o),
(1414,1287,cs),
(1439,1287,o),
(1437,1363,o),
(1414,1363,c),
(1344,1359,o),
(1272,1358,o),
(1202,1358,cs),
(1130,1358,o),
(1060,1359,o),
(988,1363,c),
(965,1363,o),
(966,1287,o),
(988,1287,cs),
(1083,1287,o),
(1083,1245,o),
(1023,1181,cs),
(669,801,ls),
(634,763,o),
(569,712,o),
(511,712,cs),
(496,712,l),
(496,1178,ls),
(496,1250,o),
(575,1287,o),
(731,1287,cs),
(754,1287,o),
(751,1363,o),
(731,1363,c),
(626,1359,o),
(520,1358,o),
(415,1358,cs),
(308,1358,o),
(204,1359,o),
(97,1363,c),
(73,1363,o),
(75,1287,o),
(97,1287,cs),
(253,1287,o),
(329,1249,o),
(329,1178,cs),
(329,186,ls),
(329,108,o),
(256,69,o),
(108,69,cs),
(88,69,o),
(87,-7,o),
(108,-7,c)
);
}
);
width = 1532;
},
{
anchors = (
{
name = bottom;
pos = (703,0);
},
{
name = center;
pos = (344,1068);
},
{
name = top;
pos = (693,1358);
},
{
name = zzcurly;
pos = (854,1341);
}
);
layerId = "00F4936D-6309-4DEC-83B3-42806ED1A477";
shapes = (
{
closed = 1;
nodes = (
(178,-2,o),
(264,0,o),
(351,0,cs),
(438,0,o),
(524,-2,o),
(611,-7,c),
(630,-7,o),
(629,69,o),
(611,69,cs),
(491,69,o),
(431,108,o),
(431,186,cs),
(431,645,l),
(448,645,ls),
(492,645,o),
(552,604,o),
(602,539,cs),
(871,186,ls),
(912,132,o),
(912,69,o),
(800,69,cs),
(780,69,o),
(781,-7,o),
(800,-7,c),
(889,-2,o),
(979,0,o),
(1068,0,cs),
(1157,0,o),
(1247,-2,o),
(1336,-7,c),
(1356,-7,o),
(1355,69,o),
(1336,69,cs),
(1223,69,o),
(1150,100,o),
(1090,173,cs),
(635,734,ls),
(624,747,o),
(624,759,o),
(635,772,cs),
(990,1201,ls),
(1047,1270,o),
(1088,1287,o),
(1194,1287,cs),
(1214,1287,o),
(1213,1363,o),
(1194,1363,c),
(1134,1359,o),
(1073,1358,o),
(1013,1358,cs),
(952,1358,o),
(892,1359,o),
(831,1363,c),
(812,1363,o),
(813,1287,o),
(831,1287,cs),
(914,1287,o),
(914,1247,o),
(856,1175,cs),
(565,810,ls),
(541,779,o),
(484,712,o),
(444,712,cs),
(431,712,l),
(431,1172,ls),
(431,1249,o),
(494,1287,o),
(619,1287,cs),
(638,1287,o),
(637,1363,o),
(619,1363,c),
(530,1359,o),
(440,1358,o),
(351,1358,cs),
(261,1358,o),
(172,1359,o),
(82,1363,c),
(62,1363,o),
(63,1287,o),
(82,1287,cs),
(208,1287,o),
(271,1249,o),
(271,1172,cs),
(271,186,ls),
(271,108,o),
(211,69,o),
(91,69,cs),
(73,69,o),
(73,-7,o),
(91,-7,c)
);
}
);
width = 1335;
}
);
metricLeft = B;
unicode = 75;
}
{
glyphname = N;
kernLeft = B;
kernRight = N;
layers = (
{
anchors = (
{
name = bottom;
pos = (781,0);
},
{
name = top;
pos = (749,1358);
},
{
name = zzcurly;
pos = (1072,1341);
}
);
hints = (
{
horizontal = 1;
options = 4;
origin = (0,49);
target = (0,43);
type = TTStem;
},
{
horizontal = 1;
options = 4;
origin = (0,43);
target = (0,55);
type = TTShift;
},
{
horizontal = 1;
options = 4;
origin = (0,49);
target = (0,64);
type = TTShift;
},
{
horizontal = 1;
options = 4;
origin = (0,12);
target = (0,18);
type = TTStem;
},
{
horizontal = 1;
options = 4;
origin = (0,12);
target = (0,30);
type = TTShift;
},
{
horizontal = 1;
options = 4;
origin = (0,18);
target = (0,6);
type = TTShift;
},
{
horizontal = 1;
options = 4;
origin = (0,18);
target = (0,36);
type = TTShift;
},
{
horizontal = 1;
options = 4;
origin = (0,12);
target = (0,60);
type = TTShift;
},
{
horizontal = 1;
options = 4;
origin = (0,64);
target = (0,22);
type = TTShift;
}
);
layerId = master01;
shapes = (
{
closed = 1;
nodes = (
(1290,-21,o),
(1296,-13,o),
(1296,0,cs),
(1296,1171,ls),
(1296,1248,o),
(1341,1287,o),
(1432,1287,cs),
(1450,1287,o),
(1451,1363,o),
(1432,1363,c),
(1370,1359,o),
(1307,1358,o),
(1245,1358,cs),
(1182,1358,o),
(1120,1359,o),
(1057,1363,c),
(1038,1363,o),
(1037,1287,o),
(1057,1287,cs),
(1171,1287,o),
(1228,1248,o),
(1228,1171,cs),
(1228,292,l),
(1213,292,l),
(423,1309,ls),
(405,1332,o),
(385,1346,o),
(364,1351,cs),
(343,1356,o),
(300,1358,o),
(230,1358,cs),
(180,1358,o),
(131,1359,o),
(81,1363,c),
(63,1363,o),
(62,1287,o),
(81,1287,cs),
(216,1287,o),
(269,1238,o),
(269,1110,cs),
(269,186,ls),
(269,108,o),
(213,69,o),
(102,69,cs),
(83,69,o),
(82,-7,o),
(102,-7,c),
(168,-2,o),
(233,0,o),
(299,0,cs),
(365,0,o),
(430,-2,o),
(496,-7,c),
(514,-7,o),
(515,69,o),
(496,69,cs),
(390,69,o),
(337,108,o),
(337,186,cs),
(337,1127,l),
(353,1127,l),
(1245,0,ls),
(1253,-11,o),
(1267,-21,o),
(1279,-21,cs)
);
}
);
width = 1491;
},
{
anchors = (
{
name = bottom;
pos = (788,0);
},
{
name = top;
pos = (756,1358);
},
{
name = zzcurly;
pos = (1065,1341);
}
);
layerId = "75918100-ED89-42A8-B0FE-888EB9C86810";
shapes = (
{
closed = 1;
nodes = (
(1294,-20,o),
(1304,-6,o),
(1304,12,cs),
(1304,1151,ls),
(1304,1230,o),
(1349,1270,o),
(1439,1270,cs),
(1459,1270,o),
(1459,1364,o),
(1439,1364,c),
(1374,1359,o),
(1309,1358,o),
(1244,1358,cs),
(1178,1358,o),
(1113,1359,o),
(1048,1364,c),
(1029,1364,o),
(1028,1270,o),
(1048,1270,cs),
(1151,1270,o),
(1202,1230,o),
(1202,1151,cs),
(1202,393,l),
(1186,393,l),
(442,1298,ls),
(415,1331,o),
(381,1342,o),
(358,1350,cs),
(336,1358,o),
(265,1358,o),
(215,1358,cs),
(166,1358,o),
(116,1359,o),
(67,1364,c),
(50,1364,o),
(50,1270,o),
(67,1270,cs),
(182,1270,o),
(239,1232,o),
(239,1155,cs),
(239,193,ls),
(239,115,o),
(189,86,o),
(82,86,cs),
(61,86,o),
(63,-6,o),
(82,-6,c),
(151,-2,o),
(220,0,o),
(289,0,cs),
(357,0,o),
(426,-2,o),
(495,-6,c),
(516,-6,o),
(514,86,o),
(495,86,cs),
(394,86,o),
(344,115,o),
(344,193,cs),
(344,1032,l),
(361,1032,l),
(1221,12,ls),
(1241,-12,o),
(1255,-20,o),
(1273,-20,cs)
);
}
);
width = 1490;
},
{
anchors = (
{
name = bottom;
pos = (785,0);
},
{
name = top;
pos = (753,1358);
},
{
name = zzcurly;
pos = (1093,1341);
}
);
layerId = "6ABD9449-5E80-4451-809E-12ADEB9E9AB4";
shapes = (
{
closed = 1;
nodes = (
(1296,-21,o),
(1300,-17,o),
(1300,0,cs),
(1300,1178,ls),
(1300,1254,o),
(1345,1293,o),
(1436,1293,cs),
(1453,1293,o),
(1455,1364,o),
(1436,1363,c),
(1374,1359,o),
(1313,1358,o),
(1251,1358,cs),
(1189,1358,o),
(1128,1359,o),
(1066,1363,c),
(1047,1363,o),
(1046,1293,o),
(1066,1293,cs),
(1184,1293,o),
(1243,1254,o),
(1243,1178,cs),
(1243,259,l),
(1227,259,l),
(423,1313,ls),
(408,1332,o),
(393,1344,o),
(374,1349,cs),
(353,1355,o),
(278,1358,o),
(228,1358,cs),
(181,1358,o),
(135,1359,o),
(88,1363,c),
(70,1363,o),
(68,1293,o),
(88,1293,cs),
(230,1293,o),
(281,1240,o),
(281,1095,cs),
(281,180,ls),
(281,102,o),
(224,63,o),
(111,63,cs),
(93,63,o),
(91,-7,o),
(111,-7,c),
(176,-2,o),
(242,0,o),
(307,0,cs),
(372,0,o),
(438,-2,o),
(503,-7,c),
(520,-7,o),
(522,63,o),
(503,63,cs),
(395,63,o),
(341,102,o),
(341,180,cs),
(341,1156,l),
(357,1156,l),
(1256,0,ls),
(1267,-14,o),
(1277,-21,o),
(1287,-21,cs)
);
}
);
width = 1500;
},
{
anchors = (
{
name = bottom;
pos = (634,0);
},
{
name = top;
pos = (608,1358);
},
{
name = zzcurly;
pos = (872,1341);
}
);
layerId = "70B83247-6FA0-4662-9656-C86DD2A17D3B";
shapes = (
{
closed = 1;
nodes = (
(1040,-21,o),
(1046,-13,o),
(1046,0,cs),
(1046,1170,ls),
(1046,1247,o),
(1082,1287,o),
(1154,1287,cs),
(1169,1287,o),
(1170,1363,o),
(1154,1363,c),
(1103,1359,o),
(1052,1358,o),
(1002,1358,cs),
(951,1358,o),
(900,1359,o),
(849,1363,c),
(834,1363,o),
(833,1288,o),
(849,1288,cs),
(938,1288,o),
(981,1248,o),
(981,1171,cs),
(981,322,l),
(969,322,l),
(350,1306,ls),
(334,1332,o),
(314,1345,o),
(297,1351,cs),
(277,1357,o),
(255,1358,o),
(195,1358,cs),
(153,1358,o),
(110,1360,o),
(68,1363,c),
(53,1363,o),
(53,1287,o),
(68,1287,cs),
(179,1287,o),
(213,1230,o),
(213,1129,cs),
(213,186,ls),
(213,109,o),
(170,69,o),
(82,69,cs),
(67,69,o),
(67,-7,o),
(82,-7,c),
(136,-2,o),
(189,0,o),
(243,0,cs),
(296,0,o),
(350,-2,o),
(403,-7,c),
(418,-7,o),
(418,69,o),
(403,69,cs),
(320,69,o),
(278,109,o),
(278,186,cs),
(278,1098,l),
(291,1098,l),
(997,0,ls),
(1006,-15,o),
(1016,-21,o),
(1028,-21,cs)
);
}
);
width = 1204;
},
{
anchors = (
{
name = bottom;
pos = (931,0);
},
{
name = top;
pos = (893,1358);
},
{
name = zzcurly;
pos = (1275,1341);
}
);
layerId = "9E6FDE2E-55A6-44A9-9556-F1822294BF26";
shapes = (
{
closed = 1;
nodes = (
(1543,-21,o),
(1549,-13,o),
(1549,0,cs),
(1549,1172,ls),
(1549,1249,o),
(1603,1287,o),
(1713,1287,cs),
(1734,1287,o),
(1735,1363,o),
(1713,1363,c),
(1640,1359,o),
(1565,1358,o),
(1491,1358,cs),
(1416,1358,o),
(1343,1359,o),
(1268,1363,c),
(1245,1363,o),
(1244,1287,o),
(1268,1287,cs),
(1407,1287,o),
(1478,1249,o),
(1478,1172,cs),
(1478,262,l),
(1460,262,l),
(499,1312,ls),
(480,1333,o),
(459,1347,o),
(434,1351,cs),
(412,1355,o),
(348,1358,o),
(268,1358,cs),
(210,1358,o),
(155,1358,o),
(97,1363,c),
(76,1363,o),
(74,1287,o),
(97,1287,cs),
(256,1287,o),
(328,1246,o),
(328,1091,cs),
(328,186,ls),
(328,107,o),
(259,69,o),
(125,69,cs),
(102,69,o),
(100,-7,o),
(125,-7,c),
(203,-2,o),
(280,0,o),
(358,0,cs),
(437,0,o),
(513,-2,o),
(592,-7,c),
(613,-7,o),
(615,69,o),
(592,69,cs),
(463,69,o),
(399,107,o),
(399,186,cs),
(399,1156,l),
(418,1156,l),
(1496,0,ls),
(1503,-7,o),
(1521,-21,o),
(1533,-21,cs)
);
}
);
width = 1783;
},
{
anchors = (
{
name = bottom;
pos = (781,0);
},
{
name = top;
pos = (749,1358);
},
{
name = zzcurly;
pos = (1072,1341);
}
);
layerId = "00F4936D-6309-4DEC-83B3-42806ED1A477";
shapes = (
{
closed = 1;
nodes = (
(1290,-21,o),
(1296,-13,o),
(1296,0,cs),
(1296,1171,ls),
(1296,1248,o),
(1341,1287,o),
(1432,1287,cs),
(1450,1287,o),
(1451,1363,o),
(1432,1363,c),
(1370,1359,o),
(1307,1358,o),
(1245,1358,cs),
(1182,1358,o),
(1120,1359,o),
(1057,1363,c),
(1038,1363,o),
(1037,1287,o),
(1057,1287,cs),
(1171,1287,o),
(1228,1248,o),
(1228,1171,cs),
(1228,292,l),
(1213,292,l),
(423,1309,ls),
(405,1332,o),
(385,1346,o),
(364,1351,cs),
(343,1356,o),
(300,1358,o),
(230,1358,cs),
(180,1358,o),
(131,1359,o),
(81,1363,c),
(63,1363,o),
(62,1287,o),
(81,1287,cs),
(216,1287,o),
(269,1238,o),
(269,1110,cs),
(269,186,ls),
(269,108,o),
(213,69,o),
(102,69,cs),
(83,69,o),
(82,-7,o),
(102,-7,c),
(168,-2,o),
(233,0,o),
(299,0,cs),
(365,0,o),
(430,-2,o),
(496,-7,c),
(514,-7,o),
(515,69,o),
(496,69,cs),
(390,69,o),
(337,108,o),
(337,186,cs),
(337,1127,l),
(353,1127,l),
(1245,0,ls),
(1253,-11,o),
(1267,-21,o),
(1279,-21,cs)
);
}
);
width = 1491;
}
);
metricLeft = B;
unicode = 78;
}
{
glyphname = O;
kernLeft = C;
kernRight = O;
lastChange = "2021-12-12 17:24:53 +0000";
layers = (
{
anchors = (
{
name = bottom;
pos = (731,0);
},
{
name = center;
pos = (713,679);
},
{
name = ogonek;
pos = (966,20);
},
{
name = ogonek_above;
pos = (702,1338);
},
{
name = top;
pos = (731,1358);
},
{
name = topleft;
pos = (20,1358);
},
{
name = topright;
pos = (1251,1258);
},
{
name = zzcurly;
pos = (692,1341);
}
);
hints = (
{
horizontal = 1;
options = 4;
origin = (0,5);
target = (1,5);
type = TTStem;
},
{
horizontal = 1;
options = 4;
origin = (0,11);
target = (1,11);
type = TTStem;
}
);
layerId = master01;
shapes = (
{
closed = 1;
nodes = (
(1097,-27,o),
(1383,286,o),
(1383,679,cs),
(1383,1072,o),
(1097,1385,o),
(737,1385,cs),
(377,1385,o),
(91,1072,o),
(91,679,cs),
(91,286,o),
(377,-27,o),
(737,-27,cs)
);
},
{
closed = 1;
nodes = (
(477,48,o),
(282,319,o),
(282,681,cs),
(282,1043,o),
(477,1314,o),
(737,1314,cs),
(997,1314,o),
(1192,1043,o),
(1192,681,cs),
(1192,319,o),
(997,48,o),
(737,48,cs)
);
}
);
width = 1461;
},
{
anchors = (
{
name = bottom;
pos = (780,0);
},
{
name = center;
pos = (750,679);
},
{
name = ogonek;
pos = (1006,20);
},
{
name = ogonek_above;
pos = (728,1338);
},
{
name = top;
pos = (780,1358);
},
{
name = topleft;
pos = (38,1358);
},
{
name = topright;
pos = (1289,1258);
},
{
name = zzcurly;
pos = (720,1341);
}
);
layerId = "75918100-ED89-42A8-B0FE-888EB9C86810";
shapes = (
{
closed = 1;
nodes = (
(1154,-27,o),
(1448,276,o),
(1448,679,cs),
(1448,1082,o),
(1154,1384,o),
(761,1384,cs),
(368,1384,o),
(73,1082,o),
(73,679,cs),
(73,276,o),
(368,-27,o),
(761,-27,cs)
);
},
{
closed = 1;
nodes = (
(524,68,o),
(346,331,o),
(346,682,cs),
(346,1033,o),
(524,1296,o),
(761,1296,cs),
(998,1296,o),
(1175,1033,o),
(1175,682,cs),
(1175,331,o),
(998,68,o),
(761,68,cs)
);
}
);
width = 1510;
},
{
anchors = (
{
name = bottom;
pos = (718,0);
},
{
name = center;
pos = (704,679);
},
{
name = ogonek;
pos = (950,20);
},
{
name = ogonek_above;
pos = (696,1338);
},
{
name = top;
pos = (718,1358);
},
{
name = topleft;
pos = (17,1358);
},
{
name = topright;
pos = (1241,1258);
},
{
name = zzcurly;
pos = (686,1341);
}
);
layerId = "6ABD9449-5E80-4451-809E-12ADEB9E9AB4";
shapes = (
{
closed = 1;
nodes = (
(1081,-27,o),
(1364,289,o),
(1364,679,cs),
(1364,1069,o),
(1081,1385,o),
(732,1385,cs),
(383,1385,o),
(100,1069,o),
(100,679,cs),
(100,289,o),
(383,-27,o),
(732,-27,cs)
);
},
{
closed = 1;
nodes = (
(464,41,o),
(264,315,o),
(264,681,cs),
(264,1046,o),
(464,1320,o),
(732,1320,cs),
(1000,1320,o),
(1201,1046,o),
(1201,681,cs),
(1201,315,o),
(1000,41,o),
(732,41,cs)
);
}
);
width = 1450;
},
{
anchors = (
{
name = bottom;
pos = (605,0);
},
{
name = center;
pos = (594,679);
},
{
name = ogonek;
pos = (790,20);
},
{
name = ogonek_above;
pos = (581,1338);
},
{
name = top;
pos = (609,1358);
},
{
name = topleft;
pos = (31,1358);
},
{
name = topright;
pos = (1022,1258);
},
{
name = zzcurly;
pos = (576,1341);
}
);
layerId = "70B83247-6FA0-4662-9656-C86DD2A17D3B";
shapes = (
{
closed = 1;
nodes = (
(901,-27,o),
(1135,286,o),
(1135,679,cs),
(1135,1072,o),
(901,1385,o),
(606,1385,cs),
(311,1385,o),
(77,1072,o),
(77,679,cs),
(77,286,o),
(311,-27,o),
(606,-27,cs)
);
},
{
closed = 1;
nodes = (
(408,48,o),
(268,310,o),
(268,681,cs),
(268,1052,o),
(408,1314,o),
(606,1314,cs),
(804,1314,o),
(944,1052,o),
(944,681,cs),
(944,310,o),
(804,48,o),
(606,48,cs)
);
}
);
width = 1201;
},
{
anchors = (
{
name = bottom;
pos = (861,0);
},
{
name = center;
pos = (836,679);
},
{
name = ogonek;
pos = (1130,20);
},
{
name = ogonek_above;
pos = (827,1338);
},
{
name = top;
pos = (857,1358);
},
{
name = topleft;
pos = (13,1358);
},
{
name = topright;
pos = (1484,1258);
},
{
name = zzcurly;
pos = (812,1341);
}
);
layerId = "9E6FDE2E-55A6-44A9-9556-F1822294BF26";
shapes = (
{
closed = 1;
nodes = (
(1297,-27,o),
(1635,286,o),
(1635,679,cs),
(1635,1072,o),
(1297,1385,o),
(872,1385,cs),
(447,1385,o),
(109,1072,o),
(109,679,cs),
(109,286,o),
(447,-27,o),
(872,-27,cs)
);
},
{
closed = 1;
nodes = (
(553,48,o),
(300,328,o),
(300,681,cs),
(300,1034,o),
(553,1314,o),
(872,1314,cs),
(1191,1314,o),
(1444,1034,o),
(1444,681,cs),
(1444,328,o),
(1191,48,o),
(872,48,cs)
);
}
);
width = 1729;
},
{
anchors = (
{
name = bottom;
pos = (731,0);
},
{
name = center;
pos = (713,679);
},
{
name = ogonek;
pos = (962,20);
},
{
name = ogonek_above;
pos = (702,1338);
},
{
name = top;
pos = (731,1358);
},
{
name = topleft;
pos = (20,1358);
},
{
name = topright;
pos = (1251,1258);
},
{
name = zzcurly;
pos = (692,1341);
}
);
layerId = "00F4936D-6309-4DEC-83B3-42806ED1A477";
shapes = (
{
closed = 1;
nodes = (
(1097,-27,o),
(1383,286,o),
(1383,679,cs),
(1383,1072,o),
(1097,1385,o),
(737,1385,cs),
(377,1385,o),
(91,1072,o),
(91,679,cs),
(91,286,o),
(377,-27,o),
(737,-27,cs)
);
},
{
closed = 1;
nodes = (
(477,48,o),
(282,319,o),
(282,681,cs),
(282,1043,o),
(477,1314,o),
(737,1314,cs),
(997,1314,o),
(1192,1043,o),
(1192,681,cs),
(1192,319,o),
(997,48,o),
(737,48,cs)
);
}
);
width = 1461;
}
);
unicode = 79;
}
{
glyphname = P;
kernLeft = B;
kernRight = P;
lastChange = "2021-05-20 21:51:09 +0000";
layers = (
{
anchors = (
{
name = bottom;
pos = (352,0);
},
{
name = center;
pos = (353,343);
},
{
name = top;
pos = (567,1358);
},
{
name = zzcurly;
pos = (462,1341);
}
);
hints = (
{
horizontal = 1;
options = 4;
origin = (0,27);
target = (0,33);
type = TTStem;
},
{
horizontal = 1;
options = 4;
origin = (0,2);
target = (0,40);
type = TTStem;
},
{
horizontal = 1;
options = 4;
origin = (0,40);
target = (0,8);
type = TTShift;
},
{
horizontal = 1;
options = 4;
origin = (0,27);
target = (1,6);
type = TTStem;
},
{
horizontal = 1;
origin = (0,27);
other1 = (0,18);
target = (0,2);
type = TTInterpolate;
},
{
horizontal = 1;
options = 4;
origin = (0,18);
target = (1,12);
type = TTStem;
}
);
layerId = master01;
shapes = (
{
closed = 1;
nodes = (
(179,-2,o),
(267,0,o),
(354,0,cs),
(441,0,o),
(529,-2,o),
(616,-7,c),
(635,-7,o),
(634,69,o),
(616,69,cs),
(492,69,o),
(430,108,o),
(430,186,cs),
(430,574,ls),
(430,595,o),
(440,607,o),
(459,607,c),
(487,604,o),
(534,601,o),
(637,601,cs),
(934,601,o),
(1115,746,o),
(1115,985,cs),
(1115,1214,o),
(930,1363,o),
(643,1363,cs),
(544,1363,o),
(445,1358,o),
(346,1358,cs),
(258,1358,o),
(169,1359,o),
(81,1363,c),
(62,1363,o),
(63,1292,o),
(81,1292,cs),
(207,1292,o),
(270,1254,o),
(270,1177,cs),
(270,186,ls),
(270,108,o),
(211,69,o),
(92,69,c),
(74,68,o),
(74,-7,o),
(92,-7,c)
);
},
{
closed = 1;
nodes = (
(473,663,o),
(430,678,o),
(430,712,cs),
(430,1270,ls),
(430,1292,o),
(462,1301,o),
(536,1301,cs),
(789,1301,o),
(943,1183,o),
(943,989,cs),
(943,772,o),
(819,663,o),
(575,663,cs)
);
}
);
width = 1163;
},
{
anchors = (
{
name = bottom;
pos = (351,0);
},
{
name = center;
pos = (357,343);
},
{
name = top;
pos = (566,1358);
},
{
name = zzcurly;
pos = (512,1341);
}
);
layerId = "75918100-ED89-42A8-B0FE-888EB9C86810";
shapes = (
{
closed = 1;
nodes = (
(173,-2,o),
(268,0,o),
(363,0,cs),
(457,0,o),
(552,-2,o),
(647,-6,c),
(668,-6,o),
(666,86,o),
(647,86,cs),
(535,86,o),
(479,125,o),
(479,203,cs),
(479,575,ls),
(479,597,o),
(491,606,o),
(514,606,c),
(545,603,o),
(591,602,o),
(651,602,cs),
(978,602,o),
(1178,743,o),
(1178,975,cs),
(1178,1206,o),
(966,1364,o),
(657,1364,cs),
(562,1364,o),
(448,1358,o),
(358,1358,cs),
(261,1358,o),
(163,1359,o),
(66,1364,c),
(45,1364,o),
(47,1272,o),
(66,1272,cs),
(179,1272,o),
(236,1234,o),
(236,1161,cs),
(236,203,ls),
(236,125,o),
(183,86,o),
(78,86,cs),
(61,86,o),
(61,-6,o),
(78,-6,c)
);
},
{
closed = 1;
nodes = (
(512,682,o),
(479,694,o),
(479,723,cs),
(479,1253,ls),
(479,1275,o),
(504,1284,o),
(561,1284,cs),
(775,1284,o),
(922,1158,o),
(922,975,cs),
(922,785,o),
(806,682,o),
(590,682,cs)
);
}
);
width = 1210;
},
{
anchors = (
{
name = bottom;
pos = (351,0);
},
{
name = center;
pos = (352,343);
},
{
name = top;
pos = (568,1358);
},
{
name = zzcurly;
pos = (462,1341);
}
);
layerId = "6ABD9449-5E80-4451-809E-12ADEB9E9AB4";
shapes = (
{
closed = 1;
nodes = (
(182,-2,o),
(267,0,o),
(352,0,cs),
(436,0,o),
(521,-2,o),
(606,-7,c),
(625,-7,o),
(624,63,o),
(606,63,cs),
(478,63,o),
(414,102,o),
(414,180,cs),
(414,574,ls),
(414,595,o),
(424,608,o),
(441,608,c),
(468,605,o),
(516,601,o),
(633,601,cs),
(920,601,o),
(1095,748,o),
(1095,989,cs),
(1095,1221,o),
(922,1363,o),
(639,1363,cs),
(539,1363,o),
(440,1358,o),
(340,1358,cs),
(256,1358,o),
(171,1359,o),
(87,1363,c),
(68,1363,o),
(69,1299,o),
(87,1299,cs),
(217,1299,o),
(282,1261,o),
(282,1183,cs),
(282,180,ls),
(282,102,o),
(221,63,o),
(97,63,cs),
(79,63,o),
(79,-7,o),
(97,-7,c)
);
},
{
closed = 1;
nodes = (
(459,657,o),
(414,672,o),
(414,709,cs),
(414,1276,ls),
(414,1297,o),
(448,1307,o),
(528,1307,cs),
(797,1307,o),
(951,1193,o),
(951,994,cs),
(951,770,o),
(823,657,o),
(571,657,cs)
);
}
);
width = 1148;
},
{
anchors = (
{
name = bottom;
pos = (301,0);
},
{
name = center;
pos = (302,343);
},
{
name = top;
pos = (471,1358);
},
{
name = zzcurly;
pos = (412,1341);
}
);
layerId = "70B83247-6FA0-4662-9656-C86DD2A17D3B";
shapes = (
{
closed = 1;
nodes = (
(159,-2,o),
(232,0,o),
(304,0,cs),
(376,0,o),
(449,-2,o),
(521,-7,c),
(536,-7,o),
(535,69,o),
(521,69,cs),
(425,69,o),
(377,108,o),
(377,186,cs),
(377,574,ls),
(377,595,o),
(386,606,o),
(402,606,c),
(427,603,o),
(470,601,o),
(532,601,cs),
(775,601,o),
(929,749,o),
(929,982,cs),
(929,1213,o),
(775,1363,o),
(537,1363,cs),
(457,1363,o),
(378,1358,o),
(298,1358,cs),
(225,1358,o),
(152,1359,o),
(79,1363,c),
(62,1363,o),
(64,1292,o),
(79,1292,cs),
(174,1292,o),
(224,1254,o),
(224,1178,cs),
(224,186,ls),
(224,108,o),
(178,69,o),
(87,69,c),
(74,68,o),
(74,-7,o),
(87,-7,c)
);
},
{
closed = 1;
nodes = (
(409,663,o),
(377,677,o),
(377,710,cs),
(377,1270,ls),
(377,1292,o),
(400,1301,o),
(455,1301,cs),
(644,1301,o),
(766,1177,o),
(766,985,cs),
(766,771,o),
(671,663,o),
(483,663,cs)
);
}
);
width = 967;
},
{
anchors = (
{
name = bottom;
pos = (404,0);
},
{
name = center;
pos = (405,343);
},
{
name = top;
pos = (664,1358);
},
{
name = zzcurly;
pos = (513,1341);
}
);
layerId = "9E6FDE2E-55A6-44A9-9556-F1822294BF26";
shapes = (
{
closed = 1;
nodes = (
(200,-2,o),
(303,0,o),
(405,0,cs),
(507,0,o),
(610,-2,o),
(712,-7,c),
(735,-7,o),
(734,69,o),
(712,69,cs),
(560,69,o),
(484,108,o),
(484,186,cs),
(484,574,ls),
(484,595,o),
(495,608,o),
(517,608,c),
(548,605,o),
(599,601,o),
(743,601,cs),
(1090,601,o),
(1302,748,o),
(1302,988,cs),
(1302,1216,o),
(1085,1363,o),
(750,1363,cs),
(632,1363,o),
(513,1358,o),
(395,1358,cs),
(292,1358,o),
(187,1359,o),
(84,1363,c),
(63,1363,o),
(63,1292,o),
(84,1292,cs),
(241,1292,o),
(317,1254,o),
(317,1176,cs),
(317,186,ls),
(317,108,o),
(245,69,o),
(98,69,cs),
(75,69,o),
(75,-7,o),
(98,-7,c)
);
},
{
closed = 1;
nodes = (
(538,663,o),
(484,679,o),
(484,714,cs),
(484,1270,ls),
(484,1292,o),
(525,1301,o),
(618,1301,cs),
(931,1301,o),
(1121,1184,o),
(1121,993,cs),
(1121,769,o),
(975,663,o),
(668,663,cs)
);
}
);
width = 1360;
},
{
anchors = (
{
name = bottom;
pos = (352,0);
},
{
name = center;
pos = (353,343);
},
{
name = top;
pos = (567,1358);
},
{
name = zzcurly;
pos = (462,1341);
}
);
layerId = "00F4936D-6309-4DEC-83B3-42806ED1A477";
shapes = (
{
closed = 1;
nodes = (
(179,-2,o),
(267,0,o),
(354,0,cs),
(441,0,o),
(529,-2,o),
(616,-7,c),
(635,-7,o),
(634,69,o),
(616,69,cs),
(492,69,o),
(430,108,o),
(430,186,cs),
(430,574,ls),
(430,595,o),
(440,607,o),
(459,607,c),
(487,604,o),
(534,601,o),
(637,601,cs),
(934,601,o),
(1115,746,o),
(1115,985,cs),
(1115,1214,o),
(930,1363,o),
(643,1363,cs),
(544,1363,o),
(445,1358,o),
(346,1358,cs),
(258,1358,o),
(169,1359,o),
(81,1363,c),
(62,1363,o),
(63,1292,o),
(81,1292,cs),
(207,1292,o),
(270,1254,o),
(270,1177,cs),
(270,186,ls),
(270,108,o),
(211,69,o),
(92,69,c),
(74,68,o),
(74,-7,o),
(92,-7,c)
);
},
{
closed = 1;
nodes = (
(473,663,o),
(430,678,o),
(430,712,cs),
(430,1270,ls),
(430,1292,o),
(462,1301,o),
(536,1301,cs),
(789,1301,o),
(943,1183,o),
(943,989,cs),
(943,772,o),
(819,663,o),
(575,663,cs)
);
}
);
width = 1163;
}
);
metricLeft = B;
unicode = 80;
}
{
glyphname = Q;
kernLeft = C;
kernRight = O;
layers = (
{
anchors = (
{
name = bottom;
pos = (759,0);
},
{
name = top;
pos = (740,1358);
},
{
name = zzcurly;
pos = (692,1341);
}
);
hints = (
{
horizontal = 1;
options = 4;
origin = (0,11);
target = (1,5);
type = TTStem;
},
{
horizontal = 1;
options = 4;
origin = (0,20);
stem = -1;
target = (0,2);
type = TTStem;
},
{
horizontal = 1;
origin = (1,11);
stem = -1;
type = TTSnap;
},
{
horizontal = 1;
options = 4;
origin = (0,20);
other1 = (0,5);
target = (1,11);
type = TTInterpolate;
},
{
horizontal = 1;
options = 4;
origin = (0,20);
other1 = (0,17);
target = (1,11);
type = TTInterpolate;
}
);
layerId = master01;
shapes = (
{
closed = 1;
nodes = (
(1660,-364,o),
(1674,-291,o),
(1648,-284,cs),
(1369,-210,o),
(1099,-85,o),
(984,23,c),
(1232,139,o),
(1383,388,o),
(1383,681,cs),
(1383,1078,o),
(1102,1385,o),
(737,1385,cs),
(382,1385,o),
(91,1068,o),
(91,681,cs),
(91,367,o),
(240,123,o),
(501,9,cs),
(887,-159,o),
(1236,-272,o),
(1637,-359,cs)
);
},
{
closed = 1;
nodes = (
(487,47,o),
(282,332,o),
(282,681,cs),
(282,1056,o),
(467,1314,o),
(737,1314,cs),
(1007,1314,o),
(1192,1056,o),
(1192,681,cs),
(1192,314,o),
(1000,47,o),
(737,47,cs)
);
}
);
width = 1474;
},
{
anchors = (
{
name = bottom;
pos = (697,0);
},
{
name = top;
pos = (758,1358);
},
{
name = zzcurly;
pos = (720,1341);
}
);
layerId = "75918100-ED89-42A8-B0FE-888EB9C86810";
shapes = (
{
closed = 1;
nodes = (
(1694,-365,o),
(1727,-269,o),
(1681,-256,cs),
(1440,-186,o),
(1267,-104,o),
(1061,37,c),
(1307,163,o),
(1448,398,o),
(1448,681,cs),
(1448,1068,o),
(1139,1384,o),
(761,1384,cs),
(392,1385,o),
(73,1059,o),
(73,681,cs),
(70,364,o),
(239,107,o),
(518,0,cs),
(1043,-201,o),
(1377,-305,o),
(1658,-358,cs)
);
},
{
closed = 1;
nodes = (
(539,61,o),
(346,348,o),
(346,681,cs),
(346,1063,o),
(503,1296,o),
(761,1297,cs),
(995,1299,o),
(1175,1031,o),
(1175,681,cs),
(1175,291,o),
(1024,66,o),
(761,64,cs)
);
}
);
width = 1506;
},
{
anchors = (
{
name = bottom;
pos = (783,0);
},
{
name = top;
pos = (737,1358);
},
{
name = zzcurly;
pos = (686,1341);
}
);
layerId = "6ABD9449-5E80-4451-809E-12ADEB9E9AB4";
shapes = (
{
closed = 1;
nodes = (
(1652,-364,o),
(1659,-298,o),
(1640,-293,cs),
(1348,-218,o),
(1046,-79,o),
(961,18,c),
(1210,131,o),
(1364,385,o),
(1364,681,cs),
(1364,1081,o),
(1093,1385,o),
(732,1385,cs),
(382,1385,o),
(100,1071,o),
(100,681,cs),
(101,368,o),
(243,128,o),
(498,12,cs),
(838,-145,o),
(1192,-261,o),
(1633,-359,cs)
);
},
{
closed = 1;
nodes = (
(473,42,o),
(264,327,o),
(264,681,cs),
(264,1054,o),
(458,1320,o),
(732,1320,cs),
(1014,1319,o),
(1201,1064,o),
(1201,681,cs),
(1201,322,o),
(995,41,o),
(732,41,cs)
);
}
);
width = 1466;
},
{
anchors = (
{
name = bottom;
pos = (601,0);
},
{
name = top;
pos = (607,1358);
},
{
name = zzcurly;
pos = (576,1341);
}
);
layerId = "70B83247-6FA0-4662-9656-C86DD2A17D3B";
shapes = (
{
closed = 1;
nodes = (
(1350,-365,o),
(1365,-285,o),
(1336,-275,cs),
(1138,-208,o),
(926,-84,o),
(815,28,c),
(1009,136,o),
(1135,393,o),
(1135,681,cs),
(1135,1068,o),
(898,1385,o),
(608,1385,cs),
(316,1385,o),
(77,1068,o),
(77,681,cs),
(77,368,o),
(205,113,o),
(415,7,cs),
(760,-167,o),
(1066,-289,o),
(1326,-359,cs)
);
},
{
closed = 1;
nodes = (
(411,47,o),
(268,305,o),
(268,681,cs),
(268,1056,o),
(406,1314,o),
(606,1314,cs),
(811,1314,o),
(944,1065,o),
(944,681,cs),
(944,305,o),
(811,47,o),
(618,47,cs)
);
}
);
width = 1198;
},
{
anchors = (
{
name = bottom;
pos = (921,0);
},
{
name = top;
pos = (877,1358);
},
{
name = zzcurly;
pos = (812,1341);
}
);
layerId = "9E6FDE2E-55A6-44A9-9556-F1822294BF26";
shapes = (
{
closed = 1;
nodes = (
(1974,-363,o),
(1987,-297,o),
(1964,-293,cs),
(1604,-212,o),
(1276,-86,o),
(1157,18,c),
(1459,142,o),
(1635,383,o),
(1635,681,cs),
(1635,1088,o),
(1310,1385,o),
(870,1385,cs),
(452,1385,o),
(109,1068,o),
(109,681,cs),
(109,366,o),
(279,133,o),
(591,11,cs),
(1018,-151,o),
(1410,-255,o),
(1952,-359,cs)
);
},
{
closed = 1;
nodes = (
(567,47,o),
(300,359,o),
(300,681,cs),
(300,1056,o),
(532,1314,o),
(872,1314,cs),
(1207,1314,o),
(1444,1047,o),
(1444,681,cs),
(1444,323,o),
(1193,47,o),
(860,47,cs)
);
}
);
width = 1754;
},
{
anchors = (
{
name = bottom;
pos = (759,0);
},
{
name = top;
pos = (740,1358);
},
{
name = zzcurly;
pos = (692,1341);
}
);
layerId = "00F4936D-6309-4DEC-83B3-42806ED1A477";
shapes = (
{
closed = 1;
nodes = (
(1660,-364,o),
(1674,-291,o),
(1648,-284,cs),
(1369,-210,o),
(1099,-85,o),
(984,23,c),
(1232,139,o),
(1383,388,o),
(1383,681,cs),
(1383,1078,o),
(1102,1385,o),
(737,1385,cs),
(382,1385,o),
(91,1068,o),
(91,681,cs),
(91,367,o),
(240,123,o),
(501,9,cs),
(887,-159,o),
(1236,-272,o),
(1637,-359,cs)
);
},
{
closed = 1;
nodes = (
(487,47,o),
(282,332,o),
(282,681,cs),
(282,1056,o),
(467,1314,o),
(737,1314,cs),
(1007,1314,o),
(1192,1056,o),
(1192,681,cs),
(1192,314,o),
(1000,47,o),
(737,47,cs)
);
}
);
width = 1474;
}
);
metricLeft = O;
unicode = 81;
}
{
glyphname = R;
kernLeft = B;
kernRight = R;
lastChange = "2021-05-20 21:51:09 +0000";
layers = (
{
anchors = (
{
name = bottom;
pos = (680,0);
},
{
name = top;
pos = (604,1358);
},
{
name = zzcurly;
pos = (462,1341);
}
);
hints = (
{
horizontal = 1;
options = 4;
origin = (0,23);
target = (0,29);
type = TTStem;
},
{
horizontal = 1;
options = 4;
origin = (0,23);
target = (1,6);
type = TTStem;
},
{
horizontal = 1;
options = 4;
origin = (0,42);
target = (0,48);
type = TTStem;
},
{
horizontal = 1;
options = 4;
origin = (0,42);
target = (0,59);
type = TTShift;
},
{
horizontal = 1;
options = 4;
origin = (0,48);
target = (0,36);
type = TTShift;
},
{
horizontal = 1;
origin = (0,23);
other1 = (0,53);
target = (0,42);
type = TTInterpolate;
},
{
horizontal = 1;
options = 4;
origin = (0,53);
target = (1,12);
type = TTStem;
},
{
horizontal = 1;
options = 4;
origin = (0,53);
other1 = (0,14);
target = (1,12);
type = TTInterpolate;
}
);
layerId = master01;
shapes = (
{
closed = 1;
nodes = (
(1364,-25,o),
(1386,-24,o),
(1414,-21,cs),
(1423,-20,o),
(1428,-14,o),
(1428,-3,cs),
(1428,9,o),
(1423,15,o),
(1414,15,cs),
(1354,15,o),
(1267,72,o),
(1168,179,cs),
(1015,345,o),
(884,528,o),
(845,630,c),
(1038,672,o),
(1136,792,o),
(1136,987,cs),
(1136,1226,o),
(957,1363,o),
(644,1363,cs),
(545,1363,o),
(445,1358,o),
(346,1358,cs),
(258,1358,o),
(170,1359,o),
(82,1363,c),
(63,1363,o),
(62,1287,o),
(82,1287,cs),
(208,1287,o),
(271,1250,o),
(271,1177,cs),
(271,186,ls),
(271,108,o),
(211,69,o),
(91,69,cs),
(73,69,o),
(72,-7,o),
(91,-7,c),
(180,-2,o),
(269,0,o),
(358,0,cs),
(447,0,o),
(536,-2,o),
(625,-7,c),
(643,-7,o),
(644,69,o),
(625,69,cs),
(496,69,o),
(431,108,o),
(431,186,cs),
(431,596,l),
(562,596,ls),
(629,596,o),
(660,564,o),
(828,329,cs),
(1020,61,o),
(1146,-25,o),
(1347,-25,cs)
);
},
{
closed = 1;
nodes = (
(474,658,o),
(431,671,o),
(431,703,cs),
(431,1251,ls),
(431,1286,o),
(472,1301,o),
(567,1301,cs),
(802,1301,o),
(963,1173,o),
(963,987,cs),
(963,768,o),
(833,658,o),
(576,658,cs)
);
}
);
width = 1405;
},
{
anchors = (
{
name = bottom;
pos = (660,0);
},
{
name = top;
pos = (604,1358);
},
{
name = zzcurly;
pos = (512,1341);
}
);
layerId = "75918100-ED89-42A8-B0FE-888EB9C86810";
shapes = (
{
closed = 1;
nodes = (
(1370,-25,o),
(1401,-24,o),
(1432,-20,cs),
(1447,-18,o),
(1457,-10,o),
(1457,16,cs),
(1457,33,o),
(1448,42,o),
(1430,45,cs),
(1372,56,o),
(1312,95,o),
(1223,188,cs),
(1110,306,o),
(984,478,o),
(902,625,c),
(1108,678,o),
(1212,794,o),
(1212,972,cs),
(1212,1217,o),
(1004,1364,o),
(659,1364,cs),
(559,1364,o),
(460,1358,o),
(360,1358,cs),
(262,1358,o),
(164,1359,o),
(66,1364,c),
(45,1365,o),
(47,1272,o),
(66,1272,cs),
(181,1272,o),
(238,1234,o),
(238,1161,cs),
(238,203,ls),
(238,125,o),
(184,86,o),
(76,86,cs),
(55,86,o),
(55,-6,o),
(76,-6,c),
(170,-2,o),
(263,0,o),
(357,0,cs),
(450,0,o),
(544,-2,o),
(637,-6,c),
(655,-6,o),
(656,86,o),
(637,86,cs),
(533,86,o),
(481,125,o),
(481,203,cs),
(481,588,l),
(567,588,ls),
(624,588,o),
(650,560,o),
(813,329,cs),
(997,66,o),
(1132,-25,o),
(1339,-25,cs)
);
},
{
closed = 1;
nodes = (
(514,666,o),
(481,679,o),
(481,711,cs),
(481,1234,ls),
(481,1269,o),
(506,1284,o),
(563,1284,cs),
(797,1284,o),
(958,1157,o),
(958,972,cs),
(958,773,o),
(830,666,o),
(592,666,cs)
);
}
);
width = 1419;
},
{
anchors = (
{
name = bottom;
pos = (687,0);
},
{
name = top;
pos = (604,1358);
},
{
name = zzcurly;
pos = (462,1341);
}
);
layerId = "6ABD9449-5E80-4451-809E-12ADEB9E9AB4";
shapes = (
{
closed = 1;
nodes = (
(1362,-25,o),
(1381,-24,o),
(1408,-21,cs),
(1415,-21,o),
(1418,-15,o),
(1418,-9,cs),
(1418,1,o),
(1415,5,o),
(1409,5,cs),
(1344,5,o),
(1253,65,o),
(1150,176,cs),
(989,347,o),
(855,533,o),
(821,631,c),
(1014,667,o),
(1111,788,o),
(1111,992,cs),
(1111,1228,o),
(939,1364,o),
(639,1364,cs),
(540,1364,o),
(440,1358,o),
(341,1358,cs),
(256,1358,o),
(172,1359,o),
(87,1364,c),
(69,1364,o),
(67,1293,o),
(87,1293,cs),
(217,1293,o),
(282,1257,o),
(282,1184,cs),
(282,180,ls),
(282,102,o),
(220,63,o),
(96,63,cs),
(79,63,o),
(78,-7,o),
(96,-7,c),
(184,-2,o),
(271,0,o),
(359,0,cs),
(446,0,o),
(534,-2,o),
(621,-7,c),
(639,-7,o),
(640,63,o),
(621,63,cs),
(484,63,o),
(414,102,o),
(414,180,cs),
(414,599,l),
(560,599,ls),
(661,599,o),
(675,586,o),
(814,368,cs),
(995,82,o),
(1141,-25,o),
(1350,-25,cs)
);
},
{
closed = 1;
nodes = (
(461,655,o),
(414,668,o),
(414,700,cs),
(414,1258,ls),
(414,1293,o),
(460,1308,o),
(568,1308,cs),
(809,1308,o),
(965,1184,o),
(965,992,cs),
(965,768,o),
(833,655,o),
(571,655,cs)
);
}
);
width = 1400;
},
{
anchors = (
{
name = bottom;
pos = (556,0);
},
{
name = top;
pos = (501,1358);
},
{
name = zzcurly;
pos = (412,1341);
}
);
guides = (
{
angle = 180;
pos = (1237,-25);
},
{
angle = 180;
pos = (1387,15);
}
);
layerId = "70B83247-6FA0-4662-9656-C86DD2A17D3B";
shapes = (
{
closed = 1;
nodes = (
(1113,-25,o),
(1142,-23,o),
(1154,-22,cs),
(1162,-21,o),
(1169,-15,o),
(1169,-2,cs),
(1169,9,o),
(1163,15,o),
(1153,15,cs),
(1113,15,o),
(1048,75,o),
(967,185,cs),
(866,321,o),
(760,501,o),
(707,628,c),
(868,672,o),
(950,791,o),
(950,983,cs),
(950,1225,o),
(800,1363,o),
(537,1363,cs),
(458,1363,o),
(378,1358,o),
(299,1358,cs),
(226,1358,o),
(152,1359,o),
(79,1363,c),
(62,1363,o),
(63,1287,o),
(79,1287,cs),
(175,1287,o),
(225,1250,o),
(225,1177,cs),
(225,186,ls),
(225,108,o),
(178,69,o),
(86,69,cs),
(70,69,o),
(71,-7,o),
(86,-7,c),
(159,-3,o),
(231,0,o),
(304,0,cs),
(376,0,o),
(449,-2,o),
(521,-7,c),
(535,-7,o),
(536,69,o),
(521,69,cs),
(426,69,o),
(378,108,o),
(378,186,cs),
(378,596,l),
(469,596,ls),
(510,596,o),
(522,581,o),
(671,330,cs),
(837,51,o),
(927,-25,o),
(1093,-25,cs)
);
},
{
closed = 1;
nodes = (
(410,658,o),
(378,671,o),
(378,703,cs),
(378,1251,ls),
(378,1286,o),
(406,1301,o),
(471,1301,cs),
(658,1301,o),
(786,1172,o),
(786,983,cs),
(786,767,o),
(685,658,o),
(484,658,cs)
);
}
);
width = 1151;
},
{
anchors = (
{
name = bottom;
pos = (804,0);
},
{
name = top;
pos = (707,1358);
},
{
name = zzcurly;
pos = (512,1341);
}
);
guides = (
{
angle = 180;
pos = (1237,-25);
},
{
angle = 180;
pos = (1387,15);
}
);
layerId = "9E6FDE2E-55A6-44A9-9556-F1822294BF26";
shapes = (
{
closed = 1;
nodes = (
(1615,-25,o),
(1630,-25,o),
(1674,-20,cs),
(1684,-19,o),
(1687,-12,o),
(1687,-4,cs),
(1687,9,o),
(1683,15,o),
(1675,15,cs),
(1591,15,o),
(1484,70,o),
(1369,173,cs),
(1237,291,o),
(1023,514,o),
(983,632,c),
(1208,672,o),
(1322,793,o),
(1322,991,cs),
(1322,1228,o),
(1115,1363,o),
(751,1363,cs),
(632,1363,o),
(512,1358,o),
(393,1358,cs),
(290,1358,o),
(188,1359,o),
(85,1363,c),
(64,1363,o),
(61,1287,o),
(85,1287,cs),
(241,1287,o),
(317,1250,o),
(317,1177,cs),
(317,186,ls),
(317,108,o),
(244,69,o),
(96,69,cs),
(76,69,o),
(73,-7,o),
(96,-7,c),
(201,-1,o),
(307,0,o),
(412,0,cs),
(518,0,o),
(623,-2,o),
(729,-7,c),
(751,-7,o),
(752,69,o),
(729,69,cs),
(566,69,o),
(484,108,o),
(484,186,cs),
(484,596,l),
(655,596,ls),
(763,596,o),
(780,582,o),
(964,359,cs),
(1204,68,o),
(1359,-25,o),
(1601,-25,cs)
);
},
{
closed = 1;
nodes = (
(538,658,o),
(484,671,o),
(484,703,cs),
(484,1251,ls),
(484,1286,o),
(538,1301,o),
(663,1301,cs),
(946,1301,o),
(1140,1175,o),
(1140,991,cs),
(1140,770,o),
(982,658,o),
(668,658,cs)
);
}
);
width = 1659;
},
{
anchors = (
{
name = bottom;
pos = (680,0);
},
{
name = top;
pos = (604,1358);
},
{
name = zzcurly;
pos = (462,1341);
}
);
layerId = "00F4936D-6309-4DEC-83B3-42806ED1A477";
shapes = (
{
closed = 1;
nodes = (
(1364,-25,o),
(1386,-24,o),
(1414,-21,cs),
(1423,-20,o),
(1428,-14,o),
(1428,-3,cs),
(1428,9,o),
(1423,15,o),
(1414,15,cs),
(1354,15,o),
(1267,72,o),
(1168,179,cs),
(1015,345,o),
(884,528,o),
(845,630,c),
(1038,672,o),
(1136,792,o),
(1136,987,cs),
(1136,1226,o),
(957,1363,o),
(644,1363,cs),
(545,1363,o),
(445,1358,o),
(346,1358,cs),
(258,1358,o),
(170,1359,o),
(82,1363,c),
(63,1363,o),
(62,1287,o),
(82,1287,cs),
(208,1287,o),
(271,1250,o),
(271,1177,cs),
(271,186,ls),
(271,108,o),
(211,69,o),
(91,69,cs),
(73,69,o),
(72,-7,o),
(91,-7,c),
(180,-2,o),
(269,0,o),
(358,0,cs),
(447,0,o),
(536,-2,o),
(625,-7,c),
(643,-7,o),
(644,69,o),
(625,69,cs),
(496,69,o),
(431,108,o),
(431,186,cs),
(431,596,l),
(562,596,ls),
(629,596,o),
(660,564,o),
(828,329,cs),
(1020,61,o),
(1146,-25,o),
(1347,-25,cs)
);
},
{
closed = 1;
nodes = (
(474,658,o),
(431,671,o),
(431,703,cs),
(431,1251,ls),
(431,1286,o),
(472,1301,o),
(567,1301,cs),
(802,1301,o),
(963,1173,o),
(963,987,cs),
(963,768,o),
(833,658,o),
(576,658,cs)
);
}
);
width = 1405;
}
);
metricLeft = B;
unicode = 82;
}
{
glyphname = S;
kernLeft = S;
kernRight = S;
lastChange = "2021-05-20 21:51:09 +0000";
layers = (
{
anchors = (
{
name = bottom;
pos = (537,0);
},
{
name = cedilla;
pos = (549,0);
},
{
name = top;
pos = (541,1358);
},
{
name = zzcurly;
pos = (490,1341);
}
);
hints = (
{
horizontal = 1;
options = 4;
origin = (0,23);
target = (0,11);
type = TTStem;
},
{
horizontal = 1;
options = 4;
origin = (0,50);
target = (0,35);
type = TTStem;
}
);
layerId = master01;
shapes = (
{
closed = 1;
nodes = (
(794,-27,o),
(944,125,o),
(944,374,cs),
(944,602,o),
(821,741,o),
(572,802,cs),
(377,850,o),
(277,939,o),
(277,1086,cs),
(277,1222,o),
(365,1318,o),
(529,1318,cs),
(704,1318,o),
(806,1200,o),
(800,1066,cs),
(799,1043,o),
(862,1031,o),
(868,1054,cs),
(885,1124,o),
(898,1197,o),
(898,1278,c),
(805,1351,o),
(688,1385,o),
(556,1385,cs),
(304,1385,o),
(137,1254,o),
(137,1022,cs),
(137,812,o),
(277,677,o),
(542,600,cs),
(718,549,o),
(806,435,o),
(806,306,cs),
(806,144,o),
(681,48,o),
(527,48,cs),
(350,48,o),
(217,183,o),
(217,372,cs),
(217,387,o),
(218,403,o),
(220,418,cs),
(223,437,o),
(151,449,o),
(146,431,cs),
(118,342,o),
(94,256,o),
(89,167,c),
(163,41,o),
(304,-27,o),
(500,-27,cs)
);
}
);
width = 1042;
},
{
anchors = (
{
name = bottom;
pos = (537,0);
},
{
name = cedilla;
pos = (549,0);
},
{
name = top;
pos = (543,1358);
},
{
name = zzcurly;
pos = (502,1341);
}
);
layerId = "75918100-ED89-42A8-B0FE-888EB9C86810";
shapes = (
{
closed = 1;
nodes = (
(818,-27,o),
(981,143,o),
(981,384,cs),
(981,608,o),
(840,757,o),
(596,825,cs),
(396,881,o),
(311,968,o),
(311,1093,cs),
(311,1211,o),
(385,1300,o),
(533,1300,cs),
(688,1300,o),
(796,1197,o),
(791,1052,cs),
(790,1030,o),
(891,1017,o),
(896,1036,cs),
(917,1125,o),
(929,1196,o),
(929,1278,c),
(832,1351,o),
(704,1384,o),
(565,1384,cs),
(291,1384,o),
(104,1260,o),
(104,1025,cs),
(104,798,o),
(242,665,o),
(484,589,cs),
(681,527,o),
(770,433,o),
(770,303,cs),
(770,161,o),
(664,68,o),
(534,68,cs),
(357,68,o),
(224,214,o),
(224,386,cs),
(224,403,o),
(226,421,o),
(230,438,cs),
(234,457,o),
(127,478,o),
(119,459,cs),
(83,373,o),
(62,278,o),
(56,165,c),
(153,33,o),
(322,-27,o),
(508,-27,cs)
);
}
);
width = 1075;
},
{
anchors = (
{
name = bottom;
pos = (537,0);
},
{
name = cedilla;
pos = (549,0);
},
{
name = top;
pos = (540,1358);
},
{
name = zzcurly;
pos = (486,1341);
}
);
layerId = "6ABD9449-5E80-4451-809E-12ADEB9E9AB4";
shapes = (
{
closed = 1;
nodes = (
(786,-27,o),
(932,121,o),
(932,373,cs),
(932,602,o),
(815,736,o),
(564,794,cs),
(370,839,o),
(266,931,o),
(266,1083,cs),
(266,1227,o),
(358,1324,o),
(528,1324,cs),
(712,1324,o),
(809,1201,o),
(803,1071,cs),
(802,1047,o),
(852,1036,o),
(859,1060,cs),
(874,1124,o),
(888,1197,o),
(888,1278,c),
(796,1351,o),
(683,1385,o),
(553,1385,cs),
(308,1385,o),
(148,1255,o),
(148,1020,cs),
(148,819,o),
(289,681,o),
(561,604,cs),
(730,556,o),
(818,457,o),
(818,318,cs),
(818,149,o),
(687,41,o),
(525,41,cs),
(348,41,o),
(215,173,o),
(215,367,cs),
(215,382,o),
(215,397,o),
(217,411,cs),
(219,430,o),
(159,439,o),
(155,422,cs),
(130,332,o),
(105,249,o),
(100,168,c),
(166,44,o),
(298,-27,o),
(497,-27,cs)
);
}
);
width = 1031;
},
{
anchors = (
{
name = bottom;
pos = (461,0);
},
{
name = cedilla;
pos = (468,0);
},
{
name = top;
pos = (466,1358);
},
{
name = zzcurly;
pos = (423,1341);
}
);
layerId = "70B83247-6FA0-4662-9656-C86DD2A17D3B";
shapes = (
{
closed = 1;
nodes = (
(698,-27,o),
(831,125,o),
(831,372,cs),
(831,601,o),
(718,736,o),
(509,808,cs),
(341,866,o),
(256,948,o),
(256,1088,cs),
(256,1220,o),
(328,1313,o),
(465,1313,cs),
(613,1313,o),
(699,1199,o),
(694,1063,cs),
(693,1040,o),
(759,1025,o),
(764,1051,cs),
(779,1124,o),
(790,1199,o),
(790,1278,c),
(709,1351,o),
(604,1385,o),
(490,1385,cs),
(266,1385,o),
(117,1257,o),
(117,1022,cs),
(117,811,o),
(242,685,o),
(458,597,cs),
(615,533,o),
(692,447,o),
(692,311,cs),
(692,155,o),
(588,54,o),
(462,54,cs),
(315,54,o),
(205,192,o),
(205,375,cs),
(205,389,o),
(207,409,o),
(209,423,cs),
(212,442,o),
(131,456,o),
(126,438,cs),
(100,352,o),
(80,262,o),
(76,166,c),
(146,39,o),
(274,-27,o),
(441,-27,cs)
);
}
);
width = 920;
},
{
anchors = (
{
name = bottom;
pos = (571,0);
},
{
name = cedilla;
pos = (588,0);
},
{
name = top;
pos = (598,1358);
},
{
name = zzcurly;
pos = (559,1341);
}
);
layerId = "9E6FDE2E-55A6-44A9-9556-F1822294BF26";
shapes = (
{
closed = 1;
nodes = (
(890,-27,o),
(1057,139,o),
(1057,390,cs),
(1057,617,o),
(924,746,o),
(635,796,cs),
(413,833,o),
(298,925,o),
(298,1079,cs),
(298,1219,o),
(402,1323,o),
(593,1323,cs),
(795,1323,o),
(913,1201,o),
(906,1069,cs),
(905,1046,o),
(965,1037,o),
(972,1057,cs),
(991,1124,o),
(1006,1195,o),
(1006,1278,c),
(901,1351,o),
(772,1385,o),
(622,1385,cs),
(342,1385,o),
(157,1255,o),
(157,1020,cs),
(157,817,o),
(313,666,o),
(626,603,cs),
(821,565,o),
(920,455,o),
(920,317,cs),
(920,149,o),
(770,42,o),
(587,42,cs),
(381,42,o),
(229,174,o),
(229,368,cs),
(229,380,o),
(229,394,o),
(231,412,cs),
(234,431,o),
(171,443,o),
(166,424,cs),
(136,332,o),
(108,250,o),
(102,168,c),
(180,43,o),
(334,-27,o),
(559,-27,cs)
);
}
);
width = 1164;
},
{
anchors = (
{
name = bottom;
pos = (537,0);
},
{
name = cedilla;
pos = (549,0);
},
{
name = top;
pos = (541,1358);
},
{
name = zzcurly;
pos = (490,1341);
}
);
layerId = "00F4936D-6309-4DEC-83B3-42806ED1A477";
shapes = (
{
closed = 1;
nodes = (
(794,-27,o),
(944,125,o),
(944,374,cs),
(944,602,o),
(821,741,o),
(572,802,cs),
(377,850,o),
(277,939,o),
(277,1086,cs),
(277,1222,o),
(365,1318,o),
(529,1318,cs),
(704,1318,o),
(806,1200,o),
(800,1066,cs),
(799,1043,o),
(862,1031,o),
(868,1054,cs),
(885,1124,o),
(898,1197,o),
(898,1278,c),
(805,1351,o),
(688,1385,o),
(556,1385,cs),
(304,1385,o),
(137,1254,o),
(137,1022,cs),
(137,812,o),
(277,677,o),
(542,600,cs),
(718,549,o),
(806,435,o),
(806,306,cs),
(806,144,o),
(681,48,o),
(527,48,cs),
(350,48,o),
(217,183,o),
(217,372,cs),
(217,387,o),
(218,403,o),
(220,418,cs),
(223,437,o),
(151,449,o),
(146,431,cs),
(118,342,o),
(94,256,o),
(89,167,c),
(163,41,o),
(304,-27,o),
(500,-27,cs)
);
}
);
width = 1042;
}
);
unicode = 83;
}
{
glyphname = T;
kernLeft = T;
kernRight = T;
lastChange = "2021-05-20 21:51:09 +0000";
layers = (
{
anchors = (
{
name = bottom;
pos = (661,0);
},
{
name = cedilla;
pos = (647,0);
},
{
name = center;
pos = (661,579);
},
{
name = ogonek;
pos = (735,10);
},
{
name = top;
pos = (661,1358);
},
{
name = zzcurly;
pos = (562,1341);
}
);
hints = (
{
horizontal = 1;
options = 4;
origin = (0,26);
target = (0,39);
type = TTStem;
},
{
horizontal = 1;
options = 4;
origin = (0,39);
target = (0,13);
type = TTShift;
},
{
horizontal = 1;
options = 4;
origin = (0,2);
target = (0,44);
type = TTStem;
},
{
horizontal = 1;
options = 4;
origin = (0,44);
target = (0,8);
type = TTShift;
}
);
layerId = master01;
shapes = (
{
closed = 1;
nodes = (
(469,-2,o),
(560,0,o),
(651,0,cs),
(742,0,o),
(833,-2,o),
(924,-7,c),
(944,-7,o),
(943,69,o),
(924,69,cs),
(798,69,o),
(735,108,o),
(735,186,cs),
(735,1287,l),
(948,1287,ls),
(1123,1287,o),
(1210,1195,o),
(1210,1011,cs),
(1210,991,o),
(1286,992,o),
(1286,1011,cs),
(1286,1330,ls),
(1286,1353,o),
(1263,1363,o),
(1208,1363,cs),
(1024,1363,o),
(839,1358,o),
(655,1358,cs),
(474,1358,o),
(293,1363,o),
(112,1363,cs),
(57,1363,o),
(34,1353,o),
(34,1330,cs),
(34,1011,ls),
(34,991,o),
(110,992,o),
(110,1011,cs),
(110,1195,o),
(198,1287,o),
(375,1287,cs),
(575,1287,l),
(575,186,ls),
(575,108,o),
(509,69,o),
(378,69,cs),
(358,69,o),
(359,-7,o),
(378,-7,c)
);
}
);
width = 1321;
},
{
anchors = (
{
name = bottom;
pos = (636,0);
},
{
name = cedilla;
pos = (637,0);
},
{
name = center;
pos = (661,579);
},
{
name = ogonek;
pos = (770,10);
},
{
name = top;
pos = (666,1358);
},
{
name = zzcurly;
pos = (552,1341);
}
);
layerId = "75918100-ED89-42A8-B0FE-888EB9C86810";
shapes = (
{
closed = 1;
nodes = (
(447,-2,o),
(547,0,o),
(646,0,cs),
(745,0,o),
(845,-2,o),
(944,-6,c),
(961,-6,o),
(961,86,o),
(944,86,cs),
(829,86,o),
(772,125,o),
(772,203,cs),
(772,1272,l),
(934,1272,ls),
(1057,1272,o),
(1165,1166,o),
(1165,1014,cs),
(1165,991,o),
(1268,991,o),
(1268,1014,cs),
(1268,1313,ls),
(1268,1349,o),
(1237,1364,o),
(1163,1364,cs),
(990,1364,o),
(816,1358,o),
(643,1358,cs),
(478,1358,o),
(312,1364,o),
(147,1364,cs),
(69,1364,o),
(35,1349,o),
(35,1313,cs),
(35,1014,ls),
(35,991,o),
(135,991,o),
(135,1014,cs),
(135,1153,o),
(233,1272,o),
(358,1272,cs),
(528,1272,l),
(528,203,ls),
(528,125,o),
(468,86,o),
(348,86,cs),
(331,86,o),
(328,-6,o),
(348,-6,c)
);
}
);
width = 1298;
},
{
anchors = (
{
name = bottom;
pos = (669,0);
},
{
name = cedilla;
pos = (650,0);
},
{
name = center;
pos = (661,579);
},
{
name = ogonek;
pos = (730,10);
},
{
name = top;
pos = (659,1358);
},
{
name = zzcurly;
pos = (562,1341);
}
);
layerId = "6ABD9449-5E80-4451-809E-12ADEB9E9AB4";
shapes = (
{
closed = 1;
nodes = (
(477,0,o),
(566,0,o),
(654,0,cs),
(742,0,o),
(831,0,o),
(919,-7,c),
(940,-7,o),
(938,63,o),
(919,63,cs),
(789,63,o),
(724,102,o),
(724,180,cs),
(724,1292,l),
(954,1292,ls),
(1146,1292,o),
(1226,1205,o),
(1226,1010,cs),
(1226,991,o),
(1293,993,o),
(1293,1010,cs),
(1293,1336,ls),
(1293,1355,o),
(1272,1363,o),
(1224,1363,cs),
(1036,1363,o),
(848,1358,o),
(660,1358,cs),
(474,1358,o),
(288,1364,o),
(102,1363,cs),
(55,1362,o),
(35,1354,o),
(35,1336,cs),
(35,1010,ls),
(35,991,o),
(103,993,o),
(103,1010,cs),
(103,1209,o),
(188,1292,o),
(382,1292,cs),
(592,1292,l),
(592,180,ls),
(592,102,o),
(524,63,o),
(389,63,cs),
(368,63,o),
(371,-7,o),
(389,-7,c)
);
}
);
width = 1329;
},
{
anchors = (
{
name = bottom;
pos = (529,0);
},
{
name = cedilla;
pos = (515,0);
},
{
name = center;
pos = (521,579);
},
{
name = ogonek;
pos = (598,10);
},
{
name = top;
pos = (530,1358);
},
{
name = zzcurly;
pos = (442,1341);
}
);
layerId = "70B83247-6FA0-4662-9656-C86DD2A17D3B";
shapes = (
{
closed = 1;
nodes = (
(368,-2,o),
(444,0,o),
(519,0,cs),
(594,0,o),
(670,-2,o),
(745,-7,c),
(759,-7,o),
(759,69,o),
(745,69,cs),
(648,69,o),
(599,108,o),
(599,186,cs),
(599,1287,l),
(754,1287,ls),
(878,1287,o),
(954,1188,o),
(954,1012,cs),
(954,991,o),
(1023,992,o),
(1023,1012,cs),
(1023,1325,ls),
(1023,1352,o),
(1002,1363,o),
(952,1363,cs),
(808,1363,o),
(664,1358,o),
(520,1358,cs),
(380,1358,o),
(240,1363,o),
(100,1363,cs),
(49,1363,o),
(27,1352,o),
(27,1325,cs),
(27,1012,ls),
(27,991,o),
(95,992,o),
(95,1012,cs),
(95,1184,o),
(168,1287,o),
(295,1287,cs),
(446,1287,l),
(446,186,ls),
(446,108,o),
(394,69,o),
(293,69,cs),
(278,69,o),
(278,-7,o),
(293,-7,c)
);
}
);
width = 1051;
},
{
anchors = (
{
name = bottom;
pos = (793,0);
},
{
name = cedilla;
pos = (779,0);
},
{
name = center;
pos = (801,579);
},
{
name = ogonek;
pos = (872,10);
},
{
name = top;
pos = (792,1358);
},
{
name = zzcurly;
pos = (682,1341);
}
);
layerId = "9E6FDE2E-55A6-44A9-9556-F1822294BF26";
shapes = (
{
closed = 1;
nodes = (
(570,-2,o),
(676,0,o),
(783,0,cs),
(890,0,o),
(996,-2,o),
(1103,-7,c),
(1129,-7,o),
(1127,69,o),
(1103,69,cs),
(948,69,o),
(871,108,o),
(871,186,cs),
(871,1287,l),
(1142,1287,ls),
(1368,1287,o),
(1466,1202,o),
(1466,1010,cs),
(1466,991,o),
(1549,992,o),
(1549,1010,cs),
(1549,1335,ls),
(1549,1354,o),
(1524,1363,o),
(1464,1363,cs),
(1240,1363,o),
(1014,1358,o),
(790,1358,cs),
(568,1358,o),
(346,1363,o),
(124,1363,cs),
(65,1363,o),
(41,1354,o),
(41,1335,cs),
(41,1010,ls),
(41,991,o),
(125,992,o),
(125,1010,cs),
(125,1206,o),
(228,1287,o),
(455,1287,cs),
(704,1287,l),
(704,186,ls),
(704,108,o),
(624,69,o),
(463,69,cs),
(438,69,o),
(440,-7,o),
(463,-7,c)
);
}
);
width = 1591;
},
{
anchors = (
{
name = bottom;
pos = (661,0);
},
{
name = cedilla;
pos = (647,0);
},
{
name = center;
pos = (661,579);
},
{
name = ogonek;
pos = (735,10);
},
{
name = top;
pos = (661,1358);
},
{
name = zzcurly;
pos = (562,1341);
}
);
layerId = "00F4936D-6309-4DEC-83B3-42806ED1A477";
shapes = (
{
closed = 1;
nodes = (
(469,-2,o),
(560,0,o),
(651,0,cs),
(742,0,o),
(833,-2,o),
(924,-7,c),
(944,-7,o),
(943,69,o),
(924,69,cs),
(798,69,o),
(735,108,o),
(735,186,cs),
(735,1287,l),
(948,1287,ls),
(1123,1287,o),
(1210,1195,o),
(1210,1011,cs),
(1210,991,o),
(1286,992,o),
(1286,1011,cs),
(1286,1330,ls),
(1286,1353,o),
(1263,1363,o),
(1208,1363,cs),
(1024,1363,o),
(839,1358,o),
(655,1358,cs),
(474,1358,o),
(293,1363,o),
(112,1363,cs),
(57,1363,o),
(34,1353,o),
(34,1330,cs),
(34,1011,ls),
(34,991,o),
(110,992,o),
(110,1011,cs),
(110,1195,o),
(198,1287,o),
(375,1287,cs),
(575,1287,l),
(575,186,ls),
(575,108,o),
(509,69,o),
(378,69,cs),
(358,69,o),
(359,-7,o),
(378,-7,c)
);
}
);
width = 1321;
}
);
unicode = 84;
}
{
glyphname = U;
kernLeft = U;
kernRight = U;
layers = (
{
anchors = (
{
name = bottom;
pos = (770,0);
},
{
name = ogonek;
pos = (994,14);
},
{
name = ogonek_above;
pos = (450,1338);
},
{
name = top;
pos = (799,1358);
},
{
name = topright;
pos = (1469,1358);
},
{
name = zzcurly;
pos = (1012,1341);
}
);
hints = (
{
horizontal = 1;
options = 4;
origin = (0,57);
target = (0,28);
type = TTStem;
},
{
horizontal = 1;
options = 4;
origin = (0,41);
target = (0,35);
type = TTStem;
},
{
horizontal = 1;
options = 4;
origin = (0,35);
target = (0,47);
type = TTShift;
},
{
horizontal = 1;
options = 4;
origin = (0,35);
target = (0,21);
type = TTShift;
},
{
horizontal = 1;
options = 4;
origin = (0,35);
target = (0,9);
type = TTShift;
},
{
horizontal = 1;
options = 4;
origin = (0,41);
target = (0,15);
type = TTShift;
}
);
layerId = master01;
shapes = (
{
closed = 1;
nodes = (
(997,-27,o),
(1157,67,o),
(1226,229,cs),
(1270,332,o),
(1289,498,o),
(1289,729,cs),
(1289,1172,ls),
(1289,1249,o),
(1349,1287,o),
(1469,1287,cs),
(1488,1287,o),
(1487,1363,o),
(1469,1363,c),
(1389,1359,o),
(1310,1358,o),
(1230,1358,cs),
(1150,1358,o),
(1071,1359,o),
(991,1363,c),
(972,1363,o),
(973,1287,o),
(991,1287,cs),
(1116,1287,o),
(1179,1249,o),
(1179,1172,cs),
(1179,487,ls),
(1179,186,o),
(1055,48,o),
(783,48,cs),
(533,48,o),
(419,203,o),
(419,541,cs),
(419,1172,ls),
(419,1249,o),
(488,1287,o),
(625,1287,cs),
(644,1287,o),
(643,1363,o),
(625,1363,c),
(533,1359,o),
(440,1358,o),
(348,1358,cs),
(256,1358,o),
(163,1359,o),
(71,1363,c),
(52,1363,o),
(53,1287,o),
(71,1287,cs),
(194,1287,o),
(256,1249,o),
(256,1172,cs),
(256,539,ls),
(256,414,o),
(272,304,o),
(302,224,cs),
(365,54,o),
(511,-27,o),
(758,-27,cs)
);
}
);
width = 1497;
},
{
anchors = (
{
name = bottom;
pos = (763,0);
},
{
name = ogonek;
pos = (1022,14);
},
{
name = ogonek_above;
pos = (473,1338);
},
{
name = top;
pos = (792,1358);
},
{
name = topright;
pos = (1470,1358);
},
{
name = zzcurly;
pos = (1027,1341);
}
);
guides = (
{
pos = (1581,224);
},
{
pos = (1581,254);
},
{
pos = (1351,487);
},
{
pos = (1446,729);
},
{
pos = (355,540);
}
);
layerId = "75918100-ED89-42A8-B0FE-888EB9C86810";
shapes = (
{
closed = 1;
nodes = (
(1022,-29,o),
(1187,66,o),
(1266,266,cs),
(1316,394,o),
(1316,540,o),
(1316,729,cs),
(1316,1153,ls),
(1316,1231,o),
(1367,1270,o),
(1470,1270,cs),
(1489,1270,o),
(1490,1364,o),
(1470,1364,c),
(1394,1359,o),
(1318,1358,o),
(1242,1358,cs),
(1165,1358,o),
(1089,1359,o),
(1013,1364,c),
(994,1364,o),
(993,1270,o),
(1013,1270,cs),
(1118,1270,o),
(1171,1231,o),
(1171,1153,cs),
(1171,487,ls),
(1171,206,o),
(1050,68,o),
(804,68,cs),
(545,68,o),
(462,183,o),
(462,540,cs),
(462,1153,ls),
(462,1231,o),
(518,1270,o),
(634,1270,cs),
(653,1270,o),
(654,1364,o),
(634,1364,c),
(539,1359,o),
(443,1358,o),
(348,1358,cs),
(252,1358,o),
(157,1359,o),
(61,1364,c),
(41,1364,o),
(41,1270,o),
(61,1270,cs),
(164,1270,o),
(216,1231,o),
(216,1153,cs),
(216,545,ls),
(216,386,o),
(246,272,o),
(277,206,cs),
(362,29,o),
(564,-27,o),
(765,-27,cs)
);
}
);
width = 1496;
},
{
anchors = (
{
name = bottom;
pos = (775,0);
},
{
name = ogonek;
pos = (987,14);
},
{
name = ogonek_above;
pos = (495,1338);
},
{
name = top;
pos = (804,1358);
},
{
name = topright;
pos = (1471,1358);
},
{
name = zzcurly;
pos = (1002,1341);
}
);
guides = (
{
pos = (1593,224);
},
{
pos = (1593,254);
},
{
pos = (1363,487);
},
{
pos = (1458,729);
},
{
pos = (367,540);
}
);
layerId = "6ABD9449-5E80-4451-809E-12ADEB9E9AB4";
shapes = (
{
closed = 1;
nodes = (
(1046,-27,o),
(1162,73,o),
(1235,251,cs),
(1282,364,o),
(1283,531,o),
(1283,729,cs),
(1283,1178,ls),
(1283,1255,o),
(1346,1293,o),
(1471,1293,cs),
(1490,1293,o),
(1489,1363,o),
(1471,1363,c),
(1390,1359,o),
(1309,1358,o),
(1229,1358,cs),
(1148,1358,o),
(1067,1359,o),
(986,1363,c),
(967,1363,o),
(969,1293,o),
(986,1293,cs),
(1118,1293,o),
(1184,1255,o),
(1184,1178,cs),
(1184,487,ls),
(1184,175,o),
(1063,41,o),
(779,41,cs),
(519,41,o),
(407,191,o),
(407,540,cs),
(407,1178,ls),
(407,1275,o),
(481,1293,o),
(625,1293,cs),
(644,1293,o),
(642,1363,o),
(625,1363,c),
(534,1359,o),
(442,1358,o),
(351,1358,cs),
(260,1358,o),
(168,1359,o),
(77,1363,c),
(58,1363,o),
(60,1293,o),
(77,1293,cs),
(207,1293,o),
(272,1275,o),
(272,1178,cs),
(272,540,ls),
(272,434,o),
(282,319,o),
(312,228,cs),
(376,38,o),
(527,-27,o),
(758,-27,cs)
);
}
);
width = 1500;
},
{
anchors = (
{
name = bottom;
pos = (620,0);
},
{
name = ogonek;
pos = (809,14);
},
{
name = ogonek_above;
pos = (367,1338);
},
{
name = top;
pos = (643,1358);
},
{
name = topright;
pos = (1181,1358);
},
{
name = zzcurly;
pos = (825,1341);
}
);
layerId = "70B83247-6FA0-4662-9656-C86DD2A17D3B";
shapes = (
{
closed = 1;
nodes = (
(835,-27,o),
(959,87,o),
(1009,272,cs),
(1041,389,o),
(1045,547,o),
(1045,729,cs),
(1045,1171,ls),
(1045,1248,o),
(1090,1287,o),
(1181,1287,cs),
(1196,1287,o),
(1197,1363,o),
(1181,1363,c),
(1119,1359,o),
(1056,1358,o),
(994,1358,cs),
(931,1358,o),
(869,1359,o),
(806,1363,c),
(791,1363,o),
(790,1287,o),
(806,1287,cs),
(899,1287,o),
(947,1249,o),
(947,1171,cs),
(947,490,ls),
(947,187,o),
(850,48,o),
(638,48,cs),
(439,48,o),
(354,196,o),
(354,540,cs),
(354,1171,ls),
(354,1248,o),
(405,1287,o),
(509,1287,cs),
(523,1287,o),
(523,1363,o),
(509,1363,c),
(434,1359,o),
(359,1358,o),
(285,1358,cs),
(210,1358,o),
(135,1359,o),
(60,1363,c),
(45,1363,o),
(44,1287,o),
(60,1287,cs),
(151,1287,o),
(200,1249,o),
(200,1171,cs),
(200,541,ls),
(200,408,o),
(215,298,o),
(240,221,cs),
(301,34,o),
(441,-27,o),
(614,-27,cs)
);
}
);
width = 1205;
},
{
anchors = (
{
name = bottom;
pos = (922,0);
},
{
name = ogonek;
pos = (1181,14);
},
{
name = ogonek_above;
pos = (535,1338);
},
{
name = top;
pos = (957,1358);
},
{
name = topright;
pos = (1759,1358);
},
{
name = zzcurly;
pos = (1201,1341);
}
);
layerId = "9E6FDE2E-55A6-44A9-9556-F1822294BF26";
shapes = (
{
closed = 1;
nodes = (
(1348,-27,o),
(1455,177,o),
(1492,323,cs),
(1516,416,o),
(1535,579,o),
(1535,785,cs),
(1535,1173,ls),
(1535,1250,o),
(1610,1287,o),
(1759,1287,cs),
(1782,1287,o),
(1779,1363,o),
(1759,1363,c),
(1661,1359,o),
(1566,1358,o),
(1468,1358,cs),
(1371,1358,o),
(1275,1359,o),
(1178,1363,c),
(1155,1363,o),
(1158,1287,o),
(1178,1287,cs),
(1335,1287,o),
(1413,1249,o),
(1413,1173,cs),
(1413,554,ls),
(1413,200,o),
(1274,48,o),
(950,48,cs),
(612,48,o),
(486,201,o),
(486,611,cs),
(486,1173,ls),
(486,1250,o),
(573,1287,o),
(743,1287,cs),
(767,1287,o),
(765,1363,o),
(743,1363,c),
(634,1359,o),
(523,1358,o),
(413,1358,cs),
(304,1358,o),
(193,1359,o),
(84,1363,c),
(61,1363,o),
(64,1287,o),
(84,1287,cs),
(239,1287,o),
(314,1249,o),
(314,1173,cs),
(314,611,ls),
(314,469,o),
(330,351,o),
(367,257,cs),
(442,65,o),
(606,-27,o),
(904,-27,cs)
);
}
);
width = 1792;
},
{
anchors = (
{
name = bottom;
pos = (617,0);
},
{
name = ogonek;
pos = (841,14);
},
{
name = ogonek_above;
pos = (403,1338);
},
{
name = top;
pos = (640,1358);
},
{
name = topright;
pos = (1186,1358);
},
{
name = zzcurly;
pos = (843,1341);
}
);
associatedMasterId = "70B83247-6FA0-4662-9656-C86DD2A17D3B";
attr = {
coordinates = (
700,
75,
0
);
};
guides = (
{
pos = (1131,266);
}
);
layerId = "054CC428-C41F-4395-9C18-9FE7DBF11724";
name = "{700, 60, 0}";
shapes = (
{
closed = 1;
nodes = (
(916,-31,o),
(1011,168,o),
(1042,272,cs),
(1065,352,o),
(1076,453,o),
(1076,694,cs),
(1076,1152,ls),
(1076,1230,o),
(1112,1270,o),
(1186,1270,cs),
(1201,1270,o),
(1204,1364,o),
(1186,1364,c),
(1128,1359,o),
(1068,1358,o),
(1010,1358,cs),
(950,1358,o),
(891,1359,o),
(832,1364,c),
(817,1364,o),
(814,1270,o),
(832,1270,cs),
(905,1270,o),
(943,1231,o),
(943,1152,cs),
(943,446,ls),
(943,198,o),
(843,68,o),
(651,68,cs),
(465,68,o),
(401,178,o),
(401,496,cs),
(401,1152,ls),
(401,1234,o),
(439,1270,o),
(522,1270,cs),
(536,1270,o),
(538,1364,o),
(522,1364,c),
(444,1359,o),
(366,1358,o),
(289,1358,cs),
(210,1358,o),
(133,1359,o),
(54,1364,c),
(38,1364,o),
(36,1270,o),
(54,1270,cs),
(125,1270,o),
(164,1235,o),
(164,1152,cs),
(164,501,ls),
(164,371,o),
(182,267,o),
(215,193,cs),
(279,48,o),
(425,-27,o),
(625,-27,cs)
);
}
);
width = 1215;
},
{
anchors = (
{
name = bottom;
pos = (617,0);
},
{
name = ogonek;
pos = (794,14);
},
{
name = ogonek_above;
pos = (351,1338);
},
{
name = top;
pos = (640,1358);
},
{
name = topright;
pos = (1175,1358);
},
{
name = zzcurly;
pos = (815,1341);
}
);
associatedMasterId = "70B83247-6FA0-4662-9656-C86DD2A17D3B";
attr = {
coordinates = (
300,
75,
0
);
};
layerId = "560FA70C-06E4-47D9-8BD0-F145B3BD2AA8";
name = "{300, 60, 0}";
shapes = (
{
closed = 1;
nodes = (
(820,-27,o),
(949,79,o),
(999,286,cs),
(1021,379,o),
(1031,515,o),
(1031,741,cs),
(1031,1177,ls),
(1031,1254,o),
(1079,1293,o),
(1175,1293,cs),
(1190,1293,o),
(1191,1363,o),
(1175,1363,c),
(1112,1359,o),
(1048,1358,o),
(985,1358,cs),
(921,1358,o),
(858,1359,o),
(793,1363,c),
(778,1363,o),
(778,1293,o),
(793,1293,cs),
(893,1293,o),
(944,1255,o),
(944,1177,cs),
(944,505,ls),
(944,180,o),
(850,41,o),
(630,41,cs),
(427,41,o),
(334,203,o),
(334,555,cs),
(334,1177,ls),
(334,1253,o),
(390,1293,o),
(501,1293,cs),
(515,1293,o),
(514,1363,o),
(501,1363,c),
(427,1359,o),
(353,1358,o),
(280,1358,cs),
(206,1358,o),
(132,1359,o),
(58,1363,c),
(43,1363,o),
(43,1293,o),
(58,1293,cs),
(156,1293,o),
(208,1254,o),
(208,1177,cs),
(208,554,ls),
(208,428,o),
(219,312,o),
(243,233,cs),
(297,54,o),
(411,-27,o),
(606,-27,cs)
);
}
);
width = 1196;
},
{
anchors = (
{
name = bottom;
pos = (770,0);
},
{
name = ogonek;
pos = (994,14);
},
{
name = ogonek_above;
pos = (450,1338);
},
{
name = top;
pos = (799,1358);
},
{
name = topright;
pos = (1469,1358);
},
{
name = zzcurly;
pos = (1012,1341);
}
);
layerId = "00F4936D-6309-4DEC-83B3-42806ED1A477";
shapes = (
{
closed = 1;
nodes = (
(997,-27,o),
(1157,67,o),
(1226,229,cs),
(1270,332,o),
(1289,498,o),
(1289,729,cs),
(1289,1172,ls),
(1289,1249,o),
(1349,1287,o),
(1469,1287,cs),
(1488,1287,o),
(1487,1363,o),
(1469,1363,c),
(1389,1359,o),
(1310,1358,o),
(1230,1358,cs),
(1150,1358,o),
(1071,1359,o),
(991,1363,c),
(972,1363,o),
(973,1287,o),
(991,1287,cs),
(1116,1287,o),
(1179,1249,o),
(1179,1172,cs),
(1179,487,ls),
(1179,186,o),
(1055,48,o),
(783,48,cs),
(533,48,o),
(419,203,o),
(419,541,cs),
(419,1172,ls),
(419,1249,o),
(488,1287,o),
(625,1287,cs),
(644,1287,o),
(643,1363,o),
(625,1363,c),
(533,1359,o),
(440,1358,o),
(348,1358,cs),
(256,1358,o),
(163,1359,o),
(71,1363,c),
(52,1363,o),
(53,1287,o),
(71,1287,cs),
(194,1287,o),
(256,1249,o),
(256,1172,cs),
(256,539,ls),
(256,414,o),
(272,304,o),
(302,224,cs),
(365,54,o),
(511,-27,o),
(758,-27,cs)
);
}
);
width = 1497;
}
);
unicode = 85;
}
{
glyphname = V;
kernLeft = V;
kernRight = V;
lastChange = "2021-05-20 21:51:09 +0000";
layers = (
{
anchors = (
{
name = bottom;
pos = (623,0);
},
{
name = center;
pos = (664,765);
},
{
name = top;
pos = (675,1358);
},
{
name = zzcurly;
pos = (940,1341);
}
);
hints = (
{
horizontal = 1;
origin = (0,46);
stem = -1;
type = TTSnap;
},
{
horizontal = 1;
options = 4;
origin = (0,46);
target = (0,22);
type = TTShift;
},
{
horizontal = 1;
options = 4;
origin = (0,33);
target = (0,27);
type = TTStem;
},
{
horizontal = 1;
options = 4;
origin = (0,33);
target = (0,12);
type = TTShift;
},
{
horizontal = 1;
options = 4;
origin = (0,27);
target = (0,39);
type = TTShift;
},
{
horizontal = 1;
options = 4;
origin = (0,27);
target = (0,18);
type = TTShift;
},
{
horizontal = 1;
options = 4;
origin = (0,27);
target = (0,6);
type = TTShift;
}
);
layerId = master01;
shapes = (
{
closed = 1;
nodes = (
(657,-38,o),
(667,-25,o),
(679,6,cs),
(1123,1201,ls),
(1144,1258,o),
(1207,1287,o),
(1310,1287,cs),
(1329,1287,o),
(1330,1363,o),
(1310,1363,c),
(1245,1359,o),
(1181,1358,o),
(1116,1358,cs),
(1051,1358,o),
(987,1359,o),
(922,1363,c),
(903,1363,o),
(902,1287,o),
(922,1287,cs),
(1010,1287,o),
(1042,1244,o),
(1014,1163,cs),
(705,253,l),
(697,253,l),
(355,1172,ls),
(325,1252,o),
(369,1287,o),
(491,1287,cs),
(509,1287,o),
(510,1363,o),
(491,1363,c),
(415,1359,o),
(338,1358,o),
(262,1358,cs),
(186,1358,o),
(109,1359,o),
(33,1363,c),
(15,1363,o),
(14,1287,o),
(33,1287,cs),
(104,1287,o),
(151,1249,o),
(180,1172,cs),
(614,6,ls),
(625,-25,o),
(635,-38,o),
(646,-38,cs)
);
}
);
width = 1287;
},
{
anchors = (
{
name = bottom;
pos = (653,0);
},
{
name = center;
pos = (704,765);
},
{
name = top;
pos = (705,1358);
},
{
name = zzcurly;
pos = (964,1341);
}
);
layerId = "75918100-ED89-42A8-B0FE-888EB9C86810";
shapes = (
{
closed = 1;
nodes = (
(693,-39,o),
(711,-25,o),
(723,6,cs),
(1182,1186,ls),
(1204,1242,o),
(1266,1270,o),
(1364,1270,cs),
(1383,1270,o),
(1384,1364,o),
(1364,1364,c),
(1294,1359,o),
(1224,1358,o),
(1154,1358,cs),
(1084,1358,o),
(1014,1359,o),
(944,1364,c),
(925,1364,o),
(924,1270,o),
(944,1270,cs),
(1031,1270,o),
(1060,1227,o),
(1032,1147,cs),
(739,322,l),
(732,322,l),
(406,1153,ls),
(373,1237,o),
(406,1270,o),
(518,1270,cs),
(535,1270,o),
(535,1364,o),
(518,1364,c),
(437,1359,o),
(356,1358,o),
(275,1358,cs),
(193,1358,o),
(112,1359,o),
(31,1364,c),
(11,1364,o),
(11,1270,o),
(31,1270,cs),
(98,1270,o),
(142,1230,o),
(172,1153,cs),
(621,6,ls),
(633,-25,o),
(649,-39,o),
(672,-39,cs)
);
}
);
width = 1357;
},
{
anchors = (
{
name = bottom;
pos = (613,0);
},
{
name = center;
pos = (654,765);
},
{
name = top;
pos = (665,1358);
},
{
name = zzcurly;
pos = (928,1341);
}
);
layerId = "6ABD9449-5E80-4451-809E-12ADEB9E9AB4";
shapes = (
{
closed = 1;
nodes = (
(642,-38,o),
(653,-25,o),
(664,6,cs),
(1103,1206,ls),
(1124,1264,o),
(1188,1293,o),
(1292,1293,cs),
(1311,1293,o),
(1312,1363,o),
(1292,1363,c),
(1229,1359,o),
(1166,1358,o),
(1104,1358,cs),
(1041,1358,o),
(978,1359,o),
(915,1363,c),
(896,1363,o),
(895,1293,o),
(915,1293,cs),
(1004,1293,o),
(1035,1249,o),
(1008,1168,cs),
(693,230,l),
(681,230,l),
(338,1178,ls),
(311,1253,o),
(363,1293,o),
(482,1293,cs),
(500,1293,o),
(502,1363,o),
(482,1363,c),
(407,1359,o),
(333,1358,o),
(258,1358,cs),
(183,1358,o),
(109,1359,o),
(34,1363,c),
(16,1363,o),
(15,1293,o),
(34,1293,cs),
(107,1293,o),
(155,1255,o),
(183,1178,cs),
(607,6,ls),
(618,-25,o),
(627,-38,o),
(634,-38,cs)
);
}
);
width = 1264;
},
{
anchors = (
{
name = bottom;
pos = (508,0);
},
{
name = center;
pos = (543,765);
},
{
name = top;
pos = (550,1358);
},
{
name = zzcurly;
pos = (764,1341);
}
);
layerId = "70B83247-6FA0-4662-9656-C86DD2A17D3B";
shapes = (
{
closed = 1;
nodes = (
(535,-38,o),
(547,-25,o),
(556,6,cs),
(918,1202,ls),
(935,1258,o),
(984,1287,o),
(1065,1287,cs),
(1079,1287,o),
(1081,1363,o),
(1065,1363,c),
(1012,1359,o),
(958,1358,o),
(905,1358,cs),
(852,1358,o),
(798,1359,o),
(745,1363,c),
(730,1363,o),
(729,1287,o),
(745,1287,cs),
(816,1287,o),
(840,1244,o),
(818,1163,cs),
(573,273,l),
(567,273,l),
(299,1171,ls),
(275,1251,o),
(308,1287,o),
(402,1287,cs),
(415,1287,o),
(416,1363,o),
(402,1363,c),
(339,1359,o),
(277,1358,o),
(214,1358,cs),
(151,1358,o),
(89,1359,o),
(26,1363,c),
(11,1363,o),
(11,1287,o),
(26,1287,cs),
(82,1287,o),
(118,1248,o),
(141,1171,cs),
(492,6,ls),
(501,-25,o),
(511,-38,o),
(523,-38,cs)
);
}
);
width = 1047;
},
{
anchors = (
{
name = bottom;
pos = (738,0);
},
{
name = center;
pos = (785,765);
},
{
name = top;
pos = (800,1358);
},
{
name = zzcurly;
pos = (1116,1341);
}
);
layerId = "9E6FDE2E-55A6-44A9-9556-F1822294BF26";
shapes = (
{
closed = 1;
nodes = (
(775,-38,o),
(786,-25,o),
(800,6,cs),
(1328,1200,ls),
(1353,1257,o),
(1410,1287,o),
(1535,1287,cs),
(1559,1287,o),
(1559,1363,o),
(1535,1363,c),
(1462,1359,o),
(1390,1358,o),
(1317,1358,cs),
(1244,1358,o),
(1172,1359,o),
(1099,1363,c),
(1076,1363,o),
(1075,1287,o),
(1099,1287,cs),
(1206,1287,o),
(1243,1244,o),
(1210,1163,cs),
(833,233,l),
(823,233,l),
(411,1173,ls),
(379,1247,o),
(440,1287,o),
(580,1287,cs),
(603,1287,o),
(604,1363,o),
(580,1363,c),
(491,1359,o),
(399,1358,o),
(310,1358,cs),
(221,1358,o),
(129,1359,o),
(40,1363,c),
(19,1363,o),
(17,1287,o),
(40,1287,cs),
(126,1287,o),
(185,1250,o),
(219,1173,cs),
(732,6,ls),
(746,-25,o),
(755,-38,o),
(765,-38,cs)
);
}
);
width = 1517;
},
{
anchors = (
{
name = bottom;
pos = (623,0);
},
{
name = center;
pos = (664,765);
},
{
name = top;
pos = (675,1358);
},
{
name = zzcurly;
pos = (940,1341);
}
);
layerId = "00F4936D-6309-4DEC-83B3-42806ED1A477";
shapes = (
{
closed = 1;
nodes = (
(657,-38,o),
(667,-25,o),
(679,6,cs),
(1123,1201,ls),
(1144,1258,o),
(1207,1287,o),
(1310,1287,cs),
(1329,1287,o),
(1330,1363,o),
(1310,1363,c),
(1245,1359,o),
(1181,1358,o),
(1116,1358,cs),
(1051,1358,o),
(987,1359,o),
(922,1363,c),
(903,1363,o),
(902,1287,o),
(922,1287,cs),
(1010,1287,o),
(1042,1244,o),
(1014,1163,cs),
(705,253,l),
(697,253,l),
(355,1172,ls),
(325,1252,o),
(369,1287,o),
(491,1287,cs),
(509,1287,o),
(510,1363,o),
(491,1363,c),
(415,1359,o),
(338,1358,o),
(262,1358,cs),
(186,1358,o),
(109,1359,o),
(33,1363,c),
(15,1363,o),
(14,1287,o),
(33,1287,cs),
(104,1287,o),
(151,1249,o),
(180,1172,cs),
(614,6,ls),
(625,-25,o),
(635,-38,o),
(646,-38,cs)
);
}
);
width = 1287;
}
);
unicode = 86;
}
{
glyphname = W;
kernLeft = V;
kernRight = V;
lastChange = "2021-05-20 21:51:09 +0000";
layers = (
{
anchors = (
{
name = bottom;
pos = (1026,0);
},
{
name = top;
pos = (1043,1358);
},
{
name = zzcurly;
pos = (1111,1341);
}
);
hints = (
{
horizontal = 1;
origin = (0,99);
stem = -1;
type = TTSnap;
},
{
horizontal = 1;
options = 4;
origin = (0,99);
target = (0,8);
type = TTShift;
},
{
horizontal = 1;
options = 4;
origin = (0,99);
target = (0,75);
type = TTShift;
},
{
horizontal = 1;
options = 4;
origin = (0,99);
target = (0,31);
type = TTShift;
},
{
horizontal = 1;
options = 4;
origin = (0,86);
target = (0,80);
type = TTStem;
},
{
horizontal = 1;
options = 4;
origin = (0,86);
target = (0,64);
type = TTShift;
},
{
horizontal = 1;
options = 4;
origin = (0,86);
target = (0,43);
type = TTShift;
},
{
horizontal = 1;
options = 4;
origin = (0,86);
target = (0,21);
type = TTShift;
},
{
horizontal = 1;
options = 4;
origin = (0,80);
target = (0,92);
type = TTShift;
},
{
horizontal = 1;
options = 4;
origin = (0,80);
target = (0,70);
type = TTShift;
},
{
horizontal = 1;
options = 4;
origin = (0,80);
target = (0,49);
type = TTShift;
},
{
horizontal = 1;
options = 4;
origin = (0,80);
target = (0,37);
type = TTShift;
},
{
horizontal = 1;
options = 4;
origin = (0,80);
target = (0,27);
type = TTShift;
},
{
horizontal = 1;
options = 4;
origin = (0,80);
target = (0,15);
type = TTShift;
}
);
layerId = master01;
shapes = (
{
closed = 1;
nodes = (
(736,-38,o),
(742,-25,o),
(756,6,cs),
(998,541,l),
(1007,541,l),
(1251,6,ls),
(1265,-25,o),
(1271,-38,o),
(1278,-38,cs),
(1284,-38,o),
(1291,-25,o),
(1305,6,cs),
(1843,1201,ls),
(1869,1258,o),
(1925,1287,o),
(2012,1287,cs),
(2031,1287,o),
(2032,1363,o),
(2012,1363,c),
(1952,1359,o),
(1892,1358,o),
(1833,1358,cs),
(1773,1358,o),
(1713,1359,o),
(1653,1363,c),
(1635,1363,o),
(1634,1287,o),
(1653,1287,cs),
(1749,1287,o),
(1774,1249,o),
(1735,1163,cs),
(1324,262,l),
(1316,262,l),
(1089,769,l),
(1283,1201,ls),
(1309,1258,o),
(1372,1287,o),
(1471,1287,cs),
(1489,1287,o),
(1490,1363,o),
(1471,1363,c),
(1408,1359,o),
(1345,1358,o),
(1282,1358,cs),
(1218,1358,o),
(1155,1359,o),
(1092,1363,c),
(1073,1363,o),
(1072,1287,o),
(1092,1287,cs),
(1188,1287,o),
(1214,1249,o),
(1175,1163,cs),
(1048,882,l),
(1038,882,l),
(908,1172,ls),
(872,1253,o),
(900,1287,o),
(1005,1287,cs),
(1023,1287,o),
(1024,1363,o),
(1005,1363,c),
(935,1359,o),
(866,1358,o),
(796,1358,cs),
(726,1358,o),
(657,1359,o),
(587,1363,c),
(569,1363,o),
(568,1287,o),
(587,1287,cs),
(644,1287,o),
(689,1249,o),
(724,1172,cs),
(958,650,l),
(781,262,l),
(772,262,l),
(363,1172,ls),
(326,1253,o),
(354,1287,o),
(461,1287,cs),
(479,1287,o),
(480,1363,o),
(461,1363,c),
(390,1359,o),
(318,1358,o),
(247,1358,cs),
(176,1358,o),
(104,1359,o),
(33,1363,c),
(15,1363,o),
(14,1287,o),
(33,1287,cs),
(97,1287,o),
(146,1249,o),
(180,1172,cs),
(703,6,ls),
(717,-25,o),
(723,-38,o),
(730,-38,cs)
);
}
);
width = 1989;
},
{
anchors = (
{
name = bottom;
pos = (1041,0);
},
{
name = top;
pos = (1088,1358);
},
{
name = zzcurly;
pos = (1164,1341);
}
);
layerId = "75918100-ED89-42A8-B0FE-888EB9C86810";
shapes = (
{
closed = 1;
nodes = (
(761,-38,o),
(777,-25,o),
(791,6,cs),
(1017,507,l),
(1026,507,l),
(1251,6,ls),
(1265,-25,o),
(1283,-38,o),
(1301,-38,cs),
(1320,-38,o),
(1338,-25,o),
(1352,6,cs),
(1885,1186,ls),
(1911,1243,o),
(1972,1270,o),
(2067,1270,cs),
(2086,1270,o),
(2087,1364,o),
(2067,1364,c),
(2004,1358,o),
(1941,1357,o),
(1879,1357,cs),
(1816,1357,o),
(1753,1358,o),
(1690,1364,c),
(1671,1364,o),
(1670,1270,o),
(1690,1270,cs),
(1760,1270,o),
(1774,1232,o),
(1735,1147,cs),
(1367,339,l),
(1357,339,l),
(1149,800,l),
(1323,1186,ls),
(1349,1243,o),
(1411,1270,o),
(1508,1270,cs),
(1528,1270,o),
(1527,1364,o),
(1508,1364,c),
(1448,1358,o),
(1388,1357,o),
(1328,1357,cs),
(1267,1357,o),
(1207,1358,o),
(1147,1364,c),
(1130,1364,o),
(1127,1270,o),
(1147,1270,cs),
(1207,1270,o),
(1216,1232,o),
(1176,1147,cs),
(1088,958,l),
(1078,958,l),
(990,1153,ls),
(952,1236,o),
(967,1270,o),
(1039,1270,cs),
(1058,1270,o),
(1059,1364,o),
(1039,1364,c),
(970,1358,o),
(902,1357,o),
(833,1357,cs),
(764,1357,o),
(696,1358,o),
(627,1364,c),
(608,1364,o),
(607,1270,o),
(627,1270,cs),
(662,1270,o),
(691,1249,o),
(709,1208,cs),
(956,662,l),
(808,339,l),
(798,339,l),
(431,1153,ls),
(394,1234,o),
(410,1270,o),
(482,1270,cs),
(501,1270,o),
(502,1364,o),
(482,1364,c),
(407,1358,o),
(332,1357,o),
(257,1357,cs),
(181,1357,o),
(106,1358,o),
(31,1364,c),
(12,1364,o),
(11,1270,o),
(31,1270,cs),
(93,1270,o),
(140,1231,o),
(175,1153,cs),
(692,6,ls),
(706,-25,o),
(723,-38,o),
(742,-38,cs)
);
}
);
width = 2060;
},
{
anchors = (
{
name = bottom;
pos = (1031,0);
},
{
name = top;
pos = (1038,1358);
},
{
name = zzcurly;
pos = (1103,1341);
}
);
layerId = "6ABD9449-5E80-4451-809E-12ADEB9E9AB4";
shapes = (
{
closed = 1;
nodes = (
(736,-38,o),
(742,-25,o),
(756,6,cs),
(1002,552,l),
(1011,552,l),
(1257,6,ls),
(1271,-25,o),
(1277,-38,o),
(1281,-38,cs),
(1284,-38,o),
(1290,-25,o),
(1304,6,cs),
(1849,1206,ls),
(1875,1263,o),
(1929,1293,o),
(2014,1293,cs),
(2033,1293,o),
(2034,1363,o),
(2014,1363,c),
(1955,1359,o),
(1896,1358,o),
(1838,1358,cs),
(1779,1358,o),
(1720,1359,o),
(1661,1363,c),
(1643,1363,o),
(1642,1293,o),
(1661,1293,cs),
(1763,1293,o),
(1794,1253,o),
(1755,1168,cs),
(1329,232,l),
(1314,232,l),
(1079,759,l),
(1280,1206,ls),
(1306,1263,o),
(1369,1293,o),
(1469,1293,cs),
(1486,1293,o),
(1488,1363,o),
(1469,1363,c),
(1405,1359,o),
(1341,1358,o),
(1277,1358,cs),
(1212,1358,o),
(1148,1359,o),
(1084,1363,c),
(1064,1363,o),
(1064,1293,o),
(1084,1293,cs),
(1188,1293,o),
(1222,1251,o),
(1185,1168,cs),
(1045,857,l),
(1035,857,l),
(891,1178,ls),
(855,1258,o),
(890,1293,o),
(1004,1293,cs),
(1021,1293,o),
(1022,1363,o),
(1004,1363,c),
(933,1359,o),
(864,1358,o),
(794,1358,cs),
(723,1358,o),
(654,1359,o),
(584,1363,c),
(566,1363,o),
(565,1293,o),
(584,1293,cs),
(648,1293,o),
(699,1249,o),
(739,1160,cs),
(969,646,l),
(781,232,l),
(765,232,l),
(340,1178,ls),
(304,1258,o),
(339,1293,o),
(454,1293,cs),
(472,1293,o),
(473,1363,o),
(454,1363,c),
(384,1359,o),
(313,1358,o),
(244,1358,cs),
(174,1358,o),
(103,1359,o),
(34,1363,c),
(16,1363,o),
(15,1293,o),
(34,1293,cs),
(98,1293,o),
(148,1255,o),
(182,1178,cs),
(708,6,ls),
(722,-25,o),
(728,-38,o),
(732,-38,cs)
);
}
);
width = 1986;
},
{
anchors = (
{
name = bottom;
pos = (877,0);
},
{
name = top;
pos = (902,1358);
},
{
name = zzcurly;
pos = (961,1341);
}
);
layerId = "70B83247-6FA0-4662-9656-C86DD2A17D3B";
shapes = (
{
closed = 1;
nodes = (
(634,-38,o),
(642,-23,o),
(654,8,cs),
(854,530,l),
(862,530,l),
(1058,8,ls),
(1070,-23,o),
(1080,-38,o),
(1090,-38,cs),
(1100,-38,o),
(1109,-23,o),
(1121,8,cs),
(1583,1202,ls),
(1605,1259,o),
(1652,1287,o),
(1728,1287,cs),
(1743,1287,o),
(1745,1363,o),
(1728,1363,c),
(1679,1359,o),
(1629,1358,o),
(1573,1358,cs),
(1516,1358,o),
(1466,1359,o),
(1417,1363,c),
(1402,1363,o),
(1401,1287,o),
(1417,1287,cs),
(1486,1287,o),
(1508,1244,o),
(1477,1164,cs),
(1139,288,l),
(1132,288,l),
(946,779,l),
(1106,1202,ls),
(1127,1259,o),
(1178,1287,o),
(1262,1287,cs),
(1278,1287,o),
(1279,1363,o),
(1262,1363,c),
(1213,1359,o),
(1162,1358,o),
(1105,1358,cs),
(1046,1358,o),
(996,1359,o),
(946,1363,c),
(931,1363,o),
(929,1287,o),
(946,1287,cs),
(1016,1287,o),
(1034,1251,o),
(1001,1164,cs),
(904,907,l),
(895,907,l),
(797,1172,ls),
(766,1255,o),
(786,1287,o),
(865,1287,cs),
(881,1287,o),
(881,1363,o),
(865,1363,c),
(810,1359,o),
(754,1358,o),
(689,1358,cs),
(623,1358,o),
(567,1359,o),
(512,1363,c),
(497,1363,o),
(496,1287,o),
(512,1287,cs),
(550,1287,o),
(582,1258,o),
(608,1190,cs),
(813,654,l),
(673,288,l),
(664,288,l),
(329,1172,ls),
(298,1253,o),
(320,1287,o),
(399,1287,cs),
(414,1287,o),
(414,1363,o),
(399,1363,c),
(341,1359,o),
(281,1358,o),
(213,1358,cs),
(145,1358,o),
(85,1359,o),
(27,1363,c),
(12,1363,o),
(11,1287,o),
(27,1287,cs),
(80,1287,o),
(120,1249,o),
(149,1172,cs),
(592,8,ls),
(604,-23,o),
(613,-38,o),
(623,-38,cs)
);
}
);
width = 1711;
},
{
anchors = (
{
name = bottom;
pos = (1185,0);
},
{
name = top;
pos = (1194,1358);
},
{
name = zzcurly;
pos = (1271,1341);
}
);
layerId = "9E6FDE2E-55A6-44A9-9556-F1822294BF26";
shapes = (
{
closed = 1;
nodes = (
(846,-38,o),
(853,-25,o),
(869,6,cs),
(1152,552,l),
(1162,552,l),
(1444,6,ls),
(1460,-25,o),
(1467,-38,o),
(1472,-38,cs),
(1477,-38,o),
(1484,-25,o),
(1500,6,cs),
(2122,1200,ls),
(2152,1257,o),
(2218,1287,o),
(2316,1287,cs),
(2339,1287,o),
(2339,1363,o),
(2316,1363,c),
(2245,1359,o),
(2175,1358,o),
(2113,1358,cs),
(2050,1358,o),
(1980,1359,o),
(1909,1363,c),
(1888,1363,o),
(1887,1287,o),
(1909,1287,cs),
(2025,1287,o),
(2056,1247,o),
(2012,1162,cs),
(1528,234,l),
(1511,234,l),
(1242,759,l),
(1469,1200,ls),
(1498,1257,o),
(1576,1287,o),
(1690,1287,cs),
(1710,1287,o),
(1711,1363,o),
(1690,1363,c),
(1613,1359,o),
(1538,1358,o),
(1469,1358,cs),
(1400,1358,o),
(1324,1359,o),
(1248,1363,c),
(1225,1363,o),
(1225,1287,o),
(1248,1287,cs),
(1365,1287,o),
(1401,1245,o),
(1358,1162,cs),
(1202,857,l),
(1191,857,l),
(1031,1172,ls),
(990,1253,o),
(1022,1287,o),
(1155,1287,cs),
(1175,1287,o),
(1177,1363,o),
(1155,1363,c),
(1070,1359,o),
(988,1358,o),
(913,1358,cs),
(839,1358,o),
(757,1359,o),
(672,1363,c),
(651,1363,o),
(650,1287,o),
(672,1287,cs),
(748,1287,o),
(808,1240,o),
(852,1154,cs),
(1113,646,l),
(898,234,l),
(881,234,l),
(398,1172,ls),
(357,1252,o),
(393,1287,o),
(523,1287,cs),
(544,1287,o),
(546,1363,o),
(523,1363,c),
(439,1359,o),
(355,1358,o),
(281,1358,cs),
(207,1358,o),
(123,1359,o),
(39,1363,c),
(18,1363,o),
(17,1287,o),
(39,1287,cs),
(114,1287,o),
(172,1249,o),
(212,1172,cs),
(813,6,ls),
(829,-25,o),
(836,-38,o),
(841,-38,cs)
);
}
);
width = 2297;
},
{
anchors = (
{
name = bottom;
pos = (1026,0);
},
{
name = top;
pos = (1043,1358);
},
{
name = zzcurly;
pos = (1111,1341);
}
);
layerId = "00F4936D-6309-4DEC-83B3-42806ED1A477";
shapes = (
{
closed = 1;
nodes = (
(736,-38,o),
(742,-25,o),
(756,6,cs),
(998,541,l),
(1007,541,l),
(1251,6,ls),
(1265,-25,o),
(1271,-38,o),
(1278,-38,cs),
(1284,-38,o),
(1291,-25,o),
(1305,6,cs),
(1843,1201,ls),
(1869,1258,o),
(1925,1287,o),
(2012,1287,cs),
(2031,1287,o),
(2032,1363,o),
(2012,1363,c),
(1952,1359,o),
(1892,1358,o),
(1833,1358,cs),
(1773,1358,o),
(1713,1359,o),
(1653,1363,c),
(1635,1363,o),
(1634,1287,o),
(1653,1287,cs),
(1749,1287,o),
(1774,1249,o),
(1735,1163,cs),
(1324,262,l),
(1316,262,l),
(1089,769,l),
(1283,1201,ls),
(1309,1258,o),
(1372,1287,o),
(1471,1287,cs),
(1489,1287,o),
(1490,1363,o),
(1471,1363,c),
(1408,1359,o),
(1345,1358,o),
(1282,1358,cs),
(1218,1358,o),
(1155,1359,o),
(1092,1363,c),
(1073,1363,o),
(1072,1287,o),
(1092,1287,cs),
(1188,1287,o),
(1214,1249,o),
(1175,1163,cs),
(1048,882,l),
(1038,882,l),
(908,1172,ls),
(872,1253,o),
(900,1287,o),
(1005,1287,cs),
(1023,1287,o),
(1024,1363,o),
(1005,1363,c),
(935,1359,o),
(866,1358,o),
(796,1358,cs),
(726,1358,o),
(657,1359,o),
(587,1363,c),
(569,1363,o),
(568,1287,o),
(587,1287,cs),
(644,1287,o),
(689,1249,o),
(724,1172,cs),
(958,650,l),
(781,262,l),
(772,262,l),
(363,1172,ls),
(326,1253,o),
(354,1287,o),
(461,1287,cs),
(479,1287,o),
(480,1363,o),
(461,1363,c),
(390,1359,o),
(318,1358,o),
(247,1358,cs),
(176,1358,o),
(104,1359,o),
(33,1363,c),
(15,1363,o),
(14,1287,o),
(33,1287,cs),
(97,1287,o),
(146,1249,o),
(180,1172,cs),
(703,6,ls),
(717,-25,o),
(723,-38,o),
(730,-38,cs)
);
}
);
width = 1989;
}
);
metricLeft = V;
metricRight = V;
unicode = 87;
}
{
glyphname = bracketleft;
lastChange = "2021-08-29 19:31:46 +0000";
layers = (
{
layerId = master01;
shapes = (
{
closed = 1;
nodes = (
(666,-354,ls),
(677,-354,o),
(683,-341,o),
(683,-315,cs),
(683,-289,o),
(677,-276,o),
(666,-276,cs),
(440,-276,ls),
(431,-276,o),
(426,-267,o),
(426,-248,cs),
(426,1430,ls),
(426,1445,o),
(433,1452,o),
(446,1452,cs),
(666,1452,ls),
(677,1452,o),
(683,1465,o),
(683,1491,cs),
(683,1517,o),
(677,1530,o),
(666,1530,cs),
(307,1530,ls),
(294,1530,o),
(287,1524,o),
(287,1511,cs),
(287,-332,ls),
(287,-347,o),
(294,-354,o),
(309,-354,cs)
);
}
);
width = 725;
},
{
layerId = "75918100-ED89-42A8-B0FE-888EB9C86810";
shapes = (
{
closed = 1;
nodes = (
(754,-354,ls),
(767,-354,o),
(774,-338,o),
(774,-306,cs),
(774,-274,o),
(767,-258,o),
(754,-258,cs),
(522,-258,ls),
(513,-258,o),
(508,-248,o),
(508,-229,cs),
(508,1411,ls),
(508,1426,o),
(515,1434,o),
(528,1434,cs),
(754,1434,ls),
(767,1434,o),
(774,1450,o),
(774,1482,cs),
(774,1514,o),
(767,1530,o),
(754,1530,cs),
(315,1530,ls),
(302,1529,o),
(295,1523,o),
(295,1511,cs),
(295,-332,ls),
(294,-347,o),
(302,-354,o),
(317,-354,cs)
);
}
);
width = 796;
},
{
layerId = "6ABD9449-5E80-4451-809E-12ADEB9E9AB4";
shapes = (
{
closed = 1;
nodes = (
(637,-354,ls),
(647,-354,o),
(653,-342,o),
(653,-318,cs),
(653,-294,o),
(647,-282,o),
(637,-282,cs),
(413,-282,ls),
(403,-282,o),
(399,-273,o),
(399,-254,cs),
(399,1436,ls),
(399,1451,o),
(405,1458,o),
(419,1458,cs),
(637,1458,ls),
(647,1458,o),
(653,1470,o),
(653,1494,cs),
(653,1518,o),
(647,1530,o),
(637,1530,cs),
(304,1530,ls),
(291,1530,o),
(284,1524,o),
(284,1511,cs),
(284,-332,ls),
(285,-347,o),
(292,-354,o),
(306,-354,cs)
);
}
);
width = 701;
},
{
layerId = "70B83247-6FA0-4662-9656-C86DD2A17D3B";
shapes = (
{
closed = 1;
nodes = (
(557,-354,ls),
(567,-354,o),
(571,-338,o),
(571,-312,cs),
(571,-281,o),
(565,-271,o),
(557,-271,cs),
(374,-271,ls),
(367,-271,o),
(363,-260,o),
(363,-242,cs),
(363,1424,ls),
(363,1439,o),
(368,1447,o),
(379,1447,cs),
(557,1447,ls),
(565,1447,o),
(571,1457,o),
(571,1488,cs),
(571,1514,o),
(567,1530,o),
(557,1530,cs),
(246,1530,ls),
(236,1530,o),
(230,1524,o),
(230,1511,cs),
(230,-332,ls),
(230,-345,o),
(234,-354,o),
(247,-354,cs)
);
}
);
width = 605;
},
{
layerId = "9E6FDE2E-55A6-44A9-9556-F1822294BF26";
shapes = (
{
closed = 1;
nodes = (
(775,-354,ls),
(788,-354,o),
(795,-344,o),
(795,-318,cs),
(795,-297,o),
(790,-281,o),
(775,-281,cs),
(506,-281,ls),
(494,-281,o),
(489,-273,o),
(489,-254,cs),
(489,1436,ls),
(489,1450,o),
(497,1457,o),
(513,1457,cs),
(775,1457,ls),
(790,1457,o),
(795,1473,o),
(795,1494,cs),
(795,1520,o),
(788,1530,o),
(775,1530,cs),
(368,1530,ls),
(351,1530,o),
(344,1523,o),
(344,1511,cs),
(344,-332,ls),
(344,-348,o),
(355,-354,o),
(371,-354,cs)
);
}
);
width = 845;
},
{
layerId = "00F4936D-6309-4DEC-83B3-42806ED1A477";
shapes = (
{
closed = 1;
nodes = (
(666,-354,ls),
(677,-354,o),
(683,-341,o),
(683,-315,cs),
(683,-289,o),
(677,-276,o),
(666,-276,cs),
(440,-276,ls),
(431,-276,o),
(426,-267,o),
(426,-248,cs),
(426,1430,ls),
(426,1445,o),
(433,1452,o),
(446,1452,cs),
(666,1452,ls),
(677,1452,o),
(683,1465,o),
(683,1491,cs),
(683,1517,o),
(677,1530,o),
(666,1530,cs),
(307,1530,ls),
(294,1530,o),
(287,1524,o),
(287,1511,cs),
(287,-332,ls),
(287,-347,o),
(294,-354,o),
(309,-354,cs)
);
}
);
width = 725;
}
);
unicode = 91;
}
{
glyphname = backslash;
layers = (
{
layerId = master01;
shapes = (
{
closed = 1;
nodes = (
(529,-352,o),
(633,-326,o),
(627,-306,cs),
(110,1504,ls),
(105,1522,o),
(-1,1493,o),
(4,1474,cs),
(523,-333,ls)
);
}
);
width = 717;
},
{
layerId = "75918100-ED89-42A8-B0FE-888EB9C86810";
shapes = (
{
closed = 1;
nodes = (
(413,-360,o),
(555,-321,o),
(544,-284,cs),
(33,1498,ls),
(28,1517,o),
(-114,1473,o),
(-109,1455,cs),
(403,-325,ls)
);
}
);
width = 520;
},
{
layerId = "6ABD9449-5E80-4451-809E-12ADEB9E9AB4";
shapes = (
{
closed = 1;
nodes = (
(536,-350,o),
(628,-327,o),
(624,-314,cs),
(104,1506,ls),
(99,1525,o),
(6,1500,o),
(11,1481,cs),
(532,-336,ls)
);
}
);
width = 718;
},
{
layerId = "70B83247-6FA0-4662-9656-C86DD2A17D3B";
shapes = (
{
closed = 1;
nodes = (
(509,-323,o),
(612,-289,o),
(601,-257,cs),
(-1,1474,ls),
(-7,1492,o),
(-109,1456,o),
(-103,1438,cs),
(499,-293,ls)
);
}
);
width = 605;
},
{
layerId = "9E6FDE2E-55A6-44A9-9556-F1822294BF26";
shapes = (
{
closed = 1;
nodes = (
(551,-389,o),
(655,-366,o),
(653,-355,cs),
(221,1534,ls),
(217,1553,o),
(107,1529,o),
(111,1510,cs),
(547,-373,ls)
);
}
);
width = 829;
},
{
layerId = "00F4936D-6309-4DEC-83B3-42806ED1A477";
shapes = (
{
closed = 1;
nodes = (
(529,-352,o),
(633,-326,o),
(627,-306,cs),
(110,1504,ls),
(105,1522,o),
(-2,1493,o),
(4,1474,cs),
(523,-333,ls)
);
}
);
width = 717;
}
);
metricWidth = slash;
unicode = 92;
}
{
glyphname = bracketright;
kernLeft = braceright;
layers = (
{
layerId = master01;
shapes = (
{
closed = 1;
nodes = (
(430,-354,ls),
(445,-354,o),
(452,-347,o),
(452,-332,cs),
(452,1511,ls),
(452,1524,o),
(445,1530,o),
(432,1530,cs),
(67,1530,ls),
(54,1530,o),
(47,1517,o),
(47,1491,cs),
(47,1465,o),
(55,1452,o),
(71,1452,cs),
(295,1452,ls),
(307,1452,o),
(313,1445,o),
(313,1430,cs),
(313,-252,ls),
(313,-268,o),
(309,-276,o),
(301,-276,cs),
(51,-276,ls),
(37,-276,o),
(30,-289,o),
(30,-315,cs),
(30,-341,o),
(38,-354,o),
(53,-354,cs)
);
}
);
width = 662;
},
{
layerId = "75918100-ED89-42A8-B0FE-888EB9C86810";
shapes = (
{
closed = 1;
nodes = (
(481,-354,ls),
(496,-355,o),
(504,-347,o),
(504,-332,cs),
(504,1511,ls),
(503,1524,o),
(496,1530,o),
(483,1530,cs),
(47,1530,ls),
(34,1530,o),
(27,1514,o),
(27,1482,cs),
(27,1450,o),
(34,1434,o),
(47,1434,cs),
(274,1434,ls),
(287,1434,o),
(293,1426,o),
(293,1411,cs),
(293,-233,ls),
(293,-250,o),
(288,-258,o),
(279,-258,cs),
(47,-258,ls),
(34,-258,o),
(27,-274,o),
(27,-306,cs),
(27,-338,o),
(34,-354,o),
(47,-354,cs)
);
}
);
width = 693;
},
{
layerId = "6ABD9449-5E80-4451-809E-12ADEB9E9AB4";
shapes = (
{
closed = 1;
nodes = (
(413,-354,ls),
(427,-354,o),
(435,-346,o),
(435,-332,cs),
(435,1511,ls),
(435,1524,o),
(428,1530,o),
(415,1530,cs),
(74,1530,ls),
(60,1530,o),
(54,1518,o),
(54,1494,cs),
(54,1470,o),
(62,1458,o),
(79,1458,cs),
(302,1458,ls),
(314,1458,o),
(320,1451,o),
(320,1436,cs),
(320,-258,ls),
(320,-274,o),
(316,-282,o),
(308,-282,cs),
(52,-282,ls),
(38,-282,o),
(31,-294,o),
(31,-318,cs),
(31,-342,o),
(39,-354,o),
(55,-354,cs)
);
}
);
width = 652;
},
{
layerId = "70B83247-6FA0-4662-9656-C86DD2A17D3B";
shapes = (
{
closed = 1;
nodes = (
(360,-354,ls),
(371,-354,o),
(378,-348,o),
(378,-332,cs),
(378,1511,ls),
(378,1524,o),
(372,1530,o),
(362,1530,cs),
(49,1530,ls),
(39,1530,o),
(33,1518,o),
(33,1488,cs),
(33,1458,o),
(40,1447,o),
(51,1447,cs),
(231,1447,ls),
(240,1447,o),
(245,1440,o),
(245,1424,cs),
(245,-246,ls),
(245,-261,o),
(242,-271,o),
(235,-271,cs),
(41,-271,ls),
(30,-271,o),
(24,-285,o),
(24,-312,cs),
(24,-340,o),
(30,-354,o),
(41,-354,cs)
);
}
);
width = 607;
},
{
layerId = "9E6FDE2E-55A6-44A9-9556-F1822294BF26";
shapes = (
{
closed = 1;
nodes = (
(500,-354,ls),
(518,-354,o),
(526,-345,o),
(526,-332,cs),
(526,1511,ls),
(526,1523,o),
(519,1530,o),
(502,1530,cs),
(85,1530,ls),
(68,1530,o),
(61,1516,o),
(61,1494,cs),
(61,1472,o),
(70,1457,o),
(91,1457,cs),
(359,1457,ls),
(374,1457,o),
(381,1449,o),
(381,1436,cs),
(381,-258,ls),
(381,-275,o),
(376,-281,o),
(367,-281,cs),
(61,-281,ls),
(44,-281,o),
(36,-293,o),
(36,-318,cs),
(36,-342,o),
(45,-354,o),
(65,-354,cs)
);
}
);
width = 717;
},
{
layerId = "00F4936D-6309-4DEC-83B3-42806ED1A477";
shapes = (
{
closed = 1;
nodes = (
(430,-354,ls),
(445,-354,o),
(452,-347,o),
(452,-332,cs),
(452,1511,ls),
(452,1524,o),
(445,1530,o),
(432,1530,cs),
(67,1530,ls),
(54,1530,o),
(47,1517,o),
(47,1491,cs),
(47,1465,o),
(55,1452,o),
(71,1452,cs),
(295,1452,ls),
(307,1452,o),
(313,1445,o),
(313,1430,cs),
(313,-252,ls),
(313,-268,o),
(309,-276,o),
(301,-276,cs),
(51,-276,ls),
(37,-276,o),
(30,-289,o),
(30,-315,cs),
(30,-341,o),
(38,-354,o),
(53,-354,cs)
);
}
);
width = 662;
}
);
unicode = 93;
}
{
glyphname = asciicircum;
layers = (
{
layerId = master01;
shapes = (
{
closed = 1;
nodes = (
(246,535,l),
(549,1217,l),
(850,535,l),
(985,535,l),
(600,1372,l),
(496,1372,l),
(106,535,l)
);
}
);
width = 1096;
},
{
layerId = "75918100-ED89-42A8-B0FE-888EB9C86810";
shapes = (
{
closed = 1;
nodes = (
(270,535,l),
(549,1112,l),
(825,535,l),
(1044,535,l),
(625,1372,l),
(471,1372,l),
(49,535,l)
);
}
);
width = 1093;
},
{
layerId = "6ABD9449-5E80-4451-809E-12ADEB9E9AB4";
shapes = (
{
closed = 1;
nodes = (
(238,535,l),
(549,1252,l),
(858,535,l),
(965,535,l),
(592,1372,l),
(504,1372,l),
(125,535,l)
);
}
);
width = 1097;
},
{
layerId = "70B83247-6FA0-4662-9656-C86DD2A17D3B";
shapes = (
{
closed = 1;
nodes = (
(221,535,l),
(456,1186,l),
(690,535,l),
(823,535,l),
(505,1372,l),
(407,1372,l),
(85,535,l)
);
}
);
width = 912;
},
{
layerId = "9E6FDE2E-55A6-44A9-9556-F1822294BF26";
shapes = (
{
closed = 1;
nodes = (
(271,535,l),
(642,1248,l),
(1010,535,l),
(1147,535,l),
(695,1372,l),
(585,1372,l),
(127,535,l)
);
}
);
width = 1280;
},
{
layerId = "00F4936D-6309-4DEC-83B3-42806ED1A477";
shapes = (
{
closed = 1;
nodes = (
(246,535,l),
(549,1217,l),
(850,535,l),
(985,535,l),
(600,1372,l),
(496,1372,l),
(106,535,l)
);
}
);
width = 1096;
}
);
unicode = 94;
}
